<svg id="ACTIVE" xmlns="http://www.w3.org/2000/svg" viewBox="0 0 24 15"><defs><style>.cls-1{fill:#545454;fill-rule:evenodd;}</style></defs><title>Artboard 1</title><path class="cls-1" d="M7.63,6.47V8.93C9.09,9,10.54,9,12,9a4.05,4.05,0,0,1-2.47,2.74,5,5,0,0,1-5.37-1.15,4,4,0,0,1-1-1.6A4.53,4.53,0,0,1,6.29,3.13,5.56,5.56,0,0,1,10.78,4c.68-.61,1.31-1.25,1.93-1.9A7.89,7.89,0,0,0,7.25.29,7.43,7.43,0,0,0,.05,6.81a5.45,5.45,0,0,0,0,.7A6,6,0,0,0,.12,8.63a7.36,7.36,0,0,0,5,5.71,7.75,7.75,0,0,0,8.2-2.07A7.86,7.86,0,0,0,14.9,6.48C12.48,6.46,10.05,6.47,7.63,6.47Z"/><path class="cls-1" d="M21.8,6.47c0-.69,0-1.38,0-2.07H19.62c0,.69,0,1.38,0,2.07H17.43V8.54H19.6c0,.69,0,1.37,0,2.06h2.16c0-.69,0-1.37,0-2.06H24V6.48H21.8"/></svg>