<svg id="ACTIVE" xmlns="http://www.w3.org/2000/svg" viewBox="0 0 19 19"><defs><style>.cls-1{fill:#545454;fill-rule:evenodd;}</style></defs><title>Artboard 1</title><path class="cls-1" d="M18.73,5.6a7.17,7.17,0,0,0-.43-2.29,4.71,4.71,0,0,0-1.07-1.67A4.52,4.52,0,0,0,15.58.55,6.38,6.38,0,0,0,13.33.11C12.34.06,12,.05,9.5.05S6.66.06,5.67.11A6.38,6.38,0,0,0,3.42.55,4.52,4.52,0,0,0,1.77,1.64,4.71,4.71,0,0,0,.7,3.31,6.9,6.9,0,0,0,.27,5.6c0,1-.06,1.33-.06,3.9s0,2.89.06,3.9A6.9,6.9,0,0,0,.7,15.69a4.71,4.71,0,0,0,1.07,1.67,4.52,4.52,0,0,0,1.65,1.09,6.38,6.38,0,0,0,2.25.44c1,.05,1.31.06,3.83.06s2.84,0,3.83-.06a6.38,6.38,0,0,0,2.25-.44,4.52,4.52,0,0,0,1.65-1.09,4.71,4.71,0,0,0,1.07-1.67,7.17,7.17,0,0,0,.43-2.29c0-1,.06-1.33.06-3.9s0-2.89-.06-3.9m-1.67,7.72a5.15,5.15,0,0,1-.32,1.75,2.92,2.92,0,0,1-.7,1.09,3,3,0,0,1-1.06.71,5.06,5.06,0,0,1-1.73.32c-1,0-1.27.06-3.75.06s-2.77,0-3.75-.06A5.06,5.06,0,0,1,4,16.87,3,3,0,0,1,3,16.16a2.92,2.92,0,0,1-.7-1.09,5.15,5.15,0,0,1-.32-1.75c0-1-.05-1.3-.05-3.82s0-2.82.05-3.82a5.15,5.15,0,0,1,.32-1.75A2.92,2.92,0,0,1,3,2.84,3,3,0,0,1,4,2.13a5.06,5.06,0,0,1,1.73-.32c1-.05,1.27-.06,3.75-.06s2.77,0,3.75.06A5.06,5.06,0,0,1,15,2.13,3,3,0,0,1,16,2.84a2.92,2.92,0,0,1,.7,1.09,5.15,5.15,0,0,1,.32,1.75c0,1,.05,1.3.05,3.82s0,2.82-.05,3.82"/><path class="cls-1" d="M9.5,4.65A4.85,4.85,0,1,0,14.27,9.5,4.81,4.81,0,0,0,9.5,4.65m0,8A3.15,3.15,0,1,1,12.6,9.5a3.13,3.13,0,0,1-3.1,3.15"/><path class="cls-1" d="M13.34,4.46a1.12,1.12,0,1,0,1.12-1.14A1.13,1.13,0,0,0,13.34,4.46Z"/></svg>