<svg id="ACTIVE" xmlns="http://www.w3.org/2000/svg" viewBox="0 0 20 14"><defs><style>.cls-1{fill:#545454;fill-rule:evenodd;}</style></defs><title>Artboard 1</title><path class="cls-1" d="M19.81.22C17.39,0,0,.3,0,.3L.05,1.78c5.56.22,19.76-.17,19.76-.17A1.44,1.44,0,0,0,19.81.22Z"/><path class="cls-1" d="M.05,7.78c5.56.22,19.76-.17,19.76-.17a1.44,1.44,0,0,0,0-1.39C17.39,6,0,6.3,0,6.3Z"/><path class="cls-1" d="M0,12.3l.05,1.48c5.56.23,19.76-.17,19.76-.17a1.44,1.44,0,0,0,0-1.39C17.39,12,0,12.3,0,12.3"/></svg>