<svg id="ACTIVE" xmlns="http://www.w3.org/2000/svg" xmlns:xlink="http://www.w3.org/1999/xlink" viewBox="0 0 16 20"><defs><style>.cls-1,.cls-2,.cls-3{fill:#545454;}.cls-1{clip-rule:evenodd;}.cls-3{fill-rule:evenodd;}.cls-4{clip-path:url(#clip-path);}.cls-5{clip-path:url(#clip-path-2);}</style><clipPath id="clip-path"><path class="cls-1" d="M3.43,19.69a12.59,12.59,0,0,1,0-3.62L5,9.8a4.55,4.55,0,0,1-.38-1.87c0-1.76,1-3.07,2.27-3.07A1.58,1.58,0,0,1,8.42,6.64a25.84,25.84,0,0,1-1,4.2,1.82,1.82,0,0,0,1.85,2.28c2.23,0,3.94-2.36,3.94-5.78A5,5,0,0,0,8,2.21,5.44,5.44,0,0,0,2.29,7.68a5,5,0,0,0,.93,2.89.36.36,0,0,1,.09.36c-.1.4-.31,1.25-.35,1.43s-.18.28-.42.17C1,11.79,0,9.49,0,7.64,0,3.66,2.87,0,8.28,0,12.62,0,16,3.12,16,7.29c0,4.35-2.72,7.85-6.5,7.85a3.33,3.33,0,0,1-2.87-1.45s-.63,2.41-.78,3A14.45,14.45,0,0,1,4.29,20Z"/></clipPath><clipPath id="clip-path-2"><rect class="cls-2" width="16" height="20"/></clipPath></defs><title>Artboard 1</title><path class="cls-3" d="M3.43,19.69a12.59,12.59,0,0,1,0-3.62L5,9.8a4.55,4.55,0,0,1-.38-1.87c0-1.76,1-3.07,2.27-3.07A1.58,1.58,0,0,1,8.42,6.64a25.84,25.84,0,0,1-1,4.2,1.82,1.82,0,0,0,1.85,2.28c2.23,0,3.94-2.36,3.94-5.78A5,5,0,0,0,8,2.21,5.44,5.44,0,0,0,2.29,7.68a5,5,0,0,0,.93,2.89.36.36,0,0,1,.09.36c-.1.4-.31,1.25-.35,1.43s-.18.28-.42.17C1,11.79,0,9.49,0,7.64,0,3.66,2.87,0,8.28,0,12.62,0,16,3.12,16,7.29c0,4.35-2.72,7.85-6.5,7.85a3.33,3.33,0,0,1-2.87-1.45s-.63,2.41-.78,3A14.45,14.45,0,0,1,4.29,20Z"/><g class="cls-4"><rect class="cls-2" width="16" height="20"/><g class="cls-5"><rect class="cls-2" x="-5" y="-5" width="26" height="30"/></g></g></svg>