<svg xmlns="http://www.w3.org/2000/svg" viewBox="0 0 83 89"><defs/><path fill="currentColor" d="M34.66 75.44a3.81 3.81 0 0 0-3.75 4.49c.88 4.85 4.94 9.26 10.07 9h.69a11.82 11.82 0 0 0 9.48-7.33c3.43-8.47-12.56-6.16-16.49-6.16zM74.79 57.33c-4.23-3.23-5.43-9.14-5.63-14.4-.26-6.66-.16-12.44-2.54-18.73A27.61 27.61 0 0 0 54.92 10a9 9 0 0 1-3.3-3.31c-.82-1.54-1.09-3.2-2.52-4.4A10.37 10.37 0 0 0 42.84 0h-.67a11.47 11.47 0 0 0-7.93 3 9.68 9.68 0 0 0-2.87 5.36C23.69 11.31 19 17 17.7 24.88c-.76 4.73-1.11 9.52-1.45 14.16-.09 1.16-.17 2.33-.26 3.49-.47 6-2.12 11.93-7.66 15.09-2.11 1.21-4.48 1.45-6.07 3.46C1 62.67-.53 65.76.67 67.67c1.76 2.8 5.56 3.39 9.36 3.39 2.79 0 5.58-.32 7.58-.32h44.08c5 0 10 .29 15 .39h.21a9.33 9.33 0 0 0 1.27-.13c2.64-.39 4.6-2 4.59-5.07-.01-5.22-4.51-5.93-7.97-8.6zM71.11 64c-3.07-.11-6.24-.22-9.42-.22H17.61c-1.13 0-2.33.07-3.6.15-.94.06-1.89.12-2.83.15l.62-.34C21.79 58 22.67 46.78 23 43.08c.1-1.17.18-2.35.27-3.53.33-4.49.67-9.12 1.38-13.55.88-5.42 3.9-9 9.25-11.08a7 7 0 0 0 4.4-5.32 2.74 2.74 0 0 1 .81-1.51A4.54 4.54 0 0 1 42.17 7h.3a4.39 4.39 0 0 1 1.83.44c.07.16.14.34.2.49a21.66 21.66 0 0 0 .93 2 15.91 15.91 0 0 0 5.67 5.91c4.66 3 7.17 6.05 9 10.8 1.69 4.42 1.83 8.68 2 14.06 0 .81.05 1.63.08 2.46.36 9.09 3.18 15.71 8.38 19.68.54.41 1.07.78 1.58 1.1z"/></svg>
