<svg data-name="AGES 1-3" xmlns="http://www.w3.org/2000/svg" viewBox="0 0 120.25 99.53"><path fill="currentColor" d="M114.08 77.47c-3.17-1.43-6.66-1.21-9.74-1 .24-2.2.72-5.34 1-7.14.36-2.33.53-3.47.56-4.1a35.44 35.44 0 0 0-.51-7.34 36.72 36.72 0 0 0-7.95-17.23c-3.62-4.27-8.53-7.16-15-8.83l-1.98-.56a41.86 41.86 0 0 0-9.08-1.72 60.56 60.56 0 0 0-8.74.4 40.4 40.4 0 0 1-10.11.13 8.94 8.94 0 0 0-1.32-.1 25.14 25.14 0 0 0 .77-10.71 23.08 23.08 0 0 0-.6-2.71C48.78 7.38 40.03 1.08 28.55.1c-12-1-22.41 4.07-26.64 12.94-5.84 12.23 2.62 30.55 13.38 36.42a20.57 20.57 0 0 0 9.92 2.57 20.84 20.84 0 0 0 2.5-.17l-.15.27a30 30 0 0 0-1.3 2.82c-.23.55-.46 1.11-.72 1.64l-.43.9c-1.2 2.46-2.43 5-3.51 7.59-.56 1.33-1.16 2.65-1.76 4-2.51 5.55-5.1 11.29-5.1 17.84 0 3.88.4 7.58 5.21 10.22a20.66 20.66 0 0 0 9.2 2.41 11.87 11.87 0 0 0 2.14-.18c5.93-1.09 7.9-5.2 9.63-8.82 1.44-3 2.69-6.14 3.91-9.18.66-1.66 1.32-3.31 2-4.94.22-.51.4-1 .57-1.57a4.89 4.89 0 0 1 .65-1.48 19.45 19.45 0 0 1 4.14 0 34 34 0 0 0 3.69.08 61.21 61.21 0 0 1 6.54.15c1.45.08 2.95.17 4.44.19s3.21 0 4.82 0c1.18 0 2.31 0 3.64-.09a2.7 2.7 0 0 0 1 .43c-.07.89-.22 1.9-.31 2.54a21.11 21.11 0 0 0-.29 2.78v.81c0 6 0 14.13 7.71 17.81a13.3 13.3 0 0 0 6.23 1H103.53c5.29.19 15.14.55 16.5-7.81.78-4.76-.31-11.26-5.95-13.8zM51.63 36.04a45.66 45.66 0 0 0 11.6-.09 54.73 54.73 0 0 1 7.89-.38 25 25 0 0 1 4.32.64c.07 9.75.66 19.17.66 29 0 .8 0 1.58.07 2.35h-.14c-5.35-2.64-13.3-2-19.38-1.54-1.09.09-2.09.17-3 .21h-.68c-5.67.3-10.57.57-13.91 7.13a20.71 20.71 0 0 0-2.26 7.42 2.82 2.82 0 0 0-.34 1.31 8.89 8.89 0 0 1-4.36 7.76c-3.44 2.07-6-.21-7.62-2.5-1-1.44-1.15-3.26-1.16-5.35a181.4 181.4 0 0 1 10.72-22.59c1.19-2 2.31-4.16 3.39-6.21.75-1.41 1.51-2.85 2.3-4.27a29.15 29.15 0 0 0 7.83-7.66 20.16 20.16 0 0 0 1.71-2.9c1-2 1.35-2.39 1.89-2.39a3.06 3.06 0 0 1 .47.06zm-44-5.85c-2.14-8.24 3.1-16.17 9.24-20.38a19.57 19.57 0 0 1 10.69-3.54 12.89 12.89 0 0 1 7.68 2.45 16.58 16.58 0 0 1 1.51 1.23c3.76 3.46 6.12 9.17 6.61 15.11a3 3 0 0 0-.15 1.48c.31 2-2.86 9.14-6 14.56-.59.51-1.2 1-1.84 1.45a20.64 20.64 0 0 1-5.17 2.66c-8.37.41-20.31-6.23-22.57-15.02zm106.5 60.15c-.42 2.61-4.28 3-10.35 2.78l-1.82-.05H89.63a8 8 0 0 1-3.63-.46c-4-1.92-4.3-6-4.29-12.38v-.83c0-.34.12-1.18.23-1.93a32.18 32.18 0 0 0 .4-4c2.88 0 5.75-.07 8.65-.07 2.53 0 5.13-.3 7.68-.42-.76 5.38-.79 7.79.78 8.91a3.08 3.08 0 0 0 1.68.72 3.23 3.23 0 0 0 1.05-.06c.84 0 1.69-.07 2.52-.12 2.5-.16 5.08-.32 6.89.5 2.39 1.07 2.98 4.6 2.52 7.42z"/></svg>
