<svg data-name="AGES 0-1" xmlns="http://www.w3.org/2000/svg" viewBox="0 0 120.07 155"><path d="M55.36 56a29.67 29.67 0 0 0 5.27.48A22.32 22.32 0 0 0 74.3 52.2c9.39-7.13 13.88-16.57 13.34-28a20.22 20.22 0 0 0-.28-2.43C85.98 11.73 76.98 1.95 67.22.25c-.2 0-.4-.05-.6-.07l-.09-.03a16.08 16.08 0 0 0-3.64-.09H59.3a27.58 27.58 0 0 0-26.88 19.77 30.66 30.66 0 0 0 3.46 23.84C39.75 49.83 47.21 54.56 55.36 56zM40.05 20.89A20.65 20.65 0 0 1 57.66 6.13c.54 0 1.09-.06 1.64-.06h2.34c.5 0 1 0 1.57-.05a11.76 11.76 0 0 1 2.25 0c7.94 1.37 15.8 10.32 16.18 18.41a29.77 29.77 0 0 1-.11 4.86c-1 6.65-4.42 12.27-10.28 16.76-3.46 2.65-8.28 3.57-13.59 2.62-6.29-1.14-12-4.72-14.88-9.34a23.87 23.87 0 0 1-2.73-18.44zm73.83 64.28a68.54 68.54 0 0 0-14.85-19.81l-.11-.1c-5.12-4.6-17.1-15.36-24.43-9.7a23.16 23.16 0 0 0-3.23 3.13c-1.49 1.67-2.31 2.58-4.72 3a32.35 32.35 0 0 1-15.36-1c-.85-.31-1.66-.62-2.44-.92-3.32-1.27-6.45-2.47-9.74-2.54h-.27c-11.14 0-20.42 13.57-26.45 23.82C10 85-9.59 119.56 5.92 138c5.5 6.54 13 8.85 20.33 11.08 2.29.7 4.65 1.42 6.85 2.26A57.08 57.08 0 0 0 51.82 155h1.12c11.46-.35 16-6 17.77-10.6 1.87-4.86 1.77-9-.31-12.44a12 12 0 0 0-2.44-2.85 5.87 5.87 0 0 0 2.26-.26 4.88 4.88 0 0 0 1.74-1.21c0 .18.07.36.12.54 1.79 6.68 9.05 12.21 15.57 11.89 10-.52 19.78-7.69 25.64-14.22 8.82-9.85 9.03-24.28.59-40.68zm-5.06 36.69c-4.83 5.38-13.35 11.81-21.48 12.24-3.65.18-8.41-3.58-9.46-7.47-.58-2.16.21-3.7 2.49-4.85a3 3 0 0 0 0-5.34 49.16 49.16 0 0 0-6.48-2.44l-1.42-.47c-7.67-3.57-13.65-9.43-18.89-15.65l-.37-.56c-1.91-2.92-4.08-6.23-7.69-6.81a7.57 7.57 0 0 0-6 1.85c-5.92 4.69-3.48 10.44-1.87 14.25l.08.2c.5 2.07 1.05 4.38.82 5.59a5.63 5.63 0 0 1-1.16 2.41 8.71 8.71 0 0 1-1.81 1.41 11.17 11.17 0 0 1-4.15 1.42 11 11 0 0 1-1.43 0h-.72a3.47 3.47 0 0 0-3.8 1.78 3.51 3.51 0 0 0-.06 3.32c.67 1.33 1.68 3.34 16.46 5.41h.18c1.18.17 2.51.32 3.93.48 6.59.75 16.55 1.89 19.28 6.35 1.08 1.76 1 4.12-.17 7.22-1.65 4.29-5.81 6.57-12.35 6.77-7.68.23-15.35-2.43-17.51-3.25-2.39-.91-4.85-1.66-7.23-2.39-6.75-2.06-13.13-4-17.49-9.2-10.46-12.44-.55-37.34 6.95-50.09 8.15-13.85 15.3-20.87 21.27-20.87h.16c2.24 0 4.65 1 7.71 2.14.81.31 1.65.63 2.53 1a38.3 38.3 0 0 0 18.49 1.28c4.45-.8 6.41-3 8.13-4.93a17.77 17.77 0 0 1 2.42-2.38c.79-.61 4.32-1.73 16.72 9.42l.11.1a62.61 62.61 0 0 1 13.52 18.09c9.28 18 5.28 28.41.29 33.97zm-12.76-24.3c-3.11 12.06-21.69 20.1-30 8.21-5.91-8.45-3.69-18 3.31-22.92a18.49 18.49 0 0 1 9.79-3.19c3.68-.17 6.94 0 10 2 6.16 3.98 8.82 8.46 6.9 15.9z" fill="currentColor"/></svg>

