<svg xmlns="http://www.w3.org/2000/svg" viewBox="0 0 155 113.15"><path fill="currentColor" d="M144.29 52.53c-1.35-3.51-2.4-7.13-3.56-10.71-1.73-5.31-3.42-10.62-5.16-15.92-.47-1.43-1-2.84-1.63-4.23-1.6-3.7-3.15-7.42-4.9-11.06-1.06-2.21-2.48-4.25-3.66-6.4-.52-.95-.78-2-1.26-3-.68-1.4-1.2-1.51-2.46-.69a1.14 1.14 0 0 1-.78.19 8.45 8.45 0 0 0-5.44.59 51.46 51.46 0 0 1-8.65 2.08A105.77 105.77 0 0 0 88 9c-4 1.63-7.82 3.55-11.65 5.49a37.37 37.37 0 0 0-10 7.26 2.71 2.71 0 0 1-3.11.87 56.88 56.88 0 0 0-5.49-1.61c-4.66-.88-9.35-1.59-13.79-2.33-3 .21-5.74.36-8.46.58a67.22 67.22 0 0 0-19.11 3.92c-3.39 1.33-6.66 2.37-9.75 4.26-1.47.9-3.1 1.51-4.56 2.41-3.6 2.21-1.61 3.69-.76 6.88.56 2.09.49 4.29 1.16 6.41A56.13 56.13 0 0 1 4.17 49c.46 2.31 1.52 4.05 2.32 6.27.92 2.57.86 5.56 1.21 8.3.39 3.09 1.79 5.91 2.51 8.92s.86 6.52 1.35 9.73c.57 3.68 1.57 7.32 1.91 11a128.19 128.19 0 0 0 2.67 18.3 3 3 0 0 0 .93 1.36c.51.47 3.93.23 4.52-.17 1.91-1.31 3.83-2.6 5.75-3.89a1.31 1.31 0 0 1 .27-.1 53.77 53.77 0 0 1 11.74-2.92c3-.42 6.09-.55 9.14-.82 2.1-.19 4.19-.51 6.29-.62 3.54-.19 7.09-.34 10.63-.38 3.82 0 7.65 0 11.48.13 4.27.13 8.52 1.8 12.82.23a4.36 4.36 0 0 0 1.77-1c1.21-1.37 2.26-2.88 3.42-4.28a21.63 21.63 0 0 1 3.41-3.77 58.53 58.53 0 0 1 6.71-4.09c2.86-1.57 5.73-3.13 8.71-4.46a52.48 52.48 0 0 1 7.27-2.49c2.42-.67 4.89-1.16 7.37-1.59 2.26-.39 4.58-.45 6.81-.91 4.31-.89 8.47.22 12.68.72a1.14 1.14 0 0 1 .64.32 3.92 3.92 0 0 0 3 .9c2.64.07 4.08-1.63 3.22-4.12-1.7-4.95-3.4-9.89-5.29-14.77-1.57-4.12-3.55-8.13-5.14-12.27zm-4.34 22.31a47.49 47.49 0 0 0-7.3 0c-4.6.52-9.18 1.21-13.72 2.09a53.15 53.15 0 0 0-6.75 2.18 44.31 44.31 0 0 0-4.7 1.66c-2.37 1.11-4.66 2.39-7 3.63a76 76 0 0 0-15.25 11 2.76 2.76 0 0 1-2.48.73 97 97 0 0 0-10.56-1.37c-5.31-.19-10.63 0-16 .12a62.57 62.57 0 0 0-12.54 2 94.87 94.87 0 0 0-14.1 4.59c-1.2.47-2.43.87-3.63 1.34-1 .37-1.64.1-1.9-.86-1.1-4.06-2.21-8.12-3.22-12.21-.73-2.92-1.28-5.89-2-8.82-1.07-4.41-2.15-8.82-3.34-13.2-1.25-4.62-2.64-9.19-3.92-13.8-.59-2.14-1-4.32-1.62-6.46-.53-1.91-1.34-3.75-1.77-5.68-.58-2.58-.89-5.22-1.34-7.84-.19-1.09.47-1.54 1.34-1.88l7.61-3a4.69 4.69 0 0 1 1.23-.38c2.74-.24 5.49-.45 8.24-.68a2.49 2.49 0 0 0 1-.19c2.32-1.31 4.86-.68 7.29-.77a95 95 0 0 1 10 .15c4.58.32 9.2.46 13.64 1.89 2.09.67 4.28 1 6.37 1.66a2.61 2.61 0 0 1 1.57 1.34 124.3 124.3 0 0 1 5.37 16.77c1 4.1 2.2 8.14 3.33 12.2 1 3.67 2.09 7.32 3.09 11 .67 2.46 1.32 4.94 1.85 7.43a6 6 0 0 0 5.12 4.71c.9 0 2-1.39 2-2.75a13.22 13.22 0 0 0-.47-3.23c-1.57-5.34-3.29-10.64-4.79-16-1.25-4.46-2.27-9-3.37-13.48s-2.1-8.65-3.15-13.06c-.46-1.94-1-3.86-1.39-5.81a1.44 1.44 0 0 1 .31-1.12c1.89-1.93 3.81-3.83 5.75-5.71a34.74 34.74 0 0 1 7.81-5.95A40.61 40.61 0 0 1 96 13.2c1.37-.34 2.6-1.23 4-1.63 3.25-.95 6.54-1.76 9.81-2.6 2-.51 3.94-1 5.94-1.44 2.42-.49 2.86-.27 3.95 1.87 1.93 3.81 4 7.57 5.68 11.49 1.58 3.69 2.76 7.54 4.1 11.33 1.12 3.17 2.2 6.36 3.3 9.53 1.42 4.07 2.78 8.15 4.28 12.19 1.19 3.2 2.65 6.29 3.79 9.5 1.34 3.78 2.47 7.64 3.85 12-1.79-.25-3.27-.54-4.76-.6z"/></svg>
