<svg data-name="AGES 5+" xmlns="http://www.w3.org/2000/svg" viewBox="0 0 155 155"><path fill="currentColor" d="M155 11.76a18.82 18.82 0 0 1-7.18 8.36 7.28 7.28 0 0 1-8.81-.49 31.69 31.69 0 0 0-16-7.05c-2-.27-2.58-1.43-2.07-3.53C123.05.3 130.8-2.63 138 2.59a101.09 101.09 0 0 0 9.69 6.33c2.14 1.21 4.62 1.82 7.31 2.84zM89.38 9C87.24.3 79.49-2.63 72.29 2.59a101.09 101.09 0 0 1-9.69 6.33c-2.15 1.21-4.62 1.82-7.31 2.83a18.82 18.82 0 0 0 7.18 8.36 7.28 7.28 0 0 0 8.81-.49 31.69 31.69 0 0 1 16-7.05c2.02-.26 2.62-1.43 2.1-3.57zM14.56 51.46c7.95 4.19 16.87-.31 23.34-5.7 5.35-4.46 8-16.51 4.41-22.56-2.73-4.62-4-7-8.73-9.64-3.14-1.76-9.69-2.78-13.3-2.51-4.37.33-7.86 2.66-11.14 5.58C4.61 20.66.94 28 1.26 34.2c.36 6.91 7.62 14.26 13.3 17.26zm70.21-16.78c.72 6.08 4.61 13.3 9.83 16.52 5.81 3.59 15.88 1.62 21.51-1.47 7.87-4.33 9.25-14.37 8.51-22.84-.61-7-8.91-16-15.84-16.41-5.29-.3-8-.55-12.74 1.91-3.2 1.61-7.72 6.61-9.53 9.78-2.2 3.83-2.27 8.11-1.74 12.51zm43.76 67.45c.55 3.36 1 6.57.61 8.87-.9 5-5.59 5-7.83 4.92h-2.72a25.94 25.94 0 0 0-.09 4.72c.06 3.07-.3 6.45 0 9.56a71 71 0 0 1-.17 9.87v8.12c0 4.36-1.81 6.25-6 6.28h-3.56a8.25 8.25 0 0 1-2 0h-7.55C97 154.4 95 154 94 151.64c-1.19-2.81-.64-6.22-.23-9.38v-11.69a68.28 68.28 0 0 1-.22-7.78 52.35 52.35 0 0 0 .1-6.24c0-.21-.06-.43-.1-.64a32.62 32.62 0 0 1-6.34-.28c-3.43-.57-5.07-2.83-4.87-6.71a39.28 39.28 0 0 1 .81-6.07l.23-1.09c.28-1.36.57-2.77.92-4.11a17.27 17.27 0 0 0 .38-3.17 23.37 23.37 0 0 1 .52-4.17A60.19 60.19 0 0 0 86.57 83 60.45 60.45 0 0 1 88 75.11c2.86-11 10.81-16.92 21.84-16.27 14.55.86 15.38 19.2 15.65 25.23.09 1.92.32 3.85.57 5.9.15 1.24.3 2.49.42 3.72a18.71 18.71 0 0 0 1 3.93 27.36 27.36 0 0 1 1.06 4zm-5.9 1l-.08-.48a22.29 22.29 0 0 0-.85-3.16 24.12 24.12 0 0 1-1.23-5.24c-.11-1.18-.26-2.36-.4-3.55-.25-2.07-.52-4.22-.61-6.37-.58-12.89-3.77-19.06-10-19.43-10.32-.6-14.24 6.1-15.72 11.76a54.28 54.28 0 0 0-1.22 7A66 66 0 0 1 91 91.75a18.13 18.13 0 0 0-.36 3.09 22.44 22.44 0 0 1-.57 4.35c-.31 1.2-.59 2.53-.85 3.82l-.22 1.11a33.14 33.14 0 0 0-.68 5.1v.41a29 29 0 0 0 5.17.18c1.23 0 2.51-.06 3.84 0 5.12.25 10.41.17 15.52.09 2.88 0 5.79-.12 8.6-.06a14.92 14.92 0 0 0 1.86 0 32 32 0 0 0-.68-6.7zM44.32 93c1 4.76 2.2 10.67 1.83 16.55-.38 6.18-4 6.48-7.29 6.26a11.15 11.15 0 0 0-2.59.21c.13 2.59-.09 5.5-.09 7.55 0 4-.4 7.52-.75 11.36-.42 4.68 1.42 13.56-1.5 17.31s-13.27 3-17.31 1.76c-6.6-2-4.88-12.33-4.88-17.89 0-6.7-.35-13.31-.45-20-3.27 0-7.22-.15-9.59-2.82a7.44 7.44 0 0 1-1.7-5.9 173.26 173.26 0 0 1 2.8-18.65c.53-2.57.9-5.28 1.26-7.89.46-3.3.93-6.71 1.72-10.06.11-.44.22-.89.34-1.33A15.44 15.44 0 0 1 8 65.13c2.33-3.52 6.74-5.11 10-6.26a18.27 18.27 0 0 1 16.43 2.65c7 5.23 8 15 8.88 23.68.27 2.8.55 5.51 1.01 7.8zm-4.14 16.17v-1.39a5.56 5.56 0 0 1-1.08-.06h1.08a65.13 65.13 0 0 0-1.76-13.47c-.53-2.56-.82-5.4-1.12-8.4-.75-7.39-1.6-15.76-6.47-19.39A12.65 12.65 0 0 0 23.47 64a10.39 10.39 0 0 0-3.5.57c-2.3.82-5.76 2.07-7 3.92a9.35 9.35 0 0 0-1.12 2.64c-.1.35-.19.7-.27 1-.72 3.07-1.16 6.18-1.61 9.48-.37 2.71-.76 5.52-1.33 8.29A166.94 166.94 0 0 0 6 108a1.89 1.89 0 0 0 .15 1.21c.68.77 3.7.79 5.5.81 1.06 0 2.07 0 3 .11a113.39 113.39 0 0 0 16.62.51 21.3 21.3 0 0 0 2.84-.41 19.82 19.82 0 0 1 5.1-.48h.89c.05-.17.07-.37.08-.62z"/></svg>
