<svg xmlns="http://www.w3.org/2000/svg" viewBox="0 0 128.06 112.69"><path fill="currentColor" d="M124.06 104.68c-1.61 0-3.18-.07-4.76-.16-.57-5.76-1-11.61-1.5-17.29-.38-4.82-.78-9.8-1.24-14.69-.66-7-1.68-14.14-2.66-21q-.38-2.64-.75-5.25c-.37-2.61-.85-5.2-1.32-7.7-.58-3.12-1.14-6.06-1.48-9.06-.14-1.2-.18-2.45-.23-3.78a32 32 0 0 0-1.08-8.4c-.17-.57-.36-1.35-.55-2.18-.71-3-1.51-6.42-3.59-8.62-2.38-2.54-5.77-2.69-8.24-2.8a16.12 16.12 0 0 1-1.72-.13h-.15a82.72 82.72 0 0 0-11.47-1.49c-1.63-.06-3.26-.07-4.89-.05a3.07 3.07 0 0 0-5.83.18c-1.77.08-3.53.18-5.27.28-2.52.15-5.13.3-7.67.39-1.24 0-2.5.06-3.76.07a3.07 3.07 0 0 0-6.14 0H48.7c-4.44-.07-9-.13-13.61.12l-1.48.06c-3.88.13-9.19.3-12.56 4.48-2.61 3.24-2.78 8.18-2.93 12.54-.05 1.46-.1 2.84-.24 3.8-.38 2.58-.64 5.3-.9 7.93-.35 3.62-.71 7.37-1.38 10.68a139.74 139.74 0 0 0-2.39 20.67 146.22 146.22 0 0 1-2.53 20.41c-.61 3.32-1.09 6.47-1.59 9.8l-.14.9a45 45 0 0 1-1 4.42 48.58 48.58 0 0 0-1.13 5.3c-.94 0-1.89.05-2.86.05a4 4 0 0 0 0 8c3 0 5.9-.16 8.68-.31s5.44-.3 8.26-.3a4 4 0 0 0 0-8c-2 0-4 .07-5.9.17.19-1 .43-1.92.69-2.94a52.11 52.11 0 0 0 1.12-5.19l.14-.9c.49-3.26 1-6.34 1.54-9.54a153.86 153.86 0 0 0 2.66-21.51 131.52 131.52 0 0 1 2.28-19.56c.74-3.71 1.13-7.66 1.5-11.48.26-2.65.5-5.15.85-7.54a44.89 44.89 0 0 0 .32-4.68c.09-2.49.24-6.65 1.17-7.81 1.06-1.32 4.13-1.42 6.59-1.5l1.67-.07c4.3-.24 8.74-.17 13-.11h1c-.22 7.48-.7 14.94-1.17 22.23-.64 9.92-1.3 20.18-1.3 30.44v3.57c0 2.17.07 4.42 0 6.56V78.22c-2.4-.05-4.07-.18-4.06-.44-.15 3.22-.13 7.57 1.82 10.25 2.1 2.9 7.85 3.59 11.06 3.79a85.66 85.66 0 0 0 19-.92c2.32-.4 7-.72 8.61-2.82 1.1-1.43 1.09-8.2-.41-9.45-.9-.75-3.07-.75-5.19-.61.15-4.34.48-8.61.84-12.65.43-4.88.41-10.13.4-15.2v-2.8c0-7.46-.14-15-.28-22.23-.1-5-.19-10.05-.24-15.15h4.34a75.49 75.49 0 0 1 10.38 1.37h.15a21.19 21.19 0 0 0 2.76.25 11.18 11.18 0 0 1 2.82.34c.6.77 1.26 3.56 1.58 4.93.22 1 .44 1.86.69 2.67a25.68 25.68 0 0 1 .74 6.36c.05 1.42.11 2.89.28 4.39.38 3.28 1 6.51 1.56 9.63.47 2.52.92 4.91 1.26 7.34q.37 2.63.75 5.28c1 6.79 2 13.81 2.62 20.64.45 4.83.85 9.79 1.23 14.58.42 5.27.86 10.69 1.38 16.08-1.71-.1-3.44-.18-5.21-.18a4 4 0 0 0 0 8c2.87 0 5.66.22 8.62.44s6.16.48 9.45.48a4 4 0 0 0 0-8zm-51.32-79.4c.14 7.23.28 14.71.28 22.11v2.82c0 4.94 0 10-.37 14.64-.38 4.29-.73 8.83-.87 13.47-2.73-.08-5.39-.27-8.15-.27-.78 0-5.55.14-10.29.19v-2-2.29c.1-2.32.06-4.66 0-6.93v-3.47c0-10.06.65-20.21 1.29-30 .48-7.39 1-15 1.18-22.59 1.38 0 2.76 0 4.14-.07 2.64-.09 5.29-.25 7.86-.4l4.7-.26c.02 5.06.13 10.12.23 15.05z"/></svg>
