<svg data-name="CREATIVE PLAY" xmlns="http://www.w3.org/2000/svg" viewBox="0 0 155 155"><path fill="currentColor" d="M124.18 36.93c-.27-.4-.4-.94-.69-1.31s-.66-.51-1.28-.92c-1.28-.84-2.07-2.43-3.5-3.06a16.64 16.64 0 0 0-10.16-1.19 9.43 9.43 0 0 0-4.61 2.4c-1.53 1.51-2 3.57-3.46 5.12a6.54 6.54 0 0 0-1.74 4c-.47 2.62-.72 5.21.21 7.67 1.28 3.4 3.64 8 7.19 9.22a12.76 12.76 0 0 1 2.79.89 5.05 5.05 0 0 0 3.65.75c2.53-.34 4.47-1.68 6.62-3.07a35.38 35.38 0 0 0 4.47-2.95 9.31 9.31 0 0 0 .86-.86c1.22-1.4 1.25-3 1.41-4.8.27-3 1-8-.66-10.52-.34-.49-.78-.89-1.1-1.37zm-4 11.17a8.29 8.29 0 0 1-2.12 3.66c-1.95 2-5 3.43-7.73 2.61-1.41-.42-2.75-2.22-3.94-3-1.76-1.24-1.32-2.66-1.59-4.67a8.17 8.17 0 0 1 .35-4.89 7.17 7.17 0 0 1 .46-.89 10.38 10.38 0 0 1 2.67-2.78c2.2-1.7 5.23-2.5 7.82-1.26 2.75 1.31 2.83 4.05 4.38 6.31.58.81-.02 3.93-.29 4.9zM149.73.36c-1.87.24-3.72.67-5.57 1-2.65.53-5.61.33-8.11 1.62s-5.25.39-7.77 1.7c-2.09 1.09-4.5 1.22-6.65 2.15a11.19 11.19 0 0 1-3.4 1.18 9.78 9.78 0 0 0-3.28.74c-3.23 1.6-5.46 4.39-8.88 5.61-4.16 1.48-7.59 5.13-10.67 8.23-1.06 1.06-2.23 2-3.22 3.14-2.73 3.09-5.41 6.2-8.1 9.27-2.54 2.9-4.79 6.05-7.4 8.91-1.68 1.9-2.79 4.09-4.52 5.9-.8.83-1.55 1.69-2.34 2.53-.53.56-1.39.93-1.81 1.58-.3.47-.27 1.06-.64 1.54-.76 1-2.26 1.27-3.37 1.45-2.59.44-5.19.13-7.8.13-2.82 0-5.58-.39-8.36-.38-1.9 0-4.28-.44-6.11 0-1.68.4-2.21 2.19-3.24 3.4S35.9 62.46 35 64c-1.08 1.82-2.14 3.62-3.36 5.34-1.69 2.37-4.22 4.17-5.73 6.63-2 3.24 2.36 5.46 4.93 6 1.26.26 6.5 2 6.92.49-.9 1.46 2.15 1.52 3 1.77s3.17.45 3 1.76c0 .39-.93.75-1.06 1.57a18.12 18.12 0 0 0 .14 2.4 10.59 10.59 0 0 1-1.34 4.13c-1.3 2.63-3.14 4.9-4.54 7.46-1.1 2-.55 3.46.72 5.12s2.25 3.84 3.52 5.63c1.43 2 3.21 3.69 4.71 5.62 1.23 1.58 2.29 3.2 3.65 4.69 1.71 1.86 2.6 1.69 4.94 2.07 1.07.17 2.14 1.18 3.31.83.82-.25 1.15-1.17 1.88-1.53s1.43-.32 2.09-.61A9.38 9.38 0 0 0 64 122c1.36-1.09 2.56-2.53 4.25-3a22.46 22.46 0 0 1 3.25-.23c1.07-.15 2-1.26 3-1.25a38.55 38.55 0 0 1 1.49 6.09 35.35 35.35 0 0 0 .88 4.45 13.33 13.33 0 0 0 .46 1.6 6.72 6.72 0 0 0 .56 1v1.51a2 2 0 0 0 .15.58 4.37 4.37 0 0 1 .27.66c.27 1.54-.43 2.95 1.23 3.89a5 5 0 0 0 3.4.29c.65-.33 1.17-1.51 1.74-2s1.2-.87 1.75-1.35c1-.86 2-1.61 3-2.41 2-1.58 3.69-3.82 5.71-5.49 1.09-.9 2.28-1.71 3.33-2.66a12.85 12.85 0 0 0 2.16-2.3l.1-.18c.55-1.12.22-2.24.41-3.43a8.28 8.28 0 0 0 .29-3.39 35.13 35.13 0 0 1-.24-14.93c.38-1.67-.09-3.74.69-5.23a13.22 13.22 0 0 1 4.25-4.26c.88-.59 1-.46 1.5-1.49a16.47 16.47 0 0 1 1.77-2.92 19.45 19.45 0 0 1 3.4-3.13 62.5 62.5 0 0 0 6-4.59c3.45-3.19 7.57-5.67 10.89-9a26.4 26.4 0 0 0 2.59-3.31c1.13-1.64 2.3-3.06 3.55-4.59 1.54-1.88 3.53-4 4.51-6.16.32-.71 2.76-6.58 3.25-6.61.7 0 .49-.67.66-1.07 1-1.31 1-3.85 1.69-5.46.85-2 2-3.92 2.66-6 .41-1.22 1-2.39 1.53-3.57.8-1.93.56-3.68.93-5.73.59-3.24 2.24-6.31 2.78-9.53.29-1.71-.16-3.6 0-5.33.1-1.25.39-2.58.6-3.79a27.78 27.78 0 0 0 .43-3.68c0-.91.43-3.06-.35-3.61-1.13-.78-3.52-.19-4.79-.03zm-110 77c-1.25-.19-4.27.17-5.2-.89-1.66-1.9 2.42-5 3.49-6a21.66 21.66 0 0 0 3.23-3.38c.71-1.05.86-2.55 1.94-3.28a6.18 6.18 0 0 1 2.81-.66 31 31 0 0 1 6.19 0 65.78 65.78 0 0 0 8.57 0c-1.94 2.73-3.57 6.44-6 8.65-.13-.12-.34-.18-.44-.27-1.44 2.28-3.32 5.78-5.52 7.27a2.65 2.65 0 0 1-2.55.38 11.24 11.24 0 0 1-1.48-.67 15.79 15.79 0 0 0-5.05-1.13zm16.87 41.39c-1.07-.08-2.13-1.1-2.93-1.78a22.83 22.83 0 0 1-4.15-3.84 31.26 31.26 0 0 0-4.55-5c-1.82-1.62-2.69-3-1.95-5.5a3.72 3.72 0 0 1 .21-.5c.39-.82 1.65-3.53 2.69-3.56.86 0 2.47 2.71 3 3.46.73 1.08 1.07 2.32 2.06 3.06a20.8 20.8 0 0 1 3.92 4 34.5 34.5 0 0 0 4.12 4c1 .9 2.47 1.41 3.32 2.37-.97 1.36-4.07 3.41-5.74 3.29zm38.11-.81a4.9 4.9 0 0 1-.48.85c-.73 1-1.34 1-2.35 1.62a13.27 13.27 0 0 0-2.8 2.59c-1.23 1.35-2.76 4.31-4.85 4.24a4.94 4.94 0 0 0 .22-.6 1.57 1.57 0 0 0-1.41.74c-.17-1-1-1.82-1.2-2.88s.06-2.26-.14-3.35c-.62-3.39-3.41-7.32 0-10.15 2-1.64 3.93-3.35 6-4.9 1.5-1.13 2.38-2.91 3.8-4.18.53-.47 2.74-2.64 3.47-2.35s.28 4 .28 4.76v8.1c.01 1.88.2 3.84-.54 5.51zM148 12.5c-.51 3.67-.85 7.37-2.15 11-1.23 3.38-1.48 7-2.86 10.3a19 19 0 0 0-.85 3.09 24.28 24.28 0 0 1-2.22 5.29c-1.74 3.27-3.08 6.92-5.24 9.9-1.81 2.49-3.39 5.57-5.65 7.61-1.85 1.67-3.86 3.36-5.61 5.15-1.3 1.33-2.24 3-3.64 4.16s-2.61 2.18-3.86 3.35c-1 1-2.26 1.74-3.27 2.68-1.21 1.12-2.15 2.65-3.42 3.76-1.77 1.56-3.59 3-5.31 4.58-2.09 2-4.19 4.33-6.4 6.05-6.29 4.9-12.58 9.75-18.72 15a33.84 33.84 0 0 0-4.15 4.07c-1.44 1.73-2.55 3.5-5 2.59a32.24 32.24 0 0 1-5.27-2.69c-2.79-1.71-5.29-4.76-7.46-7.25-1.49-1.7-2.69-3.74-4.12-5.53-.82-1-2-1.64-2.77-2.72-1.13-1.63-.68-3.65.17-5.29.56-1.07 2.33-4 3.45-4.13-.41.07.83-2.93.94-3.09A28.63 28.63 0 0 1 57 77.35c1.27-1.44 2.26-3.14 3.55-4.53 1.55-1.66 3.24-3 4.46-5 1.12-1.8 2.16-3.52 3.42-5.19a78.55 78.55 0 0 1 10.25-10.88c1.26-1.13 1.57-2.53 2.54-4a18.65 18.65 0 0 1 2.07-2.46 40 40 0 0 0 4.07-4.68 49.06 49.06 0 0 1 4.2-5.61c1.24-1.43 2.91-2.71 4-4.16a34.87 34.87 0 0 1 10.82-9.58c3.73-2.18 7.13-4.84 10.94-6.85 3.35-1.77 7-2.17 10.55-3 .66-.15 1.32-.31 2-.49 4.23-1.19 7.82-3.62 12.34-3.71 2.06 0 4.22-.66 6.19-.62-.61.04-.4 5.34-.4 5.91zM33.71 127.65a2.16 2.16 0 0 1-.33 2.65 31.05 31.05 0 0 1-3.38 3.64c-2 1.71-4 3.28-6 4.89a3.55 3.55 0 0 1-3.56.22 3.07 3.07 0 0 1-.46-4.06 10.37 10.37 0 0 1 1.57-1.71c2.37-2.26 5-4.24 7.14-6.73a3.3 3.3 0 0 1 2.34-.9c1.37-.14 1.97.91 2.68 2zM20.2 124.3c-1.27 1.07-2.63 2-3.93 3.07-1.73 1.39-3.06 1.15-4.64.23a1.43 1.43 0 0 1-.46-2.29c.14-.2.43-.39.41-.57-.09-1.24.78-1.61 1.57-2.1a5.12 5.12 0 0 0 1-.84c.57-.6 1.07-1.28 1.66-1.86 1.45-1.4 2.91-2.8 4.42-4.13a2.8 2.8 0 0 1 .68-.42 55.71 55.71 0 0 0 5.22-5 3.3 3.3 0 0 1 2.34-.9c1.46-.13 2.11.92 2.76 2a2.16 2.16 0 0 1-.33 2.65 31.06 31.06 0 0 1-3.42 3.64c-.9.79-1.82 1.54-2.75 2.28a3.73 3.73 0 0 1-.39.47c-1.34 1.34-2.72 2.57-4.14 3.77zm29.91 6.38a2.75 2.75 0 0 1-.16 3 5.28 5.28 0 0 1-.55.7c-1.52 1.48-3.07 2.91-4.56 4.42-1.24 1.26-2.71 1.11-4.18.84-.76-.14-.92-.78-1.09-1.76a2.78 2.78 0 0 1 .49-2.06 13.09 13.09 0 0 1 2.72-3.49c.82-.68 1.42-1.65 2.19-2.4a7.29 7.29 0 0 1 1.35-.91c1.83-.12 3.08.15 3.79 1.66zm-19.93 16c.77 1.52.8 1.76-.46 3a57.83 57.83 0 0 1-5 4.5 2.86 2.86 0 0 1-3 .59 6 6 0 0 0-1.37-.18c-.76-.14-1-.71-1-1.4a4.77 4.77 0 0 1 1.57-3.49c1.5-1.26 2.95-2.58 4.4-3.91a3.07 3.07 0 0 1 4.86.89zm-20.35-2.55c1.39 1.47 1.4 1.86.21 3.56A7 7 0 0 1 7.58 150a5.54 5.54 0 0 0-1.48.93C5 152 3.64 152.13 2 152.17S-.46 151 .33 149a8.91 8.91 0 0 1 4.2-4.58c.42-.24.82-.52 1.22-.8a2.57 2.57 0 0 1 3.73.21c.12.11.24.17.35.3z"/></svg>
