<svg xmlns="http://www.w3.org/2000/svg" viewBox="0 0 155 130.09"><path d="M153.57 117.39a3.15 3.15 0 0 0-2.09-1.28c-4-.61-6.85 1.49-8.93 3-2.55 1.87-3.08 2.26-5.15.56-2.82-2.32-2.55-11-.2-14.47l.17-.23c.89-.87 1.84-1.73 2.82-2.62s1.79-1.62 2.67-2.47c3.82-3.1 8.14-7 7.49-13.45a21.47 21.47 0 0 0-.65-3.52c-1.07-6.26-4.35-11-9.56-13.88-10.08-5.48-25.9-2.64-36.32 2.32a16.71 16.71 0 0 0-2.89 1.83c-1.14.6-2.23 1.22-3.25 1.85.65-1.49 1.24-3 1.77-4.53 6.7-19.64 2.7-41.81-13.23-57-17.12-16.37-45-18-64.84-3.84a4.41 4.41 0 0 1-.75.37l-.58.26-.23.11-8.06 7.74-.1.15-1.35 2c-1 1.44-2 2.94-2.92 4.47A52 52 0 0 0 .08 54.42a48.73 48.73 0 0 0 10.59 28q1.18 1.44 2.42 2.78c14.45 15.6 35.26 21.13 55.13 14.43 1.25-.42 2.5-.83 3.76-1.24 2.24-.73 4.34-1.45 6.32-2.27a51.67 51.67 0 0 0 15.34-7.45 51.72 51.72 0 0 0 5.59-5.13 61.3 61.3 0 0 1 5.62-5.25c4.13-2.06 8.72-3.66 12.28-3.66 11.61 0 23 .77 26.2 9.12.07.36.14.72.19 1.1.58 4.64-2.27 7.88-6 11.31a34.47 34.47 0 0 0-4.26 3.91 39.49 39.49 0 0 0-2.86 3c-3.52 4.17-5.17 8.82-4.65 13.11.68 5.53 5.08 10.54 11.21 12.78a18.6 18.6 0 0 0 6.36 1.17 14.57 14.57 0 0 0 8.73-2.78 3.11 3.11 0 0 0 1.5-1.06 7.63 7.63 0 0 0 .02-8.9zM89.34 71.96l-2.17 3.58c-6-2.68-22-14.85-29.18-22.58l-.33-.42c1.34-.45 2.62-.86 3.87-1.17a1.3 1.3 0 0 1 .59.1c7.28 7.49 15.95 14 27.22 20.49zM71.21 48.8a32.87 32.87 0 0 1 3.8-.72 3.33 3.33 0 0 1 1.36.77c4.39 3.48 8.74 7 13.36 10.72l3.49 2.81-.58 1.92a102.31 102.31 0 0 1-21.43-15.5zm10.33 33.13a5.81 5.81 0 0 1-1.49 1.61 10.36 10.36 0 0 1-2.92-1.3 125.24 125.24 0 0 1-30.51-23.36c-.44-.46-.87-1-1.34-1.5a32.86 32.86 0 0 1 3.52-1.44 1.44 1.44 0 0 1 .68.18 168.5 168.5 0 0 0 32.06 25.81zm13.11-28.86l-8.83-6.67 8.65-.59zM56.44 8.54a108.82 108.82 0 0 0-38.12 15 43.7 43.7 0 0 1 38.12-15zM11.26 39.09C27.44 24.9 46.65 16.96 70 14.81a10.06 10.06 0 0 1 7.15 1.73C50.66 19.05 28.37 27.41 9.24 42.02a6.55 6.55 0 0 1 2.02-2.93zm-.5 12.26c19.87-16.68 43.72-25.53 72.91-27 1.85-.1 2.4.68 3.56 2.6a141.85 141.85 0 0 0-41.64 8.4 136.46 136.46 0 0 0-37.13 21c-.7-2.48-.15-2.95 2.3-4.99zm.65 16.19a4.71 4.71 0 0 1-.76-2c.1-.48 1.35-1.48 2.94-2.75h.05c21.28-17 46.22-26.28 74.14-27.6 1.76-.08 3.57-.17 4 .18a6.44 6.44 0 0 1 .75 2.37 143.5 143.5 0 0 0-42.79 9 168.36 168.36 0 0 0-38.33 20.8zm16.72 19.79c-5.66-3.65-10.32-8.26-12.72-12.54l2.11-1.56a120.45 120.45 0 0 0 20.71 19 42.7 42.7 0 0 1-10.1-4.9zm27.54 5.65a94.74 94.74 0 0 1-31.22-24.44l2.63-1.7a120.77 120.77 0 0 0 31.6 26.7 5.54 5.54 0 0 1-3-.57zm11.06-4.33a107.58 107.58 0 0 1-32.44-26c1.35-.87 2.38-1.48 2.82-1.43s1.69 1.32 3.13 2.81A135.36 135.36 0 0 0 72 88.74l.32.19c-2.03 1.55-2.59 1.26-5.58-.28z" fill="currentColor"/></svg>
