<svg xmlns="http://www.w3.org/2000/svg" viewBox="0 0 105 122"><path fill="currentColor" d="M31.68 67.63a22.39 22.39 0 0 1-15.86-6.51c-2-1.93-6.66-7.1-8.1-13.46-1.79-7.92.61-14 3.2-18.95.08-.17.17-.33.26-.49C16.7 18.37 29.81 14.36 41 19.1 51 23.3 56.32 31 56.9 42c.53 9.85-5.31 19-14.9 23.34a25.14 25.14 0 0 1-10.32 2.29zm-14.47-36l-.18.33c-2.92 5.55-3.64 9.53-2.58 14.22.71 3.13 3.09 7 6.21 10.06 5.76 5.66 13.34 5.18 18.53 2.85 7-3.13 11.2-9.7 10.82-16.73-.44-8.36-4.15-13.73-11.67-16.9-8-3.39-17.31-.7-21.13 6.13zM36.35 121.72c-1.47 0-2.94-.07-4.41-.19h-.5c-5.88-.5-12-1-17.77-2.64-6.85-1.89-11.13-4.66-12.73-8.1-1.44-3.11-.68-6.12-.07-8.54.18-.73.36-1.42.45-2 .3-2 .68-4 1.05-6 .31-1.67.62-3.34.88-5a39.36 39.36 0 0 1 3.8-11.74c5.53-10.66 14.46-9.11 21.64-7.86a36.61 36.61 0 0 0 9.72.82l1-.1c8.27-.85 15.41-1.59 20.32 10 3 7.18 5.55 19.55 4.51 27.81a10.62 10.62 0 0 1-1.77 4.66c-3.26 4.81-10 6.68-16.07 7.88a52.75 52.75 0 0 1-10.05 1zM20.79 75.63c-3.42 0-5.61 1.21-7.61 5.06a31.74 31.74 0 0 0-3.11 9.66c-.27 1.68-.59 3.4-.92 5.13-.35 1.92-.72 3.91-1 5.79a26.76 26.76 0 0 1-.58 2.67c-.41 1.64-.77 3-.35 4 .51 1.1 3.33 2.93 8.31 4.32 5.19 1.44 10.94 1.93 16.5 2.4h.5A45 45 0 0 0 45 114c2.87-.56 9.58-1.87 11.69-5a3.71 3.71 0 0 0 .63-1.65c.85-6.8-1.39-18-4-24.26-2.92-6.92-5.31-6.67-13.25-5.85l-1 .1a42.66 42.66 0 0 1-11.6-.89 41.93 41.93 0 0 0-6.68-.82zm38.8 35.31zM87.28 9.41a1.67 1.67 0 0 1-.5-.5c-.78-1.1-1.31-2.31-2.16-3.36C84.46 5.34 81.79 2 81.89 2a34.34 34.34 0 0 1 5.68-.93 22.44 22.44 0 0 1 6.8.73c3.4 1 5.57 3 7.92 5.46a10.05 10.05 0 0 1 1.71 3.07 7.07 7.07 0 0 1 .46 5.61 13.82 13.82 0 0 1-5.46 6.7 21.9 21.9 0 0 1-8.58 2.71c-3.48.28-6.86-.18-10.33-.22a33.94 33.94 0 0 1-4.68-.72C73 24 71.9 22.73 70.23 21.17a8.22 8.22 0 0 1-2.84-5.06c-.42-2.92 2.55-5 5-2.67a27.82 27.82 0 0 1 2.06 2.82 6.63 6.63 0 0 0 2.87 2c1.75.78 3.58.47 5.47.55 2.14.09 4.28.1 6.42.13a29.51 29.51 0 0 0 4.7-.39 4.69 4.69 0 0 0 2.88-2c1.49-1.72.74-4.23-.94-5.65s-4.27-1.6-6.56-1.56c-.95.02-1.49.35-2.01.07z"/><path fill="currentColor" d="M63.31 17.78c.34.13.4.37.69.91a20.93 20.93 0 0 0 1.69 3.13c.33.43 1.07 1.21 1.13 1.77a74 74 0 0 1-9.77-1.1c-1.2-.45-2.41-1-3.58-1.56a11.29 11.29 0 0 1-4.88-4.37c-.87-1.47-1.42-2.27-1.41-4a11.47 11.47 0 0 1 .68-4.26 12 12 0 0 1 5.55-6.4C58-.34 63.73.34 68.63.54c.8 0 1.59.15 2.39.26a18.44 18.44 0 0 1 3.83.69c2.6 1 4.17 2.42 6.17 4.22 1.62 1.48 4.52 5.53 2.47 7.64-1.47 1.52-4.9 1.53-6.61.34-1-.73-1.4-2-2-3a8.8 8.8 0 0 0-2.17-2.5c-1.85-1.4-3.4-1.23-5.56-1.62A30.06 30.06 0 0 0 61.44 6c-3.21.07-6.58.88-7.59 4.32a5 5 0 0 0 .31 3.85 9.69 9.69 0 0 0 6.18 3.35c.86.16 1.91 0 2.69.19a1.58 1.58 0 0 1 .28.07z"/></svg>
