<svg xmlns="http://www.w3.org/2000/svg" viewBox="0 0 133 51"><path fill="currentColor" d="M131.11 18.82c-.2-.42-.39-.85-.58-1.27a17.38 17.38 0 0 0-3-5.08c-5.22-5.29-8.6-6.91-16.11-9.08-5-1.45-10.55-1.49-15.28-1.34-2.64.09-9.27 1.75-12.83 2.64L82.15 5a12.08 12.08 0 0 0 .8 1.9 5.46 5.46 0 0 0 .56 1 14.2 14.2 0 0 1 .87 1.32c.37.62.5.83.52 1.16v.15h.14a17.48 17.48 0 0 1 2.85-.37c.89 0 2.14-.13 3.62-.25 7.23-.58 19.33-1.55 24 2.35l.87.7c3.11 2.52 8.31 6.74 9 12.34.38 3.25-1.69 7.48-3.77 10-2.23 2.72-7.62 5.55-12 6.29a42.12 42.12 0 0 0-4.26 1.11c-3 .88-6.47 1.89-9.32 1.9h-3.21c-4 0-8.19 0-12.36-.05-1.13 0-2.33 0-3.38.05-3.61.1-7.32.22-11.18-1.45-3-1.29-5.06-3.11-7.59-6.7a14.58 14.58 0 0 1-2.06-4.83 28.68 28.68 0 0 1-.39-3c-.13-1.25 2.1-8.79 1.73-9.2a4.33 4.33 0 0 0-2.7-1.41 2.36 2.36 0 0 0-1.2.29c-1.15.61-4.56 7.67-4.2 9.94v.18c.62 3.9 1.78 11.17 5.15 14.25l1.35 1.25c3.2 3 5.31 5 9.32 5.5 1.34.18 2.66.43 3.94.67a35.58 35.58 0 0 0 6.84.87c3.13 0 6.21.1 9.19.21A109.16 109.16 0 0 0 100.7 51a48.88 48.88 0 0 0 18.91-6.43 32 32 0 0 0 12.78-15.1c1.51-3.63-.16-8.22-1.28-10.64"/><path fill="currentColor" d="M46.72 46.23v-.06c-.38-.69-.75-1.36-1.13-2l-.32-.54H43.2c-1.12.07-13.4 0-14.76-.1-7.57-.85-13.71-3.78-17.75-8.49-3.11-3.62-2.82-9.64-2.17-12.62 1.88-8.63 8.9-13.56 20.83-14.6 3.64-.32 13-.76 18.73-.1 1.13.13 2.22.2 3.27.27 3.78.23 7.59.46 12 3.39A17.94 17.94 0 0 1 68.2 17l.65 1c.52.8 1 1.62 1.4 2.35.93 1.66 1.66 3 2.75 3.63 2.46 1.5 5.84 2.2 8-.37a2.58 2.58 0 0 0 .53-2.07c-.31-3.17-3.61-7.68-6.55-10.31l-.6-.51-.29-.23c-4.67-3.77-8.36-6.74-13.95-8.44a27.73 27.73 0 0 0-6.25-.8c-.84 0-1.58-.08-2.3-.14h-.54c-1.7-.13-3.3-.25-4.87-.22S43 .91 41.34.93L38.22 1c-9.22.14-19.13.71-26.66 5.1C6.83 8.86 2.85 14.24.91 20.49a24.75 24.75 0 0 0-.82 9.15c.17 2.86 1 4 2.91 6.91l.48.71a23.4 23.4 0 0 0 10.73 8.53c2.37 1 5.47 2.19 8.53 3.13 1.23.26 18.23.85 27.2 1.13a18.63 18.63 0 0 1-3.22-3.82"/></svg>
