<svg data-name="CLUB HOUSE" xmlns="http://www.w3.org/2000/svg" viewBox="0 0 118.99 138.56"><path fill="currentColor" d="M92.99 107.69c.17 5.27.34 10.73.05 16.17a3 3 0 0 1-2.84 2.83c-1.93.1-3.86.14-5.8.14-5 0-10.05-.27-15-.54l-3.92-.21a3 3 0 0 1-2.84-2.84c-.3-5.8-.22-11.72-.13-17.44 0-2.7.08-5.4.08-8.08a3 3 0 0 1 3-3c2.43 0 5.1-.26 7.92-.54 5.79-.57 11.78-1.15 17.07.34a3 3 0 0 1 2.18 2.89v.61c.06 3.23.17 6.5.23 9.67zm-27.49-19c2.51.12 5.05.16 7.58.16 2.21 0 4.4 0 6.56-.06 1.9 0 3.79 0 5.66-.06a14.86 14.86 0 0 0 3.84-.62l.77-.2a3 3 0 0 0 2.28-3.19c-.43-4.75-.42-9.55-.4-14.64v-2.3a47.47 47.47 0 0 0-.55-7.55 3 3 0 0 0-2.44-2.45 25.86 25.86 0 0 0-7.34.25 32.13 32.13 0 0 1-4.07.37c-1.85 0-3.61-.14-5.47-.28s-3.72-.34-5.7-.34a3 3 0 0 0-2.12.88l-.57.57a3 3 0 0 0-.88 2.12c0 2.57 0 5.16-.08 7.75-.08 5.48-.17 11.15.12 16.72a3 3 0 0 0 2.85 2.84zm-10.85-6.91v-.81a44.43 44.43 0 0 0-.31-5.31 24.48 24.48 0 0 1 0-5c.07-1.11.15-2.26.15-3.48 0-.74 0-1.49.07-2.23.05-1.19.11-2.42 0-3.7a3 3 0 0 0-2.83-2.85c-2.58-.14-5.21-.22-7.75-.3l-4.29-.14a29.55 29.55 0 0 0-5.95.51 27.2 27.2 0 0 1-4.26.45 3 3 0 0 0-3 3c0 3.55.21 7.1.42 10.54.07 1.17.14 2.33.2 3.5a19.19 19.19 0 0 1-.11 2.15c-.36 3.14-.77 6.7 1.34 8.87 1.19 1.22 3 1.58 5.29 1.58 1.18 0 2.48-.1 3.88-.22.56 0 1-.1 1.34-.1 1.83 0 3.65-.11 5.47-.18s3.75-.15 5.62-.19a5.15 5.15 0 0 0 3.84-1.39 4.71 4.71 0 0 0 1-3.83 3.58 3.58 0 0 1-.12-.87zm62.1-30.56a40.36 40.36 0 0 1-7.62 0c0 1-.09 2-.14 2.94-.15 3.17-.3 6.45-.4 9.66-.06 2-.22 4-.37 6-.32 4.06-.65 8.26-.1 11.93a82.92 82.92 0 0 1 .7 12.44c0 2.65.11 5.36.21 8 .16 4.06.33 8.25.12 12.5-.05 1-.12 2-.2 3a54.68 54.68 0 0 0-.21 6.62c.06 1.17.16 2.35.26 3.52a54.67 54.67 0 0 1 .29 7.48 3 3 0 0 1-2.78 2.84c-4.68.34-9.36.51-13.94.51a167.16 167.16 0 0 1-16.73-.8 45.89 45.89 0 0 0-8 .13 60.08 60.08 0 0 1-7.34.23c-10.68-.52-22.12-.76-37.08-.79-1.11 0-2.27 0-3.49.09a50.19 50.19 0 0 1-6.85 0 3 3 0 0 1-2.71-2.8 67.91 67.91 0 0 1 0-6.87c.05-1.38.1-2.68.1-4 0-12.8-.08-25.79-.17-38.34-.07-11.1-.14-22.53-.16-33.87-2.93.32-6 .73-8.62-.93-3.78-2.43.34-9.72 1.7-13.07 1.88-4.66 4.3-9.26 6.43-13.68 2.39-4.95 7.56-4.22 12.14-3.87q7.23.54 14.49.8a25 25 0 0 1 4.95-13.22 18 18 0 0 1 7.35-5.45c5.78-2.37 12.94-3 18.93-1 7.62 2.46 13.86 11.56 14.63 19.24 6.56-.16 13.13-.29 19.7-.29 2.65 0 6.45-.11 8.17 2.34 1.91 2.72 1.84 6.65 3 9.73 1.4 3.82 2.64 7.73 4.37 11.41.97 2.13 3.38 7.01-.63 7.52zM49.2 38.37c6.63 5.47 14.95 3.75 20.64-1.24 5.13-4.5 8.13-11.67 5.8-18.6a19.92 19.92 0 0 0-6-9.36c-2.67-2.32-6-2.46-9.59-2.49-3 0-7.32.23-9.93 1.65-4.24 2.31-5 6-6.57 10.06-2.93 7.54-.86 14.6 5.65 19.98zm-.34 61.9c-4-.09-11.9-.15-15.92-.1v.61c0 1.57 0 3.19-.15 4.82a68 68 0 0 0 0 9.05c.08 1.86.17 3.78.17 5.7 0 2.5-.09 5-.17 7.45 0 1.16-.08 2.34-.11 3.53 5.6.05 10.71.14 15.52.27 0-1.35.07-2.79.14-4.26v-.53c.15-2.78.3-5.66.3-8.42v-2.79c.14-3.09.29-11.3.22-15.33zm54.46 32c-.05-1.3-.16-2.63-.28-4-.1-1.21-.21-2.47-.27-3.73a59.88 59.88 0 0 1 .22-7.34c.07-1 .14-1.93.19-2.9.2-4 0-8-.12-12-.11-2.68-.22-5.45-.22-8.23a77.8 77.8 0 0 0-.63-11.55c-.65-4.34-.3-8.89 0-13.29.16-2 .3-3.86.36-5.68.1-3.27.25-6.57.4-9.77 0-1 .09-1.93.13-2.89h-.66c-2.43.12-4.78.46-7.2.45l-49.59-.13c-9.77 0-19.71-.56-29.51-.12 0 11.46.09 23 .16 34.25.08 12.57.17 25.56.17 38.38 0 1.4-.05 2.82-.11 4.2s-.09 2.41-.1 3.57c1.1 0 2.23 0 3.39-.1s2.47-.11 3.74-.1h3.32c0-1.24.07-2.48.11-3.69.08-2.38.17-4.85.17-7.25 0-1.79-.08-3.64-.16-5.43a73.47 73.47 0 0 1 0-9.86c.16-1.28.16-2.74.16-4.28 0-1.17 0-2.39.06-3.62l.06-1.29 1-.84c1-.84 1.11-.93 12.17-.87 3.44 0 10.29.1 11.63.24 2.73.29 2.82 3 2.88 4.93 0 1.19.05 2.88 0 5 0 3.87-.1 8.36-.15 11.33v2.68c0 2.93-.16 5.88-.31 8.74v.53c-.08 1.42-.12 2.83-.14 4.14 2.25.08 4.45.18 6.62.28a53.87 53.87 0 0 0 6.61-.22 51 51 0 0 1 9.06-.11 172.63 172.63 0 0 0 26.83.55z"/></svg>
