<svg data-name="DRIVERS LICENCE" xmlns="http://www.w3.org/2000/svg" viewBox="0 0 119.48 121.02"><path fill="currentColor" d="M94.99 10.71C82.08.39 64.82-1.68 48.99 1.16c-15.24 2.73-33.27 9.39-40.68 24-10.87 21.48-12.34 51 3.6 70.35 17.33 21.18 52.75 34.35 77.76 18.5 7.86-5 13.05-12.58 18-20.25 7.12-11 12.31-23.41 11.73-36.7-.75-17.78-10.6-35.31-24.41-46.35zM15.29 31.8l1.86-2.19C23.24 22.52 30 15.55 38.09 11.52c11.89-5.94 25-5.32 37.61-2.85 8.92 1.76 15.9 7.41 21.11 14.66 3.6 5 14.27 15.83 7.53 21.86-4.37 3.91-12.86 2.91-18.27 3.17a11.12 11.12 0 0 1-6.67-1.35c-5.47-3.14-10.51-6.65-17-7.31-6.79-.69-11.3 3.01-16.68 6.31-6.9 4.23-12.23 1.3-19.74.32-4.23-.55-8.07-.87-12.08-2.6-1.75-.75-4.16-1.31-4.48-3.41-.44-2.96 4.18-6.51 5.87-8.52zm38.76 77.49a4.94 4.94 0 0 1-.88.53c-2.78 1.33-10.41-1.38-13-2.66-9.22-4.61-16.79-11-21.8-20.1-3.82-7-7.93-14.77-10.5-22.29a15.46 15.46 0 0 1-.7-9.36c1.43-6.65 13-.93 17.17 0 9.06 2.07 13.17 3.73 16.78 12.71 1.7 4.23 3.44 6.77 7 9.41 2.64 2 6.42 2.72 7.95 6 2 4.16 1.95 22.72-2.02 25.76zm-4.32-38.64c-3.1-3.78-4.2-12.14-1.49-16.44 3.61-5.67 18.84-7.21 22.39-.66 1.76 3.25 3.08 9.91 1.73 13.44s-5.73 7.43-9.8 7.85-10.37-1.2-12.83-4.19zm56.66 6.08c-4 8.35-10.66 16-17.52 22.14-6.44 5.72-16.12 14.07-25.31 13.25-.72-8-1.82-17.86-.69-25.73 1.07-7.48 9.63-6.51 13.66-12.1 2.71-3.82 1.84-9.68 4.71-13.34a14.45 14.45 0 0 1 9.91-5.43c4.87-.71 9.45-2.11 14.31-3.08 11.57-2.28 2.94 20.09.94 24.29z"/></svg>
