<svg xmlns="http://www.w3.org/2000/svg" viewBox="0 0 101 66"><path fill="currentColor" d="M24.45 65.87H5.16a15.14 15.14 0 0 1-2.38-.16 1.84 1.84 0 0 1-1.47-1.47 15.16 15.16 0 0 1-.17-2.4V47c-1-12.49-1.77-29.9 0-42v-.21a14.24 14.24 0 0 1 .13-1.92v-.13l.1-.38a1.66 1.66 0 0 1 .1-.21 3 3 0 0 1 .18-.27l.07-.08a1.1 1.1 0 0 1 .16-.15L2 1.58l.21-.15.11-.05.25-.1.25-.06a11.27 11.27 0 0 1 1.8-.16C12.88.44 24.84.13 40.24.13s34.37.31 56.57.92H97a13.33 13.33 0 0 1 2.13.16 1.85 1.85 0 0 1 1.46 1.47 12.67 12.67 0 0 1 .16 2.26v47.4l.14 10.17v.26a1.91 1.91 0 0 1-.07.3v.17l-.06.15v.24a4.77 4.77 0 0 1-.09.6 1.83 1.83 0 0 1-1.46 1.47 13.82 13.82 0 0 1-2.27.16H24.45zm-18.17-5.2l1.84-.05c20.24-.49 38.29-.74 53.64-.74 17.43 0 27.69.32 33.22.59l2.09.1-.18-2.09C95.33 40.54 95 23.88 95 13.06V9.32l-5.19 4.07c-.67.53-1.23 1-1.78 1.41L53.81 42.9a14.51 14.51 0 0 1-1.93 1.41 1.8 1.8 0 0 1-.91.25h-.53l-.3.06a4.56 4.56 0 0 1-1 .11h-.5c-3.78-.38-7.51-5-12.23-10.77L35 32.14l-7.15-5.88L5.54 8.61zm8.38-51.12c5.58 3.92 13.16 9.51 17.54 13.88 1.74 1.73 3.44 3.73 4.72 5.27l.12.15L50.9 39.8l1.15-1.19 1.76-1.85c5.84-6.15 18-19 32.76-27.1l-.88-3.42H9.93z"/></svg>
