<svg xmlns="http://www.w3.org/2000/svg" viewBox="0 0 155 56.78"><path d="M147.24 15.89a33.27 33.27 0 0 0-15.08-11.21c-4.27-1.43-8.65-3.41-13.18-4.22-8.48-1.51-16.62 1.29-23.67 6.06-6.6 4.37-12.31 10.74-17.06 17.93a6.4 6.4 0 0 0 .11 7.81c.69.91 1.4 1.79 2.09 2.69 1.72 2.23 3 4.7 5 6.71 2.26 2.3 5 3.89 7.42 5.91s4.4 4.35 7 6c3 1.89 6.63 2 9.94 2.82 4 1 8.38 0 12.55-.54a22.68 22.68 0 0 0 6.92-2 57.89 57.89 0 0 0 23.54-20.51c1.22-1.8 2.18-3.21 2.12-5.2-.08-4.9-5.37-8.95-7.7-12.25zM117 20.27c-.43 2.3-1.27 4.39-1.42 6.8a29.14 29.14 0 0 0 .75 7.27 32.07 32.07 0 0 0 1.54 6.4c.43 1.07 2 3.09 1.6 4.36s-1.42.85-2.49.9a51.81 51.81 0 0 1-5.64.21 23 23 0 0 1-9.5-2.32C95.75 40.69 90.8 39.05 86 33.6c-5.66-6.46.85-12.9 5.91-16.64A39.26 39.26 0 0 1 104 10.89a27.83 27.83 0 0 1 16-.15c-.94-.27-2.84 8.92-3 9.53zM64.16 15.6a77.17 77.17 0 0 0-7.85-8 26 26 0 0 0-12.15-5.71c-4.92-1-9.48-2-14.43-.35-7.19 2.35-13.41 7.11-19.27 11.95C5.72 17.41-1.39 25.41.24 32.78a10.42 10.42 0 0 0 2.14 4.34c2.22 2.77 5.16 4.31 7.62 6.67a47.86 47.86 0 0 0 9.62 7.2 34.18 34.18 0 0 0 21.51 4.36c2.44-.34 4.7-2 7.13-2.77 3.34-1 5.54-1.59 8.58-3.87a45.18 45.18 0 0 0 8.22-7.31c1.68-2 3.68-3.66 5-6.11 1-1.83 2.78-4.39 2.71-6.68-.11-3.72-2.92-6-4.77-8.4-1.22-1.54-2.53-3.07-3.84-4.61zM41.45 32.16a53.2 53.2 0 0 0 1.23 7.19c.32 1.16 2.07 4.4 1.32 5.54-.59 1-3.79.83-4.76.93l-1.24.16a37.22 37.22 0 0 1-20.75-7.27C13.7 36.1 5.8 31.36 7.45 25.98 9.8 18.22 22.17 11.95 29.07 9.89A27.86 27.86 0 0 1 45 9.72a79.46 79.46 0 0 0-2.34 7.8 39.72 39.72 0 0 0-1.21 14.64z" fill="currentColor"/></svg>
