<svg  xmlns="http://www.w3.org/2000/svg" viewBox="0 0 101 66">

    <path fill="currentColor"
          d="M61.76,59.43c17.43,0,27.69.31,33.22.58l2.09.1L96.89,58C95.33,40.09,95,23.43,95,12.61V8.86l-5.19,4.08L88,14.34,53.81,42.45a14.51,14.51,0,0,1-1.93,1.41,1.8,1.8,0,0,1-.91.25l-.22,0-.31,0-.3.07a4.56,4.56,0,0,1-1,.11l-.5,0c-3.78-.38-7.51-5-12.23-10.78L35,31.69l-7.15-5.88L5.54,8.16l.74,52.06,1.84,0C28.36,59.68,46.41,59.43,61.76,59.43Z"/>
    <path fill="currentColor"
          d="M14.66,9.1C20.24,13,27.82,18.61,32.2,23c1.74,1.73,3.44,3.72,4.72,5.27l.12.14,13.86,11,1.15-1.19c.54-.55,1.13-1.18,1.76-1.84,5.84-6.15,18-19,32.76-27.11l-.88-3.42H9.93Z"/>
</svg>
