<svg xmlns="http://www.w3.org/2000/svg" viewBox="0 0 117 105"><path fill="currentColor" d="M101.68 81.89a3.45 3.45 0 0 1-.65-6.84c1.9-.37 7-1.36 8.39-3.45a2 2 0 0 0 .34-.9c.64-5-1-13.43-3-18.08-1.52-3.6-5.21-5.77-10.27-7.92a3.39 3.39 0 0 1-.53-.29 14.76 14.76 0 0 0-1.57-.55c-1.94-.62-4.14-1.31-5.25-3.23a4.64 4.64 0 0 1-.35-4.21c1.11-2.69 4.24-3.53 7-4.27.59-.16 1.47-.4 1.74-.52a12.55 12.55 0 0 0 6.61-11.38c-.32-6.08-2.91-9.83-8.4-12.15a13.23 13.23 0 0 0-7.86-.74A3.45 3.45 0 0 1 86.44.61a20.25 20.25 0 0 1 12 1.13c7.91 3.34 12.15 9.45 12.62 18.15a19.52 19.52 0 0 1-10.2 17.79 8.36 8.36 0 0 1-1.6.67l.17.09c5.64 2.42 11.16 5.5 13.7 11.49 2.35 5.58 4.3 15.2 3.49 21.63a8.93 8.93 0 0 1-1.48 3.92c-2.66 3.91-7.95 5.41-12.78 6.35a3.88 3.88 0 0 1-.68.06zM18.89 81.89a3.23 3.23 0 0 1-.69-.07l-6.83-1.39-.24-.06c-5.46-1.52-8.9-3.74-10.22-6.6-1.22-2.63-.58-5.19-.11-7 .13-.54.26-1 .32-1.47.24-1.53.53-3.1.81-4.62.24-1.26.47-2.52.67-3.76a30.67 30.67 0 0 1 3-9.2l.4-.79c1.28-2.51 2.87-5.63 6-7.45A13.35 13.35 0 0 1 16.22 38a18.2 18.2 0 0 1-3.8-2.86c-1.54-1.52-5.25-5.6-6.4-10.66-1.43-6.31.47-11.13 2.51-15l.21-.4C13.15 1.18 23.6-2 32.53 1.74a3.45 3.45 0 0 1-2.68 6.36c-5.74-2.42-12.37-.53-15.08 4.32l-.13.23c-2.12 4-2.65 6.93-1.89 10.29a16.43 16.43 0 0 0 4.52 7.27A11.1 11.1 0 0 0 22.19 33c.31.08.71.14 1.14.21 1.47.23 3.7.59 5.08 2.53a6 6 0 0 1 .85 4.69 3.46 3.46 0 0 1-2.64 2.76l-1.26.29c-1.1.26-2.23.52-3.42.74h-.21l-1.55.16a12 12 0 0 0-4.74 1c-1.4.79-2.33 2.63-3.32 4.59l-.41.79A23.42 23.42 0 0 0 9.42 58c-.21 1.29-.46 2.61-.7 3.93s-.56 3-.77 4.39c-.12.75-.29 1.44-.46 2.11a5.53 5.53 0 0 0-.32 2.47c.22.46 1.91 1.75 5.7 2.82l6.71 1.37a3.45 3.45 0 0 1-.69 6.83zM58.26 50.75a22.4 22.4 0 0 1-15.86-6.52c-1.95-1.92-6.65-7.09-8.09-13.45-1.8-7.92.6-14 3.19-19 .09-.17.17-.33.27-.49C43.28 1.48 56.39-2.52 67.6 2.22c10 4.2 15.3 11.89 15.89 22.85C84 35 78.18 44.15 68.61 48.46a25.14 25.14 0 0 1-10.35 2.29zm-14.47-36l-.18.32C40.7 20.58 40 24.57 41 29.26c.71 3.13 3.08 7 6.21 10.06C53 45 60.59 44.5 65.77 42.17c7-3.13 11.2-9.7 10.82-16.73-.44-8.33-4.15-13.69-11.67-16.87-8-3.38-17.31-.69-21.13 6.14zM62.93 104.83q-2.2 0-4.41-.18h-.5c-5.88-.5-12-1-17.77-2.64-6.85-1.9-11.13-4.62-12.72-8.06-1.45-3.12-.69-6.12-.08-8.54.18-.73.36-1.42.45-2 .3-2 .68-4 1.05-6 .31-1.67.62-3.34.89-5a39.07 39.07 0 0 1 3.79-11.74c5.53-10.67 14.47-9.15 21.65-7.9a36.5 36.5 0 0 0 9.71.82l1-.1c8.27-.85 15.41-1.59 20.32 10 3 7.18 5.55 19.55 4.51 27.81A10.54 10.54 0 0 1 89 96c-3.26 4.81-10 6.68-16.07 7.88a52.66 52.66 0 0 1-10 .95zM47.37 58.75c-3.42 0-5.61 1.21-7.61 5.06a32 32 0 0 0-3.11 9.66c-.27 1.68-.59 3.4-.91 5.13-.36 1.92-.73 3.91-1 5.79a26 26 0 0 1-.58 2.66c-.41 1.64-.77 3.06-.35 4 .51 1.11 3.33 2.93 8.31 4.32 5.19 1.44 10.94 1.93 16.51 2.4h.49a44.93 44.93 0 0 0 12.52-.68c2.87-.56 9.58-1.87 11.7-5a3.73 3.73 0 0 0 .62-1.64c.86-6.8-1.38-18-4-24.26-2.92-6.92-5.31-6.67-13.25-5.85l-1 .1a42.66 42.66 0 0 1-11.6-.89 41.8 41.8 0 0 0-6.74-.8zm38.8 35.3z"/></svg>
