<svg xmlns="http://www.w3.org/2000/svg" viewBox="0 0 115 92"><path fill="currentColor" d="M58.58 78.53c-10 0-20.66-5.79-25.27-14.55a23.68 23.68 0 0 1 1-23.95 29 29 0 0 1 24.76-13.7 22.1 22.1 0 0 1 15.24 6.33c7 6.78 9.85 17.55 7.34 27.45C79.4 68.94 73.33 75.35 65 77.68a23.78 23.78 0 0 1-6.42.85zm0-44.21a20.94 20.94 0 0 0-17.44 9.91 15.75 15.75 0 0 0-.73 16c3.84 7.3 14.54 11.94 22.45 9.73 7.54-2.11 10.16-8.33 11-11.84 1.83-7.18-.2-14.92-5.16-19.74a14 14 0 0 0-9.81-4.07zM99.51 32.08c2.64 2.57 2 7.78-1.75 8.84a5.79 5.79 0 0 1-6.25-2.7c-1.86-3.53 1.42-7.41 5.11-7.34a4.15 4.15 0 0 1 2.89 1.2z"/><path fill="currentColor" d="M65.7 91.54c-10.58 0-21.25-.22-31.79-.66-1.46-.06-2.93-.08-4.48-.1-8.24-.09-17.58-.19-24.53-7.78a17.08 17.08 0 0 1-2.65-3.67C.33 75.58.39 71.44.44 67.78v-2C.36 55.6 1 45.39 1.53 35.51l.05-1a28.62 28.62 0 0 1 .86-6.28 15 15 0 0 1 5.35-7.94c2.62-2 6-3 10.39-3.32H19a82.67 82.67 0 0 1 8.49-.26l1.4.07a12.32 12.32 0 0 0 4.11-.22 19.74 19.74 0 0 0 .88-4c.08-.51.15-1 .22-1.36.6-3.23 1.8-6.81 6.19-8.78C43.41.87 46.68.78 49.57.71h1.36a144.42 144.42 0 0 1 16.36.01h.2c.4 0 .82 0 1.25.05C71.9.89 76.23 1 79.1 4.35c2.5 2.91 3.12 6.61 3.65 9.88.17 1 .34 2 .54 2.87l.83-.08 2-.2c5.31-.52 11.9-1.18 17.3 1.44a17.7 17.7 0 0 1 8.79 10.62c1.64 4.89 1.64 10.08 1.63 14.65v.7c0 3.66.18 7.38.35 11 .25 5.34.51 10.87.22 16.51v.67c-.21 4.26-.47 9.57-4.37 13.47-5.64 5.64-13.9 5.5-20.55 5.38h-2.34c-3 0-6.16.08-9.17.16-2.63.08-5.34.15-8 .17zM25.78 24.65c-2 0-4.17.14-6.27.27h-.82c-2.78.18-4.78.75-6.11 1.75a7 7 0 0 0-2.44 3.72A22.17 22.17 0 0 0 9.57 35l-.06 1C9 45.72 8.36 55.79 8.45 65.67v2.23c0 2.86-.08 5.82.94 7.84a9.5 9.5 0 0 0 1.42 1.87c4.6 5 11.14 5.09 18.72 5.17 1.54 0 3.14 0 4.72.11 11.83.49 23.83.7 35.67.64 2.61 0 5.27-.09 7.86-.16 3.07-.09 6.28-.17 9.41-.17h2.46c5.4.09 11.52.2 14.75-3 1.72-1.72 1.88-5 2-8.2v-.69a156.21 156.21 0 0 0-.23-15.72c-.17-3.69-.35-7.5-.35-11.35v-.71c0-4.15 0-8.45-1.22-12.09a10 10 0 0 0-4.68-6c-3.37-1.63-8.73-1.11-13-.68L85 25c-2 .2-7.25.75-9-4.46a32 32 0 0 1-1.1-5c-.38-2.33-.78-4.75-1.82-6-.58-.66-3.07-.74-4.56-.79-.5 0-1 0-1.44-.06h-.29a136 136 0 0 0-15.47 0h-1.49c-2.29.07-4.45.12-6 .9l-.17.08c-.79.34-1.22.63-1.64 3-.06.31-.11.67-.17 1.08-.5 3.39-1.26 8.52-5.41 10.14a17.76 17.76 0 0 1-8 .88l-1.25-.06c-.47-.06-.94-.06-1.41-.06z"/></svg>
