<svg xmlns="http://www.w3.org/2000/svg" viewBox="0 0 120.61 89.46"><path fill="currentColor" d="M53.9 64.97c-3.38 3.95-10.09 2.26-10.35-3.07-.19-4.43 2.53-6.29 6.7-6.26 4.83.04 6.82 5.59 3.65 9.33zm17.13-9.82c-1.46-.13-4.07-.23-5.3.65a7 7 0 0 0-2.56 3.18 6 6 0 0 0 2.12 7.3c2.09 1.35 4.69 2 6.87.5a7.26 7.26 0 0 0 2.65-7.19c-.31-1.66-2-4.28-3.78-4.44zm17.56-.5c-.58 0-.92.13-1.5.13l-.12-.12c-5.81.15-6.35 8.32-2.91 11.53a6.85 6.85 0 0 0 7.42.63c2.22-1.38 2.76-4.66 2.27-7.16s-3.22-3.87-5.16-5.01zm30.39 34.14c-3.44 1.27-8.72.36-12.3.19-20.15-1.05-40.43.28-60.65.13-13.42-.1-27.3.65-40.6-.45-2.15-.18-5.42-.79-5.42-3.84 0-4.39 1-8.17 5.5-9.47a16.5 16.5 0 0 1 1.65-.37c.28-.53.56-1 .82-1.52l.47-.85c.53-1 1-2 1.55-3 .87-1.68 1.76-3.42 2.76-5.12a49.4 49.4 0 0 1 14.37-15.42l1.26-.91c4.79-3.49 9.32-6.78 15.18-9a54.63 54.63 0 0 1 16.86-3.23c-.08-2-.17-4.21 1.28-5.54 1.61-1.47 3.77-1.52 5.78-1.62 1.7-.08 3.41.08 5.1 0 1.86-.09 3.91-.75 5.75-.41 2.19.4 4.48.35 6.5 1.31a6.23 6.23 0 0 1 3.15 5l1.83-.09c2.88-.1 5.72 0 8.48.17 1.65.08 3.25.15 4.82.18-.95-2.21-.53-4.83-1.12-7.13-2.67-10.57-13.54-13.63-23.19-13.14-2.6.13-5 1.19-7.49 2-6.08 1.91-14.06 1.4-20.31.74-6.49-.69-17.59-7.48-16-15.48a1.63 1.63 0 0 1 .46-.94 2 2 0 0 1 1.15-.35A160 160 0 0 1 57.23.2c11.33.41 24-1.33 35 1.52 14.1 3.66 25 18.09 25 32.6v.5h.1v3c0 4.19.13 8.54.26 12.75.22 7.32.46 14.88 0 22.26 0 .54-.06 1.11-.09 1.69v.85a3.7 3.7 0 0 1 2.39.77c1.26 1.34.84 12.01-.92 12.66zm-7.49-13.56c0-.35 0-.7.05-1.05 0-.6.06-1.18.09-1.74.42-7.11.19-14.54 0-21.73-.1-3.26-.2-6.61-.25-9.92-1.45 0-2.92 0-4.38.11-3 .14-6 0-9-.15-2.75-.13-5.36-.26-8-.17-3 .1-6 .3-8.93.49s-5.72.37-8.6.48c-1.6.06-3.19.1-4.79.14-7.73.18-15 .35-22 3-5.12 2-9.33 5-13.8 8.29l-1.27.92a43.68 43.68 0 0 0-12.68 13.67c-.92 1.55-1.73 3.14-2.6 4.82-.39.75-.78 1.5-1.18 2.25l2.69.12c8.53.44 17.08.22 25.61.6s17.16.75 25.71.3a282.12 282.12 0 0 1 28.58-.42c4.9.24 9.84-.08 14.75-.01z"/></svg>
