<svg data-name="JOIN NETWORK" xmlns="http://www.w3.org/2000/svg" viewBox="0 0 144.72 149.2"><path d="M61.94 92.93c-3-2.95-5.84-7.07-6.75-11.1-1.33-5.81.03-10.53 2.67-15.66l.21-.39c4.57-8.16 15.33-10.88 24.06-7.2 8.29 3.5 12.52 9.65 13 18.75.96 16.94-20.83 27.77-33.19 15.6zm21.16 9.72c-4.31-1.83-8.6-1.34-13.13-.81-3.16.37-6.58.37-9.42 2-3.15 1.8-4.68 5.32-6.28 8.4a33.55 33.55 0 0 0-3.26 10.1c-.55 3.39-1.31 6.94-1.82 10.34-.4 2.65-1.82 5.5-.62 8.11 1.43 3.09 6.91 5 9.93 5.84 5.35 1.49 11.13 1.95 16.65 2.42a46.15 46.15 0 0 0 12.71-.71c4.21-.82 10.51-2.24 13.11-6.07a6.73 6.73 0 0 0 1.13-3c.88-7-1.3-18.13-4-24.58s-8.95-9.47-15-12.04zm59.67-46.9a14.55 14.55 0 0 1-5.53 3.44 88.25 88.25 0 0 1-3.14 36 10.13 10.13 0 0 1 7 7.63c1.35 5.34.59 10.61-4.33 13.65-3.7 2.28-11.45 3.12-15.21.23-4.08-3.13-5.32-10.4-3.34-15l.18-.39a10.49 10.49 0 0 1 1.71-2.51 98.12 98.12 0 0 1-9.25-14.09c-1-1.66-1.89-3.26-2.83-4.81l-.54.45-.39.33c-2.36 2-5.59 4.71-8.38 6A2 2 0 1 1 97 83.1c2.31-1.09 5.44-3.72 7.51-5.46l.4-.33 1-.8c-.47-.71-.94-1.4-1.43-2.07a325.43 325.43 0 0 0-21.1-26 66.57 66.57 0 0 0-12.97.66c-2.09.39-4.22.61-6.28.82a45.18 45.18 0 0 0-9.27 1.6 42.28 42.28 0 0 1-8.08 1.58 42.88 42.88 0 0 0-6.79 1.18c-.55.16-1.11.3-1.67.45-.08.43-.15.85-.24 1.28-.52 2.68-1.3 5.31-2.06 7.85a65.34 65.34 0 0 0-2.24 9c-.16 1.09-.32 2.18-.47 3.26-.27 1.91-.53 3.77-.83 5.61.5.45 1 .9 1.49 1.37 2.15 2.11 4.62 4.14 7 6.1l.57.47c.65.54 1.34 1.17 2.08 1.85 1.57 1.45 3.53 3.25 5 3.82a2 2 0 1 1-1.44 3.73c-2.17-.84-4.35-2.84-6.27-4.61-.69-.64-1.34-1.24-1.91-1.7l-.57-.46c-2.31-1.89-4.68-3.85-6.85-5.94-.33 1.46-.7 2.91-1.16 4.35a43.94 43.94 0 0 0-1.36 7l-.2 1.09c-.09.63-.21 1.25-.32 1.87a8.07 8.07 0 0 1 4.94 4.06c4.21 8.37-3.62 17.27-12.11 14.11-3.85-1.43-7-7-5.25-10.83l.3-.68a7.26 7.26 0 0 1 2.65-5c-.11-.3-.22-.61-.31-.92l-.7-2.39c-2.45-8.4-5-17-5.72-26a11.58 11.58 0 0 1-6.24-1.54c-6.8-4-7.73-11.24-3.75-17.63 1.51-2.4 4.22-3.31 7.1-3.75a16.38 16.38 0 0 1 5.77.22c3.39-9.3 9.17-17.56 15.36-25.79a57.5 57.5 0 0 1 9.61-9.83 9.35 9.35 0 0 1-1.27-8c1.65-5.14 7.21-8.3 12.47-6a7.38 7.38 0 0 1 4.74 6.42c5.88-.88 11.91-.23 18.12.44 2.29.25 4.66.51 7.05.69 4 .31 8.13.63 12.2 1.31 3.5-7.08 13.28-10.67 20.36-5.2 3.84 3 4.14 10.91 2 15l-.13.24 1 .79a57.89 57.89 0 0 1 15.85 21.44c.41-.15.78-.27 1.11-.36 3.54-1 8-.78 10 3.25 1.4 3.08 1.65 8.38-.92 11.02zm-29.46-32.96a13.12 13.12 0 0 1-9.15 3.75 12.38 12.38 0 0 1-10.7-6.81l-1.31.67c-6 3.09-12.24 6.29-19 8.18-.88.25-1.76.51-2.63.78 4.42 4.28 8.75 8.7 12.91 13.2l1.67 1.84h2c2.71.07 5.28.13 7.77.08a244.62 244.62 0 0 1 27.72.59c1.44.13 2.85.36 4.23.58a8.07 8.07 0 0 1 2.13-2 53.94 53.94 0 0 0-14.86-20.21zM55.45 11.38a11.64 11.64 0 0 1-2 3.37 89.73 89.73 0 0 0 7.18 5.81c1.67 1.25 3.11 2.33 4 3.16s1.76 1.65 2.64 2.48c1.61-.52 3.23-1 4.86-1.48 6.33-1.78 12.1-4.74 18.21-7.88l2.07-1.06-.18-.55a12.82 12.82 0 0 1 .13-1.73c-3.75-.6-7.57-.89-11.32-1.18-2.46-.19-4.86-.45-7.18-.7-6.62-.72-12.67-1.37-18.41-.24zM35.94 45.1a75.71 75.71 0 0 0-13.81 9.17l.24.28a21.2 21.2 0 0 1 3.08-1.11c2.08-.55 4.23-1 6.3-1.41l3.1-.65.26-1.53c.27-1.6.53-3.18.83-4.75zm7.59-15.3a67.86 67.86 0 0 1-1.51 7.5l1.49-.81a131.77 131.77 0 0 1 19.45-8.83l-1.06-1c-.76-.7-2.12-1.72-3.7-2.9a82.34 82.34 0 0 1-8-6.51 8 8 0 0 1-3.54.85c-.19.48-.39.95-.59 1.41-.34.78-.66 1.53-.88 2.23a55.45 55.45 0 0 0-1.66 8.06zM18.95 51.72c5-4.64 11.79-8.41 18.13-11.81.23-.85.47-1.71.74-2.58a55.05 55.05 0 0 0 1.73-8.18 59.44 59.44 0 0 1 1.83-8.64 25.08 25.08 0 0 1 .91-2.36 52.06 52.06 0 0 0-8.54 8.8c-6.16 8.23-11.64 16.06-14.8 24.77zm3.74 48.83a10.88 10.88 0 0 1 1.92-.32c.12-.66.24-1.33.34-2l.16-1.1a47.46 47.46 0 0 1 1.51-7.65 53.7 53.7 0 0 0 1.53-6.24l-.65-.55c-1.27-1.07-2.59-2.17-3.84-3.4-.69-.67-1.6-1.49-2.66-2.43-1.47-1.3-3.14-2.76-4.68-4.32.69 8.57 3.08 16.78 5.59 25.38l.7 2.4c.02.07.06.15.08.23zm11.37-44.9l-1.52.31c-2 .41-4.1.84-6.08 1.36a16.68 16.68 0 0 0-2.26.81 11 11 0 0 1-4.34 12.26c1.34 1.29 2.69 2.49 3.8 3.48s2 1.82 2.8 2.55 1.62 1.49 2.46 2.21q.23-1.53.44-3.1c.15-1.09.31-2.19.47-3.29a69.46 69.46 0 0 1 2.36-9.58c.67-2.4 1.39-4.68 1.87-7.01zm45.6-11.29c-4.33-4.66-8.8-9.26-13.42-13.62a127.94 127.94 0 0 0-20.79 9.23c-1.5.84-3.12 1.7-4.81 2.6h-.08c-.59 2.53-1 5.08-1.49 7.73a47.7 47.7 0 0 1 7.23-1.2 38.65 38.65 0 0 0 7.36-1.36 48.88 48.88 0 0 1 10.07-1.76c2.07-.21 4-.41 6-.77a58.56 58.56 0 0 1 9.93-.85zm29.26 29.52c4-3.46 7.42-6.5 10.63-9.53 1.25-1.18 2.51-2.22 3.73-3.24a38.28 38.28 0 0 0 5.18-4.84 14.23 14.23 0 0 1-2.37-6.65c-1.32-.21-2.59-.41-3.88-.53a241.86 241.86 0 0 0-27.27-.57h-6.16c6.65 7.57 13 15.47 18.88 23.58.43.54.85 1.16 1.26 1.78zm5.39 8.83c2.76 4.77 5.59 9.65 9 13.62a15.06 15.06 0 0 1 6.82-1.67 84.27 84.27 0 0 0 3.18-35 6.13 6.13 0 0 1-1.24-.29 5 5 0 0 1-.7-.31 43.33 43.33 0 0 1-5.5 5.14c-1.17 1-2.38 2-3.54 3.06-3.37 3.18-6.92 6.36-11.19 10 1.06 1.84 2.13 3.64 3.17 5.44z" fill="currentColor"/></svg>
