<svg data-name="MEAL PREP" xmlns="http://www.w3.org/2000/svg" viewBox="0 0 124.72 108.28"><path fill="currentColor" d="M123.86 62.78c-3.39-10.14-13.42-14.42-21.57-17.92a90 90 0 0 0-19.13-5.83 13.73 13.73 0 0 0-.3-2.39 14.68 14.68 0 0 0-.61-2.08c-1.07-2.66-2.71 1.83-3.15 2.76-.16.33-.32.66-.49 1q-4.06-.55-8.26-.76h-1.94c1.6-2.24 3.14-4.44 4.79-6.67 4-5.42 6.52-10.68 6.52-17.57 0-4.59-.89-8.71-4.2-11.9a5.83 5.83 0 0 0-1.06-.76c-.78-.44-1.73-.79-2.25-.44-.79.53 0 2.78.16 3.61a22.45 22.45 0 0 1-1.35 14.52c-2.7 6.14-7.54 11-11 16.66-.63 1-1.33 2-2 3-1.25.08-2.52.15-3.77.19a67.49 67.49 0 0 0-11.64 1.7c-1.93.4-3.94.82-5.93 1.13a52.14 52.14 0 0 0-16 5.1C12.16 50.64 1.76 58.48.14 69.8-.6 75 1.57 80.46 6.42 85.61a48 48 0 0 0 12.73 9.36c1.06.53 2.14 1 3.24 1.52q1.17.62 2.35 1.18c8.39 5.18 17.27 7.62 25.11 9.32a62.44 62.44 0 0 0 13.07 1.29 79.72 79.72 0 0 0 24.15-3.76 51.32 51.32 0 0 0 14-6.9q1-.53 1.91-1.09a1.79 1.79 0 0 0 .62-.64 40.38 40.38 0 0 0 17.67-16.36c3.42-6.11 4.3-11.75 2.59-16.75zm-8 13.74a34 34 0 0 1-19.93 15.72c-1.33.38-2.65.8-3.92 1.2a50.34 50.34 0 0 1-8 2.09c-5.72.83-11.89 1.11-17.84 1.38-2.08.09-4.15.19-6.2.3a77.45 77.45 0 0 1-38.11-7.72C15.01 86.03 5.14 78.15 6.2 70.64c1.32-9.28 11.43-16 17.33-19.26a46.43 46.43 0 0 1 14-4.43c2.15-.33 4.23-.77 6.24-1.18a68.94 68.94 0 0 1 9.52-1.5 22.79 22.79 0 0 0-1.25 2.25c-1.89 4-3.1 10.93-1 15 .86 1.64 4.67 8.32 6.57 4.25.64-1.37-.24-3.16-.43-4.55a20 20 0 0 1 0-5c.63-5.08 3.33-8.86 6.3-12.57a75.4 75.4 0 0 1 4-.11c.83 0 1.66 0 2.5.06 1.68.08 3.33.23 5 .4-4.37 6.44-9.12 12.88-6.25 20.96.67 1.85 3.5 5.37 4.61 1.92.68-2.13.76-4.35 1.27-6.5a20.78 20.78 0 0 1 2.63-5.82c1.47-2.43 3.54-4.44 4.53-7.17.26-.72.49-1.47.69-2.25a84.49 84.49 0 0 1 17.5 5.38c7.3 3.14 15.58 6.7 18.12 14.22 1.13 3.34.42 7.19-2.16 11.79zm-12.67-11.21c1.22 2.72.61 5.75-1.8 9-4.34 5.82-11.75 9.47-22.65 11.16a107.67 107.67 0 0 1-16 1.18 85.88 85.88 0 0 1-8.63-.4c-6.37-.65-13.77-1.66-20.36-4.16-1.45-.55-14.14-5.61-12.73-13.09.84-4.36 5.18-7.56 7.7-9.1a1.78 1.78 0 0 1 1.85 3c-3.43 2.09-5.64 4.53-6 6.69-.59 3.1 5 7 10.5 9.11 6.21 2.36 13.32 3.32 19.46 3.95a102.09 102.09 0 0 0 23.72-.75c9.93-1.54 16.59-4.73 20.34-9.77 2.39-3.21 1.65-4.86 1.41-5.41-1.39-3.11-7.58-5.42-11.68-7a1.78 1.78 0 0 1 1.25-3.33c6.29 2.47 11.78 4.79 13.62 8.92zM49.55 24.56a12.07 12.07 0 0 1 .09-2.55 14.07 14.07 0 0 1 2.31-5.37c2.15-3.36 5.24-6.51 6.12-10.51.57-2.57 1.64-3.38 3-.45a11.21 11.21 0 0 1 .05 9.2c-1.3 3.21-3.58 5.63-5.56 8.38-.52.71-.95 1.45-1.49 2.16-.77 1-1.7 3.76-3.28 2.42a4.74 4.74 0 0 1-1.24-3.28z"/></svg>
