<svg xmlns="http://www.w3.org/2000/svg" viewBox="0 0 88 88"><defs/><path class="cls-1" d="M43.84 7.49a10.84 10.84 0 0 1 3.47.39c0 .2.05.42.08.61.87 7.09 4 8.92 5.44 9.8l.4.25A8.38 8.38 0 0 0 57.88 20a8.52 8.52 0 0 0 5.85-2.56 22.64 22.64 0 0 1 2.17-1.62l.62-.43a81.61 81.61 0 0 1 6.08 6.12C71.53 23 70.34 24.5 69.15 26a7 7 0 0 0-.91 7.1c.26.58.51 1.18.76 1.8a7 7 0 0 0 5.42 4.27l1.24.19.65.1h.13l4.07.62v8.22l-.44.06c-1.3.17-2.53.34-3.68.43-7.09.55-8.15 6-8.3 7.7-.5 5.34 2.94 8.66 4.61 10.26a54.9 54.9 0 0 1-6.1 6.1l-.54-.49a19.32 19.32 0 0 0-5-3.53 8.64 8.64 0 0 0-3.53-.77c-2.8 0-7.69 1.27-8.94 9.76v.19c-.13.82-.25 1.64-.38 2.46h-8.39a30.53 30.53 0 0 0-1-3.46c-.16-.5-.32-1-.43-1.4-1.65-6-6.18-6.66-8.06-6.66a10.77 10.77 0 0 0-2.63.35 15.54 15.54 0 0 0-6.28 3.44 72.33 72.33 0 0 1-6.07-6.06c1.67-2.21 4.81-6.77 3-12.08C16.37 48.58 10 48.13 7.49 48v-8.09c1.41-.19 2.8-.41 4-.6h.11c1.64-.25 5-.77 7.21-3.9a8.69 8.69 0 0 0 1.31-6.92c-.49-2.38-1.9-4.85-4.31-7.56A20.12 20.12 0 0 1 19.29 18c.39-.28.8-.59 1.21-.91s.8-.61 1.17-.86a7.8 7.8 0 0 1 .92.4c.13.09.49.4.76.62a19.88 19.88 0 0 0 2.39 1.81 8.85 8.85 0 0 0 4.68 1.39c1.48 0 6.46-.5 8.44-7a23.15 23.15 0 0 0 .8-4.38c0-.37.08-.91.15-1.4h.56c1.16-.06 2.37-.13 3.49-.13M43.86.49c-2.49 0-5 .26-7 .26l-.62.25C33.28 2.4 33 5.54 32.69 8.4c-.12 1.27-.53 5-2.27 5a1.85 1.85 0 0 1-1-.32c-1.28-.8-2.21-1.95-3.57-2.67a11.68 11.68 0 0 0-4.27-1.36h-.29C19 9.08 17 11 15.23 12.29A23.4 23.4 0 0 0 10.05 17c-1.22 1.6-1.78 2.4-1.78 4.46s.92 2.53 2.24 4c1 1.1 2.5 2.95 2.8 4.42.42 2.08-1.21 2.28-2.84 2.53s-3.26.51-4.88.71a5.71 5.71 0 0 0-4.8 3.27l-.3.61v13.88l.2.53a5.51 5.51 0 0 0 4.87 3.52c1.84.24 5.48-.24 6.22 2s-1.09 4.47-2.24 6l-.47.61a5.2 5.2 0 0 0 .18 6.83A74.2 74.2 0 0 0 16.84 78l.87.81a5.32 5.32 0 0 0 3.61 1.59 5.53 5.53 0 0 0 3.26-1.2c1.52-1.12 2.91-2.63 4.81-3.1a4.18 4.18 0 0 1 1-.15c.78 0 1 .47 1.3 1.51a38.71 38.71 0 0 1 1.41 5.1 5.5 5.5 0 0 0 3.45 4.69l.55.22h14.03l.61-.28a5.54 5.54 0 0 0 3.26-4.5c.18-1.2.36-2.39.55-3.58s.5-4 2-4a1.82 1.82 0 0 1 .69.17c1.56.69 3.11 2.42 4.46 3.48a6.46 6.46 0 0 0 4 1.65 6.16 6.16 0 0 0 3.91-1.69A62.08 62.08 0 0 0 79 70.2c2.5-3.06 1.2-5.44 0-7-1.43-1.82-4.18-3.28-3.92-6 .11-1.21.83-1.29 1.87-1.37 1.8-.14 3.61-.42 5.42-.65a5.77 5.77 0 0 0 4.86-3.28l.3-.62v-13.9l-.2-.53a5.54 5.54 0 0 0-4.84-3.53c-1.7-.23-3.39-.49-5.09-.75l-1.9-.3c-.27-.66-.54-1.31-.82-1.94 1.53-1.95 3-3.9 4.3-5.58a5.19 5.19 0 0 0-.21-6.75 81.38 81.38 0 0 0-7.75-8l-.7-.65a5.24 5.24 0 0 0-3.6-1.56A5.54 5.54 0 0 0 63.42 9c-1.42 1.05-3.05 2.05-4.35 3.22-.62.54-.91.78-1.19.78s-.66-.3-1.47-.78c-2.67-1.58-1.53-5.65-2.9-8-1.9-3.11-5.76-3.73-9.65-3.73z"/><path class="cls-1" d="M45.07 35.59c.85 0 1.75 0 2.68.12a7.8 7.8 0 0 1 4.49 3 12.4 12.4 0 0 1 .18 1.39c0 .51.1 1 .17 1.55a20.35 20.35 0 0 1 .27 4.8c-.09.22-.28.64-.42.93l-.47 1c-.8 1.83-2.23 4-4.53 4.22h-.76a7.66 7.66 0 0 1-1-.06 6.2 6.2 0 0 0-.86-.05H44a8.1 8.1 0 0 1-4-1 6.88 6.88 0 0 0-1.57-.63c-1.18-.32-2.28-1.17-4.11-4.33 0-.37.08-1.08.12-1.45A20.7 20.7 0 0 1 35.58 40c1.89-4.42 7.22-4.42 9.49-4.42m0-7c-6.6 0-13 1.94-15.93 8.67a27.08 27.08 0 0 0-1.66 7.1c-.23 2-.39 3.73.63 5.51 2 3.56 4.36 6.7 8.47 7.82A15.33 15.33 0 0 0 44 59.61h.79a15.78 15.78 0 0 0 1.83.11h1.29c5-.39 8.48-4 10.41-8.39a14.65 14.65 0 0 0 1.38-3.56 24.82 24.82 0 0 0-.23-6.94 26.64 26.64 0 0 0-.6-4.06c-1.18-3.85-6.55-7.6-10.58-7.95-1.08-.1-2.18-.15-3.28-.15z"/></svg>
