<svg data-name="ONLINE SAFETY" xmlns="http://www.w3.org/2000/svg" viewBox="0 0 131.29 128.25"><path fill="currentColor" d="M30.94 59.08c-2.47 0-4.85-.11-7.27-.26.24-6.4 1.38-12.31 5.68-15.27l.52-.36c.89-.63 1-.71 1.46-.74h.48a24.43 24.43 0 0 1 4.15-.1c2.29.24 4.85 2 6.84 4.78 1.23 1.7 1.32 4 1.31 6.83 0 1.36 0 2.83-.06 4.35-2-.12-4-.06-6 0-2.43.01-4.68.75-7.11.77zm100 15.38a52 52 0 0 1-4.25 13.27c-2.66 6.11-6.12 13.08-11.56 18.41-14.15 13.84-30.77 21.25-48.53 21.78a15.48 15.48 0 0 1-3 .33 11.71 11.71 0 0 1-3-.4c-1.14-.06-2.28-.15-3.43-.27-9.55-1-19-5.06-29-12.39-7.74-5.69-16.37-12.8-21.7-22.33A53.23 53.23 0 0 1 .14 70.24 79.27 79.27 0 0 1 2.3 45.77c1.57-5.83 5.19-12.28 10.77-19.15 8.07-9.86 19.17-16.77 25.07-20A53.85 53.85 0 0 1 70.01.36c11.6 1.37 22.06 6.46 30.95 11.13 15.75 8.26 26 29.41 29.13 46.71.9 4.79 1.68 10.49.82 16.26zm-51.57 37.56c2.89-3.79 4.41-8.39 6-13.58l.81-2.69a121 121 0 0 1-19.94 1.87h-1.25c-.32 3.29-.54 6.6-.54 9.94a131.22 131.22 0 0 0 .44 14.42h1l.26-.06c4.36-1.09 9.3-4.77 13.22-9.9zm18.92-48.94c8.11-.28 16.37-.53 24.61-.6a18.57 18.57 0 0 0-3.76-8.46c-5.11-6.62-14.29-10.74-22.51-12.8a128.5 128.5 0 0 1 1.66 21.86zm-8-23.09h-.24c-2.31-.29-4.54-.65-6.69-1A87.48 87.48 0 0 0 69 37.49H66.53c.67 8.81 1.32 17.62 1.55 26.48 8.09-.09 16.21-.34 24.16-.62A122.63 122.63 0 0 0 90.33 40zm-77.15 38.2a31 31 0 0 0 .19 8.09 5 5 0 0 0 1.55 3.12c2.43 2.09 6.19 1.86 9.19 1.94 4.49.12 8.94-.51 13.42-.5 3.9 0 7.82.14 11.71 0a10 10 0 0 0 4.34-1.49c1.35-.76 1.55-1.46 1.8-3.06.6-3.87.34-7.83.34-11.73s.81-9.16-.88-12.86c-.49-1.07-.76-1.93-1.93-2.21a14.55 14.55 0 0 0-2.92-.14c.07-1.89.1-3.73.1-5.38 0-2.93 0-6.94-2.45-10.36-3-4.18-7.06-6.81-11.08-7.23a28.87 28.87 0 0 0-5.24.08h-.47a8.19 8.19 0 0 0-4.48 1.83l-.39.33c-6.9 4.75-8.08 13.53-8.29 20a7.23 7.23 0 0 0-3.35.91c-3.27 2-2 8.49-1.72 11.47.26 2.36.88 4.77.56 7.19zM89 33.75c-1.76-7.56-4.13-13.88-9.62-18.92a46.31 46.31 0 0 0-6.36-4.49c-1.07-.67-2.12-1.34-3.09-2a10.12 10.12 0 0 0-5.14-1.84c.14 8.34.68 16.63 1.3 24.92H69A93.46 93.46 0 0 1 84.32 33c1.56.28 3.13.52 4.71.75zm-1 55.53a106.65 106.65 0 0 0 3.52-15.4c.19-1.46.34-3 .45-4.58-7.88.28-15.92.53-24 .61-.31 7.31-1.48 14.48-2.4 21.69a112.93 112.93 0 0 0 22.48-2.32zm6.66-1.54c14-3.69 26.69-10.06 28.19-19.26-8.29.06-16.65.32-24.84.61-.13 1.93-.3 3.8-.54 5.58a100.1 100.1 0 0 1-2.75 13.08zm3.48-71a128.94 128.94 0 0 0-15.73-7.23c.34.28.69.55 1 .84 7.26 6.67 9.93 15 11.93 24.36 8.76 1.79 18.7 5.71 25.52 12.28-4.39-12.43-12.17-24.69-22.67-30.2zm23 68.54c.83-1.91 1.56-3.69 2.16-5.41-6.76 7.1-18.6 11.75-30.53 14.48l-.72 2.39-1 3.34c-1.71 5.76-3.42 10.91-6.93 15.51a42.39 42.39 0 0 1-3.65 4.16c11-3 21.24-9 30.42-18 4.72-4.5 7.84-10.83 10.25-16.41z"/></svg>
