<svg xmlns="http://www.w3.org/2000/svg" viewBox="0 0 95 91"><path fill="currentColor" d="M92.88 28a35.22 35.22 0 0 0-6.31-6.7c-.58-.51-1.11-1-1.56-1.4-4.22-4-8-8.19-12.05-12.64l-1.4-1.53C69.33 3.26 64.83 0 60.79 0a6.56 6.56 0 0 0-2.36.42c-1.51.59-4 2.32-4.08 7.39v3.8c.06 2.78.11 5.41 0 8a76.64 76.64 0 0 1-10.64 8.5 13.09 13.09 0 0 1-5.14.94c-1.14-.09-2.44-.29-4-.55a55.68 55.68 0 0 0-9-1.28 7.78 7.78 0 0 0-3.91.82c-4 2.39-1.84 7.2.29 9.88l1.51 1.91a57.67 57.67 0 0 0 8.16 9 13.79 13.79 0 0 1 2.07 2.24L.82 88.6c-1 1.15-.47 1 .6 2.1.19.2.25.26.28.26s0-.26.47-.26a2.94 2.94 0 0 0 1.89-.7L40 59.45l1 1c.65.68 3.42 2.82 4.09 3.56 3.36 3.7 7.17 7.9 12.12 9.75a9.28 9.28 0 0 0 3.21.61 6.08 6.08 0 0 0 4.48-1.79 7.22 7.22 0 0 0 1.76-3.8 37.57 37.57 0 0 0 .24-9.4c-.24-4-.47-7.87 1.28-10.8a17.36 17.36 0 0 1 4.92-4.72c2.53-1.84 5.34-2.77 9.68-3.21.4 0 .87-.07 1.36-.1 3.44-.22 10.59-.68 10.61-7A10.07 10.07 0 0 0 92.88 28zm-9.22 5.58c-.59 0-1.15.08-1.62.13-5.61.56-9.53 1.91-13.1 4.51A23.83 23.83 0 0 0 62.12 45c-2.84 4.78-2.53 10.1-2.25 14.8a33.52 33.52 0 0 1-.08 7.46l-.17-.06A19.6 19.6 0 0 1 53 62.3a10.19 10.19 0 0 0-1-1.18c-4.55-5-9.55-11.9-16.14-17.7a52.8 52.8 0 0 1-7-7.81c-.27-.36-.55-.71-.84-1.07 1.11.16 2.26.38 3.28.58l2 .37c1.51.25 3.11.5 4.57.63h.74a19.77 19.77 0 0 0 7.91-1.57l.3-.15a77.72 77.72 0 0 0 12.83-10.11 6.94 6.94 0 0 0 1.7-4.21c.16-2.89.11-5.64 0-8.56V7.89a4.91 4.91 0 0 1 0-.75 12.33 12.33 0 0 1 5 3.29L67.78 12c4.12 4.54 8 8.83 12.42 13 .52.49 1.07 1 1.74 1.57A29.85 29.85 0 0 1 87 31.81a5.2 5.2 0 0 1 .63 1.19 20.93 20.93 0 0 1-3.97.58z"/></svg>
