<svg data-name="POLICE CHECK" xmlns="http://www.w3.org/2000/svg" viewBox="0 0 109.02 117.93"><path fill="currentColor" d="M107.88 78.51c-1.35-8.14-7.05-16.38-14.32-21.49v-.41a72.91 72.91 0 0 0-2.05-10.39l-.35-1.34A57.06 57.06 0 0 1 88.93 33v-.57l.22-4.33a3.47 3.47 0 0 0-.09-.94q.09-.75.24-1.51l.36-1c.26-.72.52-1.44.77-2.2a13 13 0 0 0 .46-2.17c.18-.45.37-.91.57-1.37.79-1.79 1.66-3.56 2.42-5.07a3 3 0 0 0-.52-3.42l-8.83-9.24a3 3 0 0 0-4.21-.13 14.17 14.17 0 0 1-5.5 3.1 34.83 34.83 0 0 1-15.83 1A35.79 35.79 0 0 1 54.24 4a12.71 12.71 0 0 1-5.07-3 3 3 0 0 0-4.11 0 13.86 13.86 0 0 1-5.69 3.18 34.27 34.27 0 0 1-8.75 1.37h-.82a6.85 6.85 0 0 0-1.13 0c-1 0-2-.09-3-.2a13.41 13.41 0 0 0-2-.53h-.2a19.5 19.5 0 0 1-2.61-.8l-1.27-.44c-.72-.24-1-.56-2-1.54l-.38-.41A4.25 4.25 0 0 0 12.32.27a3 3 0 0 0-2.64.89L.89 10.35a3 3 0 0 0-.51 3.44 60.74 60.74 0 0 1 3.42 7.8A28.76 28.76 0 0 1 5.11 34.3c-.13 1.21-.33 2.39-.56 3.55q-.36 1.18-.72 2.35c-.6 1.92-1.22 3.9-1.7 5.85a42.87 42.87 0 0 0-1.12 7.47c0 .2-.08.4-.12.6a61.41 61.41 0 0 0-.86 11.21 39.28 39.28 0 0 0 1.13 9.77 36.37 36.37 0 0 0 7.21 14.3 49.91 49.91 0 0 0 12.93 10.91 106.16 106.16 0 0 0 15.11 7.32l1.64.66h.13a49.83 49.83 0 0 1 7.34 3.4 3 3 0 0 0 3.09 0c.62-.37 1.45-.85 2.36-1.29s1.57-.72 2.37-1c.39.47.78.95 1.2 1.4 8.85 9.75 28.76 8.76 39 1.4 4.71-3.39 10.2-8.55 13.31-13.55 3.4-5.42 2.02-14.11 1.03-20.14zm-59.42-14l-2.08 3.33c-.35 1.46-.88 3-1.34 4.48-3.07 9.87-1.36 20.67 3.43 29.7a26.4 26.4 0 0 1-3 1.56c-1.94-1.12-3.91-2.12-5.82-3.12a49.78 49.78 0 0 1-8.28-5c-1.87-1.49-3.7-3-5.47-4.56-1.46-1.25-2.92-2.49-4.42-3.72-7.14-5.82-11.2-15.05-12.09-27.43-.3-4.18 1.24-9 2.73-13.69.6-1.88 1.22-3.82 1.7-5.67a48.85 48.85 0 0 0 1.6-13.73 24 24 0 0 0-1.48-6.75 16.29 16.29 0 0 1-1.13-5.09 4.21 4.21 0 0 1 .75-2 16.17 16.17 0 0 0 4.26 1.79 33.91 33.91 0 0 0 7.6.79 38.73 38.73 0 0 0 5.93-.44 110.88 110.88 0 0 0 19-5c.09 0 .17-.08.26-.12a25.7 25.7 0 0 0 7.23 2.62c9.38 1.82 16.64 1.25 21.63-1.72.44-.26.93-.55 1.29-.75.18.2.44.49.79.92a18.16 18.16 0 0 1 1.14 1.7 18.6 18.6 0 0 0 2.72 3.61 47.73 47.73 0 0 0-2.57 8.12c-.13.61-.24 1.24-.32 1.88a3.47 3.47 0 0 0-.45 1.52q-.12 2.38-.25 4.78c-.08.8-.13 1.6-.14 2.42-.33 5.62-.78 11.29-1.62 17-11.24-1.01-24.43 3.8-31.61 12.61zm47.13 13.66c-3.25 3-6.67 6-9.74 9.11-2.8 2.85-6 4.91-8.92 7.55-1.69 1.55-5.2 5.56-7.62 4.73s-3.43-3.22-5.1-4.9c-2.07-2.08-4.6-3.56-6.47-5.88s.27-4.28 2-6.06c.51-.52 1.65-2.54 2.37-2.63a1.52 1.52 0 0 1 .83.19c1.28.63 2.87 2.59 3.58 3.23a20.35 20.35 0 0 1 4.15 4.5c3.3-4 7.87-8.7 11.83-12.61 1.64-1.61 6-7.21 8.3-7.56 1.95-.3 4.87 2.74 6.05 4.13 2.35 2.8 1.16 4-1.27 6.24z"/></svg>
