<svg xmlns="http://www.w3.org/2000/svg" viewBox="0 0 88 89"><path fill="currentColor" d="M35.31 47.83c-1.35.28-1.1 5.15-1.15 6.48-.09 2.23-.1 4.55 0 6.77 0 .5 2.78.43 3.12.4a8.22 8.22 0 0 0 2.7-.74c3.89-1.86 4.87-7.79 2.34-11-1.72-2.28-4.32-2.46-7.01-1.91zM17.28 54.47c.75.57 2.9-.16 3.6-.52 1.38-.73 1.3-1.66 1.3-3.13 0-2.41-.82-3.42-3.21-3.48-1.89-.06-1.83.2-1.83 2.06 0 .85-.52 4.46.08 5zM12.63 35.43h.09c0-.38-.03-.49-.09 0z"/><path fill="currentColor" d="M87.7 48.26a26.53 26.53 0 0 0-.08-4c-.3-13-.7-8.46-.9-14.23a12.44 12.44 0 0 0-.13-3.55c-.56-3.37-5.28-6.34-7.52-8.95-2.83-3.3-6.85-5.84-10.32-8.44A36.37 36.37 0 0 0 64.33 5 12.91 12.91 0 0 0 59 .52c-3.06-.93-6.6-.16-9.72 0A92.41 92.41 0 0 1 38.71.38 124.16 124.16 0 0 0 23 .28a67.61 67.61 0 0 1-7.41 0C13.45.27 11.21.2 9 .3L6.64.41l-.16 2.32a42.66 42.66 0 0 0 0 5.36c.05 1 0 1.94 0 3 0 .46 0 .93-.07 1.4a177.1 177.1 0 0 0 .33 20c0 1 .06 2 .07 3.08H6.6c0-.1 0-.11 0 0h-.27v.19c-4.44.55-5.95 3.84-6 8.75 0 6-.57 12-.22 18 .21 3.65.62 8 4.19 9.83a4.21 4.21 0 0 0 2.31.59 21.34 21.34 0 0 1-.21 2.81c-.09.55-.19 1.1-.28 1.64a30.91 30.91 0 0 0-.65 7.52l.12 1.79 1.71.53a15.54 15.54 0 0 0 6.16.31c.68-.06 1.32-.11 1.93-.13l5.32-.15 3.52-.11 23.84.76c.4 0 .81.09 1.21.15a40.59 40.59 0 0 0 8.87.16l24 .76v-.2a12 12 0 0 0 3.48-.57l1.18-.4.42-1.17a10.71 10.71 0 0 0 .49-2 14.42 14.42 0 0 0 .11-2.86c.26-8.43.17-21.12-.13-33.51zM13.62 44.6c1.66-1.3 5.27-.7 7.23-.57 3.92.28 6.39 2.8 6.47 6.35a6.74 6.74 0 0 1-4.07 6.44c-1.56.67-3.78.72-5 2l-.09.1C16.82 60.4 17 63.07 17 64.9h-4.83v-8.1c0-3.09-1.4-9.96 1.45-12.2zM80 74a45.44 45.44 0 0 0-.91 8.28c-10.86-.21-42.64-.59-54.26-.7l-9.78-.31a3.39 3.39 0 0 1-1-.44c-1.73-1.24-1.33-5.27-1.14-8.09 1.37-.11 2.72-.26 4.13-.32H66.1c4.23 0 5.69-1.45 5.69-5.66V41.21c0-3.94-1.5-5.44-5.43-5.44H23.54a42.9 42.9 0 0 0-5.69-.21c-1.59-.07-3.19.08-4.78 0h-.18a.65.65 0 0 1-.16 0h-.11c.12-10.68.78-16.83.88-28.67.42-.1.78-.19 1-.22 5.29-.77 10.77 0 16 0 5.63 0 11.26.4 17 .69 3.31.17 7.55 0 10 2 .05 2 0 4 .06 6 .16 3-.63 7.7 1.5 10.09 3.5 4 9.8 2.37 14.44 2.58 1.82.09 3.7.3 5.62.4.17 9.71 1.17 2.66 1.16 12.3.04 11.11 1.4 22.06-.28 33.27zm-49.65-8.44V44.29c4.34-.33 8.59-1 12.74.63s5.79 4.61 5.72 9.91c-.06 4.5-2.23 8.2-6.38 9.25-3.81.92-7.85 1-12.08 1.48zm33.74-12.89v4H59.4c-4.16 0-2.65 5.34-2.65 8.34h-4.6V52c0-2.16-1-5.75.59-7.27a2.38 2.38 0 0 1 1-.56c1-.29 10.89 0 10.89-.06V48h-4.22C57.26 48 57 49.94 57 52.67z"/></svg>
