<svg xmlns="http://www.w3.org/2000/svg" viewBox="0 0 105 105"><path fill="currentColor" d="M71.46 75.12c-.34-.43-.67-.82-1-1.18s-.53-.59-.66-.75c-2.46-3-4.92-6-7.32-9.06-2.14-2.72-4.3-5.52-6.43-8.34a35.88 35.88 0 0 0 3.57-2.89 28.27 28.27 0 0 0 3.95-4.45 24.44 24.44 0 0 0 2.82-5.16 15.62 15.62 0 0 0 .2-11.09A14.17 14.17 0 0 0 64 27.69a12.65 12.65 0 0 0-4.12-3.14 12.26 12.26 0 0 0-5.38-1.18 16.78 16.78 0 0 0-5.61.95 3.71 3.71 0 0 0-1.27-.71c-1.28-.43-2.69-.47-3.45.24a2.47 2.47 0 0 0-.7 1.14 4.33 4.33 0 0 0-.19 1.16v1.04l-.29.22a8.07 8.07 0 0 0-.8.73 4.19 4.19 0 0 0-.68 1 2.77 2.77 0 0 0-.31 1.27 3.35 3.35 0 0 0 .23 1.19 4.65 4.65 0 0 0 .6 1.06 3.87 3.87 0 0 0 .93.88 2.82 2.82 0 0 0 .38.21c0 1.92-.08 3.81-.1 5.67v6.43c0 5 .1 10.06.28 15.06A144.53 144.53 0 0 0 44.81 76c.08.49.17.9.26 1.25a2.84 2.84 0 0 0 .93 1.37 3.08 3.08 0 0 0 1.09.66 11 11 0 0 0 1.17.32 10.42 10.42 0 0 0 1.2.16h1a4.11 4.11 0 0 0 1.54-.28 2 2 0 0 0 1.16-2A4.78 4.78 0 0 0 53 76.2c-.09-.31-.17-.62-.23-.86a74.87 74.87 0 0 1-1.19-8.59c-.15-1.91-.29-3.85-.4-5.78l1.29 1.77L54.92 66c.88 1.21 1.78 2.41 2.68 3.61l2.64 3.51q1.27 1.71 2.31 3.06c.69.9 1.26 1.63 1.73 2.19a4.58 4.58 0 0 0 1.17 1.2 6 6 0 0 0 1.3.54 5.16 5.16 0 0 0 1.47.17c.23 0 .57 0 1-.08a9 9 0 0 0 1.4-.3 5.18 5.18 0 0 0 1.32-.6 1.9 1.9 0 0 0 .89-1.58 2.65 2.65 0 0 0-.51-1.39 12.93 12.93 0 0 0-.86-1.21zm-14.6-30a22.31 22.31 0 0 1-3.24 3.48 21.68 21.68 0 0 1-2.84 2.13q-.09-4.9-.14-9.81l-.12-10.42a12.57 12.57 0 0 1 1.59-.58 5.37 5.37 0 0 1 4.39.31A6.94 6.94 0 0 1 58.36 32a8.71 8.71 0 0 1 1.66 5 11 11 0 0 1-.85 4.17 18.66 18.66 0 0 1-2.31 3.95z"/><path fill="currentColor" d="M88.11 13.66A44.4 44.4 0 0 0 58 1.55 59.15 59.15 0 0 0 7.19 29.49c-8.77 14.45-9.3 31-1.44 45.47 9.33 17.15 30.78 28.5 51.09 28.5a49.78 49.78 0 0 0 12.93-1.66c16.83-4.56 29-17.2 33.35-34.68 4.88-19.35-1.05-40.33-15.01-53.46zm8.22 51.77C92.59 80.37 82.25 91.16 67.94 95c-20.1 5.44-46.29-5.5-56-23.43-6.73-12.37-6.28-26 1.27-38.49A52.06 52.06 0 0 1 57 8.54h.9a37.51 37.51 0 0 1 25.41 10.22c12.14 11.42 17.25 29.74 13.02 46.67z"/></svg>
