<svg xmlns="http://www.w3.org/2000/svg" viewBox="0 0 85 92"><path fill="currentColor" d="M74.67 28.79a21.38 21.38 0 0 0-5-.46c-.93 0-1.86-.06-2.79-.06h-1.76c-.91 0-1.82 0-2.73-.05 0-.3.2-.57.27-.85s.12-.66.19-1c.19-.77.4-1.53.59-2.3a24.23 24.23 0 0 0 .84-4.62 19.77 19.77 0 0 0-.28-4.79 37.72 37.72 0 0 0-2-6.75c-1.77-4.27-5.4-6.33-9.75-7.28-.51-.11-1-.27-1.51-.4h-4a10.12 10.12 0 0 0-6.84 8.22A31.27 31.27 0 0 1 31 26c-1.72 1.73-3.18 3.68-4.72 5.55-.65.79-1.39 2-2.32 2.47a27 27 0 0 1-3.25.83 28.93 28.93 0 0 1-4.48.62 12.63 12.63 0 0 1-1.38.07c-1.66 0-3.37-.24-5-.24a11.09 11.09 0 0 0-2.08.17c-8 1.46-6 12.33-6.25 18.2-.07 1.48-.37 2.91-.45 4.38-.32 6-1.27 12.55-.4 18.52.46 3.2 1.95 5.77 5 7.05a16.41 16.41 0 0 0 6.33 1c1.49 0 3-.07 4.39-.07h1.19c11.38.45 22 3.9 33 6.45a27.62 27.62 0 0 0 6.33.76h1.32c9.31-.45 18.58-5.36 19.13-15.58a5.41 5.41 0 0 1 .64-2.45 16.78 16.78 0 0 0 2.61-9.55 8.59 8.59 0 0 1 .59-3.07 17.08 17.08 0 0 0 1.14-8.86 5 5 0 0 1 .6-2.79c4.29-8.41.48-18.06-8.27-20.67zM14.06 77.57h-2.09a11.92 11.92 0 0 1-3.62-.41c-.25-.11-.59-.25-.79-1.61-.53-3.71-.19-8.13.14-12.41.12-1.51.3-3.14.3-4.68 0-.46.1-1 .17-1.61.11-.84.23-1.78.28-2.83.06-1.29 0-2.63 0-4.05 0-1.9-.13-6.23.55-7.59a5.17 5.17 0 0 1 .79-.05c.58 0 1.27.05 2 .1.91.07 1.94.14 3 .14a18.22 18.22 0 0 0 2.21-.11l.75-.07c-.14 6.29-.34 12.42-.55 18.35-.18 5.44-.37 11.05-.51 16.8h-.32zM76.73 46.3a12 12 0 0 0-1.28 7 10.05 10.05 0 0 1-.76 5.3 15.17 15.17 0 0 0-1 5.73A9.88 9.88 0 0 1 72.08 70a12.44 12.44 0 0 0-1.7 5.74c-.43 8-10.47 8.87-12.48 9h-1a20.51 20.51 0 0 1-4.75-.58c-2.56-.59-5.17-1.25-7.69-1.89a161.84 161.84 0 0 0-20.31-4.21c.13-5.84.33-11.55.52-17.09.22-6.43.45-13.08.59-20v-.06a11.66 11.66 0 0 0 1.62-.58 12 12 0 0 0 4.52-4c.09-.13.18-.26.27-.37.42-.5.82-1 1.23-1.51A43.64 43.64 0 0 1 36 31 38 38 0 0 0 46.77 9.59a3.1 3.1 0 0 1 1.43-2.36h1.57c.3.08.63.17 1 .24 3.81.83 4.44 2.36 4.74 3.09A29.92 29.92 0 0 1 57.13 16a12.48 12.48 0 0 1 .16 3.05 18.88 18.88 0 0 1-.63 3.32c-.08.29-.15.59-.23.88-.13.49-.25 1-.37 1.47-.06.25-.11.48-.15.68a8 8 0 0 0-.52 3A7 7 0 0 0 62 35.21c1.11.06 2.18.06 3.08.06h5.57a14.13 14.13 0 0 1 2 .12 6.89 6.89 0 0 1 4.47 3.89 8.2 8.2 0 0 1-.39 7.02z"/></svg>
