<svg xmlns="http://www.w3.org/2000/svg" viewBox="0 0 83 83"><path fill="currentColor" d="M81.93 55c.33-6.69.52-13.4.63-20.1q.09-5 .1-9.9c0-3.34 1.09-7.85-1.8-10.36-1.81-1.57-5.39-2.54-6.75.11-.87 1.69-.76 4.78.62 6.21.54.56.27.8.58 1.56s0 2.34 0 3.21c.07 2.45.21 4.9.34 7.35a111 111 0 0 1 .1 14.36.08.08 0 0 1-.1-.07c0 3.31-.43 6.59-.23 9.92.19 3 .63 6 .62 9s0 3.87-.13 6.8c0 .8.39 2.25-.17 2.93a1.35 1.35 0 0 1-.52.39 2.56 2.56 0 0 0-.39 0c-.72 0-1.41-.06-2-.06-1.71 0-3.45-.1-5.14-.2-1.33-.07-2.7-.15-4.08-.18h-3c-1.44 0-2.87.06-4.26.13-1 0-2 .08-2.91.11-.79 0-1.58-.06-2.35-.15a126.74 126.74 0 0 0-15.56-.68c-3.61 0-7.23.07-10.79.15-2.41.05-5 .51-7.42 0-1.45-.29-2.83-.48-4.24-.7h-.22c-2.19-.22-3.78.27-3.85 2.58 0 .71-.09 3.82.84 4l1.44.33a14.63 14.63 0 0 0 4.08.27 27.82 27.82 0 0 0 3.18-.07c.6 0 1.19-.08 1.77-.09l4.77-.11c3.11-.07 6.27-.14 9.41-.16a126.34 126.34 0 0 1 14.32.71 39 39 0 0 0 5.18.19c1.81 0 3.61 0 5.38-.12 1.2-.06 2.42-.1 3.63-.12s2.67.11 4 .18c1.88.11 3.82.22 5.8.22.6 0 1.29 0 2 .06 1.85.08 4.57.22 6.12-1a5.8 5.8 0 0 0 1.7-3.7 37.49 37.49 0 0 0-.08-8.27A125.27 125.27 0 0 1 81.93 55zM26.49 48.14a3.21 3.21 0 0 0 2.1 1.34 2.59 2.59 0 0 0 .56.05 3.24 3.24 0 0 0 1.85-.59 31.15 31.15 0 0 0 6.32-6.56c.41-.52.82-1 1.24-1.55a39.47 39.47 0 0 1 4.3-4.27c1.29-1.16 2.61-2.35 3.86-3.68 1-1 3.15-3.11 4.92-4.77 1-1 2-1.88 2.58-2.47a3.23 3.23 0 1 0-4.5-4.64c-.58.56-1.49 1.43-2.5 2.38-1.93 1.81-4.11 3.87-5.21 5.05s-2.22 2.18-3.46 3.29c-2 1.84-6.19 7.72-9.42 6.21-3-1.42-8.47-9.06-12.46-4.86a3.24 3.24 0 0 0 .11 4.57c2.36 2.28 7.84 7.79 9.71 10.5z"/><path fill="currentColor" d="M16.15 68.13h4.8a137.16 137.16 0 0 1 16.21.8 32.1 32.1 0 0 0 3.79.21c1.45 0 2.89-.07 4.31-.14s2.78-.13 4.16-.13h.88c1.35 0 2.72.11 4 .18 1.78.11 3.62.21 5.49.21.57 0 1.22 0 1.9.06s1.64.08 2.47.08a13.59 13.59 0 0 0 3.49-.4l.88-.23.38-.81c1-2.16.5-4.42 0-6.41a12.58 12.58 0 0 1-.37-2.55c0-.91.07-1.86.15-2.86a21.94 21.94 0 0 0 0-5.78 34.27 34.27 0 0 1-.36-8 34.83 34.83 0 0 0-.33-5.48 28.1 28.1 0 0 1-.26-5.13c.18-2.58.39-6 .39-9.44a64.94 64.94 0 0 1 .58-9.86C69.21 9.32 70 6 68.59 3a2.32 2.32 0 0 0-.48-1.33c-.75-1-2-1.27-3.82-1.27-.93 0-2 .07-3.21.17-.63.05-1.47.11-1.9.11H36.1c-2.66 0-5.4-.1-8-.2S22.59.26 19.82.26c-1.67 0-3.33 0-5 .14-1 .06-2 .08-3 .08H1.15L1 2.17a23.42 23.42 0 0 0 0 3.59 14.55 14.55 0 0 1 0 1.85c0 .31-.05.62-.06.93a58.77 58.77 0 0 0 0 6.9c.09 1.15.28 2.25.46 3.31a18.43 18.43 0 0 1 .42 4.37l-.22 3.29C1 35.58.32 45.06.91 54.47L1 55.74a17 17 0 0 1 0 4.79c-.07.36-.15.71-.23 1.06a16.35 16.35 0 0 0-.56 5.08l.12 1.38c0 .26 2 .35 4.49.35 2.28 0 5-.07 7.25-.14zM8 61.3a25.05 25.05 0 0 0 0-6.11V54c-.56-9 .06-18.2.67-27.15l.22-3.3a24.79 24.79 0 0 0-.51-6.06c-.16-.92-.31-1.8-.37-2.6A51.24 51.24 0 0 1 8 8.85V8.1v-.62H11.76c1.17 0 2.37 0 3.42-.09 1.4-.08 2.9-.12 4.57-.12 2.62 0 5.31.1 7.92.2h.05c2.7.1 5.5.21 8.31.21h23.15c.65 0 1.45-.06 2.45-.14l.69-.05c-.07.79-.23 1.73-.37 2.56-.07.42-.14.83-.2 1.23a71.11 71.11 0 0 0-.66 11c0 3.24-.21 6.47-.38 8.93a34.91 34.91 0 0 0 .29 6.46 27.35 27.35 0 0 1 .25 4.33 41.19 41.19 0 0 0 .46 9.6 17.28 17.28 0 0 1-.05 4c-.08 1-.18 2.22-.18 3.44a15.24 15.24 0 0 0 .4 3.27c-.68 0-1.37-.06-2.05-.06-1.66 0-3.39-.1-5.08-.2-1.38-.08-2.81-.16-4.29-.2h-1c-1.55 0-3.05.07-4.51.14s-2.68.13-4 .13a25.7 25.7 0 0 1-3-.15A138.92 138.92 0 0 0 21 61h-6.49l-2.64.09z"/></svg>
