<svg data-name="WORKING WITH CHILDREN" xmlns="http://www.w3.org/2000/svg" viewBox="0 0 137.39 68.85"><path fill="currentColor" d="M42.53 10.41v3.27c0 3.56 0 7.17-.09 10.72s-.2 7.19-.42 10.75-.54 7.17-1 10.71-1 7.16-1.64 10.72l-.61 3 .25.51q.34.7.69 1.48c.25.54.46 1 .64 1.49a3.89 3.89 0 0 1 .37 1.43 2.48 2.48 0 0 1-1.13 2.13 4.92 4.92 0 0 1-1.54.67 8.85 8.85 0 0 1-1.54.24 16.05 16.05 0 0 1-2.15 0 4.59 4.59 0 0 1-1.23-.23 4.39 4.39 0 0 1-1.94-1.2 10.87 10.87 0 0 1-1-1.53 62.69 62.69 0 0 1-3.32-7.46c-.93-2.52-1.76-5.13-2.47-7.76-.62-2.28-1.18-4.59-1.69-6.88-1 6.49-2.22 13-3.74 19.34l.63 1.21a5.43 5.43 0 0 1 .68 2.57 2.69 2.69 0 0 1-.9 2.08 3.64 3.64 0 0 1-1.66.83 8.37 8.37 0 0 1-1.5.19H15.3a2.67 2.67 0 0 1-.83.12 4.7 4.7 0 0 1-3.51-1.37 8.27 8.27 0 0 1-1.77-2.68 84 84 0 0 1-2.78-8.64c-.8-3-1.5-6.1-2.08-9.18s-1.1-6.19-1.52-9.26-.79-6.07-1.08-8.93c-.41-3.46-.8-6.93-1.18-10.38A97.49 97.49 0 0 1-.03 7.73 4.52 4.52 0 0 1 .4 5.61 2.69 2.69 0 0 1 3.05 4.3 6.58 6.58 0 0 1 6.3 5a4.88 4.88 0 0 1 1.95 2 7.37 7.37 0 0 1 .78 2.5c.11.79.19 1.65.25 2.56.58 6.41 1.3 12.91 2.14 19.29.51 3.84 1.15 7.69 1.93 11.52q.32-2.29.55-4.57.66-6.17 1.29-12.31c.08-1 .14-2.09.17-3.18s.08-2.25.16-3.41.18-2.29.31-3.43a20.19 20.19 0 0 1 .73-3.51 5.68 5.68 0 0 1 1.73-2.85 5.07 5.07 0 0 1 3.38-1.1 5.13 5.13 0 0 1 3.25 1 6 6 0 0 1 1.72 2.19 9.35 9.35 0 0 1 .76 2.64q.18 1.25.31 2.36A193.076 193.076 0 0 0 32.28 40q.21-2.8.3-5.58c.14-4.47.22-9 .22-13.59q0-3.89-.07-7.82a75.42 75.42 0 0 0-.54-7.83V5a2.61 2.61 0 0 0-.05-.56 5.43 5.43 0 0 1-.12-1.2A3 3 0 0 1 33.19.7a4.92 4.92 0 0 1 3.82-.58 13 13 0 0 1 1.54.35 8.64 8.64 0 0 1 1.54.61 4.39 4.39 0 0 1 1.42 1.14 3.37 3.37 0 0 1 .6 1.68q.12.79.21 1.89t.14 2.31q.04 1.2.07 2.31zM92.78 8.1q0-1.22-.14-2.31c-.06-.74-.13-1.37-.21-1.89a3.37 3.37 0 0 0-.6-1.68 4.42 4.42 0 0 0-1.42-1.14 8.62 8.62 0 0 0-1.54-.61 12.9 12.9 0 0 0-1.54-.35 4.93 4.93 0 0 0-3.82.58 3 3 0 0 0-1.18 2.55 5.43 5.43 0 0 0 .12 1.2 2.61 2.61 0 0 1 .05.56v.18a75.79 75.79 0 0 1 .54 7.74q.07 3.93.07 7.82c0 4.55-.07 9.12-.22 13.59q-.09 2.77-.29 5.58c-.67-2.58-1.29-5.16-1.85-7.74-1.11-5.11-2-10.35-2.72-15.56q-.13-1.11-.31-2.36a9.35 9.35 0 0 0-.76-2.64 6 6 0 0 0-1.77-2.14 5.81 5.81 0 0 0-6.64.12 5.68 5.68 0 0 0-1.73 2.85 20.14 20.14 0 0 0-.69 3.48c-.14 1.14-.24 2.29-.31 3.43s-.13 2.31-.16 3.41-.09 2.18-.17 3.18q-.62 6.18-1.3 12.29-.24 2.28-.55 4.57c-.78-3.82-1.42-7.68-1.93-11.52-.8-6.36-1.52-12.89-2.09-19.28-.06-.91-.15-1.77-.25-2.56a7.31 7.31 0 0 0-.78-2.52 4.87 4.87 0 0 0-1.95-2 6.58 6.58 0 0 0-3.25-.7 2.69 2.69 0 0 0-2.64 1.31 4.52 4.52 0 0 0-.43 2.12 97.74 97.74 0 0 0 .58 10.64c.38 3.45.78 6.92 1.18 10.38.29 2.86.66 5.87 1.08 8.93s.94 6.19 1.53 9.26 1.29 6.17 2.08 9.18a84 84 0 0 0 2.78 8.64 8.27 8.27 0 0 0 1.74 2.73 4.7 4.7 0 0 0 3.51 1.37 2.71 2.71 0 0 0 .83-.12H66.55a8.36 8.36 0 0 0 1.5-.19 3.64 3.64 0 0 0 1.66-.83 2.7 2.7 0 0 0 .9-2.08 5.44 5.44 0 0 0-.68-2.57l-.63-1.21c1.49-6.34 2.74-12.86 3.71-19.31.5 2.29 1.07 4.6 1.69 6.88.7 2.57 1.49 5.22 2.49 7.75a62.87 62.87 0 0 0 3.31 7.46 10.94 10.94 0 0 0 1 1.54 4.39 4.39 0 0 0 2.05 1.27 4.58 4.58 0 0 0 1.23.23 15.9 15.9 0 0 0 2.15 0 8.85 8.85 0 0 0 1.54-.24 4.93 4.93 0 0 0 1.54-.67 2.48 2.48 0 0 0 1.13-2.12 3.89 3.89 0 0 0-.37-1.43c-.18-.46-.4-1-.64-1.49s-.47-1-.69-1.48l-.25-.51.61-3c.67-3.55 1.22-7.15 1.64-10.72s.73-7.16.95-10.71.36-7.14.42-10.75.09-7.22.09-10.72v-1.35-2q0-1.11-.13-2.31zm43.72 41.66a6.4 6.4 0 0 0-1.69-1.38 8.68 8.68 0 0 0-2-.82 5.06 5.06 0 0 0-3.34 0 2.7 2.7 0 0 0-1.11.87 3.46 3.46 0 0 0-.54 1.07l-.26.86a29.52 29.52 0 0 1-1 3.15 14.62 14.62 0 0 1-1.55 3 7.93 7.93 0 0 1-2.08 2.11 4.28 4.28 0 0 1-2.49.73 3.9 3.9 0 0 1-2.41-.8 9.32 9.32 0 0 1-2.25-2.62 21.2 21.2 0 0 1-1.92-4 44 44 0 0 1-1.48-5c-.41-1.74-.77-3.54-1.05-5.35s-.51-3.56-.67-5.19-.28-3.16-.35-4.52-.11-2.47-.11-3.32a39.84 39.84 0 0 1 .72-7.5 24 24 0 0 1 2.42-6.84 22.67 22.67 0 0 1 1.5-2.28 12.16 12.16 0 0 1 1.79-1.93 8.39 8.39 0 0 1 2.08-1.32 5.48 5.48 0 0 1 2.26-.46 3.23 3.23 0 0 1 1.64.31 2.84 2.84 0 0 1 .93.86 8.14 8.14 0 0 1 .76 1.44 9.59 9.59 0 0 0 1.12 2 6.27 6.27 0 0 0 1.93 1.73 6.39 6.39 0 0 0 3.28.73 3 3 0 0 0 2.35-.9 3.17 3.17 0 0 0 .73-2.18 11.59 11.59 0 0 0-1-4.93 11.36 11.36 0 0 0-2.83-3.79 12.84 12.84 0 0 0-4.09-2.38 15.57 15.57 0 0 0-7.33-.67 11.42 11.42 0 0 0-2.47.61 18.14 18.14 0 0 0-5.52 2.92 20.61 20.61 0 0 0-4 4.23 24.78 24.78 0 0 0-2.8 5.13 35.48 35.48 0 0 0-1.74 5.63 44.74 44.74 0 0 0-.88 5.83c-.16 1.93-.25 3.83-.25 5.65a74.78 74.78 0 0 0 .58 9.29 90.54 90.54 0 0 0 1.65 9.2 45.45 45.45 0 0 0 2 6.44 25.12 25.12 0 0 0 3.29 6 17 17 0 0 0 5 4.49 13.9 13.9 0 0 0 7.17 1.79 15.67 15.67 0 0 0 10.25-3.63 18.25 18.25 0 0 0 3.54-4 25.93 25.93 0 0 0 2.53-4.95q.23-.64.43-1.31a5.85 5.85 0 0 0 .26-1.74 3.55 3.55 0 0 0-1-2.26z"/></svg>
