<svg xmlns="http://www.w3.org/2000/svg" viewBox="203 205 700 705" fill="#4d4dff">
    <defs/>
    <path d="M402.28 538.25q0-30.68.39-61.08t1.17-61.08q8.24 23.75 15.47 47.37t15.63 47.37q1.55 4.52 3.19 9.83t3.5 10.6q1.87 5.3 4.2 10.32a46.31 46.31 0 0 0 5.29 8.84 17.73 17.73 0 0 0 4.74 4.59 12.49 12.49 0 0 0 6.76 1.63 12.13 12.13 0 0 0 5.6-1.13 9.52 9.52 0 0 0 3.5-3 12.25 12.25 0 0 0 1.87-4.38 23.4 23.4 0 0 0 .54-5q0-18.95-.7-37.68t-1.17-37.54q-.47-18.95-1.09-37.61t-2-37.61q-.47-7.49-1-15.2t-1.48-15.34a33.83 33.83 0 0 0-2-7.28 10.85 10.85 0 0 0-3.58-4.59 14.71 14.71 0 0 0-5.75-2.4 41.35 41.35 0 0 0-8.24-.71 11.24 11.24 0 0 0-5 1.06 4.05 4.05 0 0 0-2.18 4 62.57 62.57 0 0 0 1 11.31q1 5.52 1.79 11.31 3 26.59 4 53.24t1.94 53.37q-6.06-18-12-35.63t-12-35.35q-4.2-12.16-8.63-24.18a151.38 151.38 0 0 0-11-23.33 10.43 10.43 0 0 0-1.63-5.87 13.14 13.14 0 0 0-4.2-4 20.27 20.27 0 0 0-5.83-2.33 27.6 27.6 0 0 0-6.38-.78q-4.51 0-5.83 2.19a10.37 10.37 0 0 0-1.32 5.44v20.08q0 39.45-.16 78.47-.12 29.48-.14 59.41a49 49 0 0 0-27.8-3.87 48.86 48.86 0 0 0-7.15 1.7 50.59 50.59 0 0 0-16.87 8.41 61.21 61.21 0 0 0-12.52 13 74.35 74.35 0 0 0-8.71 16.19 120.57 120.57 0 0 0-5.44 18 150.25 150.25 0 0 0-2.88 18.24q-.86 9-.86 17 0 6.79.54 15.34t1.87 18q1.32 9.47 3.58 19.37A153.5 153.5 0 0 0 309 676a106 106 0 0 0 8.24 17.39 67.44 67.44 0 0 0 11.2 14.28 48.87 48.87 0 0 0 14.46 9.69 45 45 0 0 0 18.2 3.53 53.34 53.34 0 0 0 23.17-4.95 58.44 58.44 0 0 0 33.44-52.74 48.61 48.61 0 0 0-5-21.35 61.74 61.74 0 0 0-13.37-18.24q3.73-.14 7.39-.43a20.58 20.58 0 0 0 6.61-1.55 11.2 11.2 0 0 0 4.74-3.75q1.79-2.47 1.79-7 0-3.67-1.87-5.23a8.59 8.59 0 0 0-5.6-1.55 32.93 32.93 0 0 0-5.36.42q-2.57.42-5.21.71-7.47.85-15.09 1.34t-15.4.92a69.68 69.68 0 0 0-9.25-2.76 43.59 43.59 0 0 0-9.72-1.2 10.73 10.73 0 0 0-5.52 1.41 16.13 16.13 0 0 0-4.2 3.54 15.07 15.07 0 0 0-2.65 4.82 15.92 15.92 0 0 0-.93 5.23q0 1.84 3 2.76a36.36 36.36 0 0 0 6.69 1.34q3.73.42 7.31.63t4.82.36q2.33.71 4.59 1.63a29.19 29.19 0 0 1 4.12 2 43.77 43.77 0 0 1 9.64 7 49.12 49.12 0 0 1 7.47 9 43.43 43.43 0 0 1 4.82 10.32 36.4 36.4 0 0 1 1.71 11 40.74 40.74 0 0 1-2.24 12.57 47.1 47.1 0 0 1-6.3 12.59 37.06 37.06 0 0 1-10 9.76 23.52 23.52 0 0 1-13.22 3.89 20.5 20.5 0 0 1-14.7-6.08 53.55 53.55 0 0 1-10.89-15.69 117.73 117.73 0 0 1-7.62-21.42q-3-11.8-4.82-23.26t-2.57-21.21q-.78-9.76-.78-15.27a125.45 125.45 0 0 1 .78-12.73 152.13 152.13 0 0 1 2.49-15.62 119.46 119.46 0 0 1 4.63-16.28 66.14 66.14 0 0 1 7.31-14.56 37.83 37.83 0 0 1 10.26-10.39 24 24 0 0 1 13.69-4 17.74 17.74 0 0 1 8.71 1.84 18.76 18.76 0 0 1 5.44 4.52 40.34 40.34 0 0 1 4 5.94 33.69 33.69 0 0 0 4.12 5.94 20 20 0 0 0 5.75 4.52 19 19 0 0 0 9 1.84 12.57 12.57 0 0 0 4.2-.71 3.05 3.05 0 0 0 2-3.25 14.36 14.36 0 0 0-.6-4.1 15.45 15.45 0 0 0 .24-1.68q.15-1.93.16-3.48zm113.13 16.25a32.31 32.31 0 0 0 8-6.15 48.54 48.54 0 0 0 6.3-8.2 80.11 80.11 0 0 0 4.59-8.55 12.57 12.57 0 0 0 .62 2.69 12.49 12.49 0 0 1 .62 2.54q.31 2 .78 4t.93 4a22.26 22.26 0 0 0 4.74 9.33q3.19 3.53 10.5 3.53a7.68 7.68 0 0 0 4.36-1.06c1-.71 1.55-2 1.55-3.89a14.75 14.75 0 0 0-.39-3.54q-.39-1.55-.7-3.39l-.47-2.4-3.73-20.93q-.62-4.25-1.24-9.26t-1.24-10.39q-.78-5.23-1.32-10.46T548 483.1l-1.09-5.23q-.62-2.4-1.17-4.67a16.38 16.38 0 0 1-.54-3.68v-2.82a20 20 0 0 1 .16-2.69 16.91 16.91 0 0 0 .16-2.26v-2.12a20.13 20.13 0 0 0-.47-4.46 8 8 0 0 0-1.87-3.6 10.89 10.89 0 0 0-3.89-2.62 30.5 30.5 0 0 0-6.53-1.77 14.5 14.5 0 0 0-3.11-4.88 6.81 6.81 0 0 0-5.13-2.33 7 7 0 0 0-5.36 2.47q-2.26 2.48-4 4.59l-.93 1.27v-.14a104.68 104.68 0 0 0-10.89 18.17 185.07 185.07 0 0 0-8.69 21.67 170.85 170.85 0 0 0-5.83 22.48 114.11 114.11 0 0 0-2.1 20.86 46.25 46.25 0 0 0 .86 8.63 27 27 0 0 0 3 8.27 17.87 17.87 0 0 0 5.83 6.22 16.55 16.55 0 0 0 9.33 2.47 20.05 20.05 0 0 0 9.67-2.43zM508 533.58a161.4 161.4 0 0 1 3.5-32.73 150.72 150.72 0 0 1 4.5-16.55 105.81 105.81 0 0 1 6.3-15.06c.1.47.21.92.31 1.34a4.59 4.59 0 0 1 .16.92q0 5.8-.86 14.63t-2.72 18.24a165.84 165.84 0 0 1-4.59 18 49.74 49.74 0 0 1-6.45 13.79V536a4.21 4.21 0 0 1-.16-1.13zm78.87 25.59a11.82 11.82 0 0 0 5.05-1q2.1-1 2.1-4.24c0-1.22-.08-2.62-.23-4.17s-.34-3-.54-4.45-.41-2.64-.62-3.68a15.67 15.67 0 0 1-.31-1.84q-.63-3.68-1.09-7.21-.47-3-.78-6.29t-.31-5.87a18.14 18.14 0 0 1 .54-4.24q.54-2.26 1.32-4.53l.93-3.11q1.24-4.66 3.5-10.89t5.05-12.8q2.8-6.57 5.91-12.66a96 96 0 0 1 6.22-10.6q-.31 3-.47 4.81t-.47 4.81q-.62 5.8-1.17 11.45t-.5 11.75q0 6.79.47 13.93t1.17 13.78q.7 6.65 1.48 12.16t1.24 8.91l.47 3.82a43.45 43.45 0 0 0 1.32 7.49 9.83 9.83 0 0 0 4.28 5.94 18.11 18.11 0 0 0 6 1.63 57.93 57.93 0 0 0 6 .35 17.91 17.91 0 0 0 5.36-.85 3.71 3.71 0 0 0 2.72-4 28.19 28.19 0 0 0-.47-4.81q-.47-2.69-1.17-5.59t-1.4-5.65q-.7-2.76-1.32-4.88a59.36 59.36 0 0 1-1.56-7.14q-.78-4.59-1.4-10.32t-.93-12q-.31-6.29-.31-12.23 0-4.95.31-9.76t.78-9.76q.31-4.8.62-9.68t.31-9.69a30.31 30.31 0 0 0-.7-6.65 13.82 13.82 0 0 0-2.49-5.44 11.66 11.66 0 0 0-4.78-3.57 19 19 0 0 0-7.46-1.27 21.42 21.42 0 0 0-9.88 2.26 32.53 32.53 0 0 0-8.08 5.87 47.14 47.14 0 0 0-6.45 7.92q-2.8 4.32-5 8.27a13.43 13.43 0 0 0 .23-1.55c.05-.57.08-1.08.08-1.56q.31-2.54.47-5.44t.16-5.3a10.07 10.07 0 0 0-1-4.38 11 11 0 0 0-2.72-3.61 14.23 14.23 0 0 0-4-2.4 12.47 12.47 0 0 0-4.74-.92 5.7 5.7 0 0 0-3.5 1 6.55 6.55 0 0 0-2 2.47 12.76 12.76 0 0 0-1 3.32q-.31 1.84-.47 3.39a3.61 3.61 0 0 1-.16.85 3.79 3.79 0 0 0-.16 1Q570.07 462.18 569 475t-1.09 24.67V517q0 8.63.31 16.76a78.89 78.89 0 0 0 2.49 16.61 9.11 9.11 0 0 0 2.25 4.38 12.06 12.06 0 0 0 3.89 2.69 18.18 18.18 0 0 0 4.82 1.34 38.38 38.38 0 0 0 5.2.39zm89.89-47.51l.93-3.11q1.24-4.66 3.5-10.89t5.05-12.8q2.8-6.57 5.91-12.66a96 96 0 0 1 6.22-10.6q-.31 3-.47 4.81t-.47 4.81q-.62 5.8-1.17 11.45t-.54 11.74q0 6.79.47 13.93t1.17 13.78q.7 6.65 1.48 12.16t1.24 8.91l.47 3.82a43.45 43.45 0 0 0 1.32 7.49 9.83 9.83 0 0 0 4.28 5.94 18.11 18.11 0 0 0 6 1.63 57.93 57.93 0 0 0 6 .35 17.91 17.91 0 0 0 5.36-.85 3.71 3.71 0 0 0 2.72-4 28.19 28.19 0 0 0-.47-4.81q-.47-2.69-1.17-5.59t-1.4-5.65q-.7-2.76-1.32-4.88a59.36 59.36 0 0 1-1.56-7.14q-.78-4.59-1.4-10.32t-.93-12q-.31-6.29-.31-12.23 0-4.95.31-9.76t.78-9.76q.31-4.8.62-9.68t.31-9.69a30.31 30.31 0 0 0-.7-6.65 13.82 13.82 0 0 0-2.49-5.44 11.66 11.66 0 0 0-4.74-3.61 19 19 0 0 0-7.46-1.27 21.42 21.42 0 0 0-9.88 2.26 32.53 32.53 0 0 0-8.08 5.87 47.14 47.14 0 0 0-6.45 7.92q-2.8 4.32-5 8.27a13.43 13.43 0 0 0 .23-1.55c.05-.57.08-1.08.08-1.56q.31-2.54.47-5.44t.16-5.3a10.07 10.07 0 0 0-1-4.38 11 11 0 0 0-2.72-3.61 14.23 14.23 0 0 0-4-2.4 12.47 12.47 0 0 0-4.74-.92 5.7 5.7 0 0 0-3.5 1 6.55 6.55 0 0 0-2 2.47 12.76 12.76 0 0 0-1 3.32q-.31 1.84-.47 3.39a3.61 3.61 0 0 1-.16.85 3.79 3.79 0 0 0-.16 1q-1.25 11.88-2.33 24.67t-1.09 24.67V517q0 8.63.31 16.76a78.89 78.89 0 0 0 2.49 16.61 9.11 9.11 0 0 0 2.25 4.38 12.06 12.06 0 0 0 3.89 2.69 18.18 18.18 0 0 0 4.82 1.34 38.38 38.38 0 0 0 5.21.35 11.82 11.82 0 0 0 5.05-1q2.1-1 2.1-4.24c0-1.22-.08-2.62-.23-4.17s-.34-3-.54-4.45-.41-2.64-.62-3.68a15.67 15.67 0 0 1-.31-1.84q-.63-3.68-1.09-7.21-.47-3-.78-6.29t-.31-5.87a18.14 18.14 0 0 1 .54-4.24q.56-2.21 1.32-4.48z"/>
    <path d="M482.22 620.51a16.52 16.52 0 0 0-.16 2.26V625a7.14 7.14 0 0 0 1.87 4.45 14.59 14.59 0 0 0 4.12 3.18 21.05 21.05 0 0 0 5.21 1.91 24 24 0 0 0 5.29.63 6.74 6.74 0 0 0 3.65-.85 4.68 4.68 0 0 0 1.87-2.19 9.08 9.08 0 0 0 .62-3q.08-1.63.08-3.32v-1.13q0-4.1-.16-9.12a31.61 31.61 0 0 0-1.71-9.48 17.11 17.11 0 0 0-5-7.42q-3.42-3-10-3a20 20 0 0 0-9.33 2.26 40.28 40.28 0 0 0-8.24 5.73 65.79 65.79 0 0 0-7.23 7.56q-3.34 4.11-6 7.78-.16-2.68-.54-6.15a16 16 0 0 0-1.17-5h.16a10.42 10.42 0 0 0-5.52-4.81 19.18 19.18 0 0 0-7.54-1.7q-4 0-4.9 1.91a12 12 0 0 0-.86 4.88v6.15q0 3.32.16 6 0 3.11.08 6.15t.08 6q0 5.09-.16 11.17t-.39 12.37q-.23 6.29-.54 12.37t-.78 11.17l-.93 9.47v-.14q-.47 3.82-.86 7.71t-.39 7.85a6.82 6.82 0 0 0 1.63 4.59 13.62 13.62 0 0 0 4 3.18 19.33 19.33 0 0 0 5.13 1.84 25.05 25.05 0 0 0 5.05.57q3.42 0 4.9-1.48a6.86 6.86 0 0 0 1.79-4.17q.62-4.94.86-10.18t.39-10.32l.31-8.77q.15-4.25.62-8.62v-.43q1.55-6.08 3.73-13.64a153 153 0 0 1 5.33-14.96 114.84 114.84 0 0 1 6.84-14.14 45.53 45.53 0 0 1 8.79-11.17c0 .66 0 1.34-.08 2.05s-.07 1.26-.07 1.77zM509.77 706a17.87 17.87 0 0 0 5.83 6.22 16.55 16.55 0 0 0 9.33 2.47 20.05 20.05 0 0 0 9.72-2.4 32.31 32.31 0 0 0 8-6.15 48.54 48.54 0 0 0 6.3-8.2 80.11 80.11 0 0 0 4.59-8.55 12.57 12.57 0 0 0 .62 2.69 12.49 12.49 0 0 1 .62 2.54q.31 2 .78 4t.93 4a22.26 22.26 0 0 0 4.74 9.33q3.19 3.53 10.5 3.53a7.68 7.68 0 0 0 4.36-1.06c1-.71 1.55-2 1.55-3.89a14.75 14.75 0 0 0-.39-3.54q-.39-1.55-.7-3.39l-.47-2.4-3.73-20.93q-.62-4.25-1.24-9.26t-1.24-10.39q-.78-5.23-1.32-10.46t-1.32-9.33l-1.09-5.23q-.62-2.4-1.17-4.67a16.38 16.38 0 0 1-.54-3.68v-2.83a20 20 0 0 1 .16-2.69 16.91 16.91 0 0 0 .16-2.26v-2.07a20.13 20.13 0 0 0-.47-4.46 8 8 0 0 0-1.87-3.6 10.89 10.89 0 0 0-3.89-2.62A30.5 30.5 0 0 0 552 605a14.5 14.5 0 0 0-3.11-4.88 6.81 6.81 0 0 0-5.13-2.33 7 7 0 0 0-5.36 2.47q-2.26 2.48-4 4.59l-.93 1.27v-.14a104.68 104.68 0 0 0-10.89 18.17 185.07 185.07 0 0 0-8.71 21.63 170.85 170.85 0 0 0-5.83 22.48 114.11 114.11 0 0 0-2.1 20.86 46.25 46.25 0 0 0 .86 8.63 27 27 0 0 0 2.97 8.25zm17.5-14.63a161.4 161.4 0 0 1 3.5-32.73 150.72 150.72 0 0 1 4.51-16.54 105.81 105.81 0 0 1 6.3-15.06c.1.47.21.92.31 1.34a4.59 4.59 0 0 1 .16.92q0 5.8-.86 14.63t-2.72 18.24a165.84 165.84 0 0 1-4.59 18 49.74 49.74 0 0 1-6.45 13.79v-.14a4.21 4.21 0 0 1-.16-1.13zM636.38 629q-.62 5.8-1.17 11.45t-.54 11.74q0 6.79.47 13.93t1.17 13.78q.7 6.65 1.48 12.16T639 701l.47 3.82a43.45 43.45 0 0 0 1.32 7.49 9.83 9.83 0 0 0 4.28 5.94 18.11 18.11 0 0 0 6 1.63 57.93 57.93 0 0 0 6 .35 17.91 17.91 0 0 0 5.36-.85 3.71 3.71 0 0 0 2.72-4 28.19 28.19 0 0 0-.47-4.81q-.47-2.69-1.17-5.59t-1.4-5.65q-.7-2.76-1.32-4.88a59.36 59.36 0 0 1-1.56-7.14q-.78-4.59-1.4-10.32t-.93-12q-.31-6.29-.31-12.23 0-4.95.31-9.76t.78-9.76q.31-4.8.62-9.68t.31-9.69a30.31 30.31 0 0 0-.7-6.65 13.82 13.82 0 0 0-2.49-5.44 11.66 11.66 0 0 0-4.74-3.61 19 19 0 0 0-7.46-1.27 21.42 21.42 0 0 0-9.88 2.26 32.53 32.53 0 0 0-8.08 5.87 47.14 47.14 0 0 0-6.45 7.92q-2.8 4.32-5 8.27a13.43 13.43 0 0 0 .23-1.55c.05-.57.08-1.08.08-1.56q.31-2.54.47-5.44t.16-5.3a10.07 10.07 0 0 0-1-4.38 11 11 0 0 0-2.72-3.61 14.23 14.23 0 0 0-4-2.4 12.47 12.47 0 0 0-4.74-.92 5.7 5.7 0 0 0-3.5 1 6.55 6.55 0 0 0-2 2.47 12.76 12.76 0 0 0-1 3.32q-.31 1.84-.47 3.39a3.61 3.61 0 0 1-.16.85 3.79 3.79 0 0 0-.16 1q-1.25 11.88-2.33 24.67t-1.09 24.67v17.37q0 8.63.31 16.76a78.89 78.89 0 0 0 2.49 16.61 9.11 9.11 0 0 0 2.25 4.38 12.06 12.06 0 0 0 3.89 2.69 18.18 18.18 0 0 0 4.82 1.34 38.38 38.38 0 0 0 5.21.35 11.82 11.82 0 0 0 5.05-1q2.1-1 2.1-4.24c0-1.22-.08-2.62-.23-4.17s-.34-3-.54-4.45-.41-2.64-.62-3.68a15.67 15.67 0 0 1-.31-1.84q-.63-3.68-1.09-7.21-.47-3-.78-6.29t-.31-5.87a18.14 18.14 0 0 1 .54-4.24q.54-2.26 1.32-4.53l.93-3.11q1.24-4.66 3.5-10.89t5.05-12.8q2.8-6.57 5.91-12.66a96 96 0 0 1 6.22-10.6q-.31 3-.47 4.81t-.44 4.84z"/>
    <path d="M853 401.06c-4.09-8.85-8.62-17.55-13.49-25.93-52.65-89-149.19-150-258.25-163.08-100.86-12.12-196.36 19.54-261.87 86.73-5.6 5.62-11 11.51-16 17.53-7 7.8-13.66 16-19.87 24.46-5.72 7.77-11.18 15.9-16.23 24.17-.13.21-.25.43-.37.65-53.83 102.77-70.56 219.77-44.73 313a11.79 11.79 0 0 0 .41 1.22 352.19 352.19 0 0 0 13.75 29.77c46.35 89.11 129.32 157.09 222 181.88 4.36 1.34 44.2 13.09 99.89 13.09 40.51 0 89.4-6.22 139.11-27.18a11.25 11.25 0 0 0-8.75-20.74c-111.75 47.13-222.68 13.62-223.78 13.28l-.46-.13c-86.75-23.14-164.52-86.91-208-170.58-4.62-8.88-8.86-18-12.62-27.24-24.06-87.64-8-198 43-295.57 4.66-7.61 9.69-15.09 15-22.24 5.82-7.91 12.1-15.63 18.64-22.94l.25-.29c4.65-5.56 9.63-11 14.9-16.3 60.67-62.22 149.29-91.44 243.18-80.19C680.74 246.65 771 303.54 820.1 386.51c4.48 7.71 8.68 15.79 12.48 24 19.38 42 41.33 172.09 39.74 219.21a10.26 10.26 0 0 1-.07 5.55c-.93 29.32-12 63.23-26.93 82.45l-.7.9c-3.72 4.8-9.06 11.68-14.84 18l.06-4.34h.78c.22-3.53.36-7 .36-10.22q0-9-.16-18c-.09-5.43-.25-10.89-.42-16.36l.64-51c.19-2.09.37-4.39.56-7q.31-4.31.54-8.84t.31-8.69q.08-4.17.08-7.42a9.79 9.79 0 0 0-.86-4.38 7.48 7.48 0 0 0-2.33-2.76 13.87 13.87 0 0 0-3.5-1.77q-2-.7-4.2-1.41a3.6 3.6 0 0 1-.7-.07 4.16 4.16 0 0 0-.7-.07c-.62-.19-1.37-.38-2.25-.56a11.6 11.6 0 0 0-2.41-.28 6 6 0 0 0-3.5.85 5.53 5.53 0 0 0-1.79 2.19 7.89 7.89 0 0 0-.7 3q-.08 1.63-.08 3c0 3.3 0 7.1-.06 11.33a11 11 0 0 0-.69 3.56l-.3 24.19q-.26 4.17-.58 8.43-.7 9-2 17.6a145.57 145.57 0 0 1-3.34 16 68.43 68.43 0 0 1-4.82 12.94 32.34 32.34 0 0 1-3.11-8.2q-1.25-4.95-2.18-10.89T791 665q-.47-6.36-.78-12.3t-.39-11q-.08-5-.08-8.41v-18.86c0-1.1 0-2.1-.09-3a67.19 67.19 0 0 0 3.71-9.52 104.81 104.81 0 0 0 3-12.66q1.09-6.43 1.55-12.79t.47-12.16q0-9-.16-18t-.47-18-.47-18-.16-18q0-1.7.16-3.68t.47-4l.62-4.95q.31-3.39.62-7.71t.54-8.84q.23-4.52.31-8.69t.08-7.42a9.79 9.79 0 0 0-.86-4.38 7.48 7.48 0 0 0-2.33-2.76 13.87 13.87 0 0 0-3.5-1.77q-2-.7-4.2-1.41a3.6 3.6 0 0 1-.7-.07 4.16 4.16 0 0 0-.7-.07c-.62-.19-1.37-.38-2.25-.56a11.6 11.6 0 0 0-2.41-.28 6 6 0 0 0-3.5.85 5.53 5.53 0 0 0-1.79 2.19 7.89 7.89 0 0 0-.7 3q-.08 1.63-.08 3 0 5.8-.08 13.51t-.47 16.33q-.39 8.63-1.09 17.68t-2 17.6a145.57 145.57 0 0 1-3.34 16 68.43 68.43 0 0 1-4.82 12.94 32.34 32.34 0 0 1-3.11-8.2q-1.25-4.95-2.18-10.89t-1.4-12.3q-.47-6.36-.78-12.3t-.39-11q-.08-5-.08-8.41v-19.05a46 46 0 0 0-.23-4.95 10.54 10.54 0 0 0-1.09-3.75 8.08 8.08 0 0 0-2.57-2.83 21.87 21.87 0 0 0-4.66-2.33 24.21 24.21 0 0 0-2.41-.42 20.3 20.3 0 0 0-2.41-.14 5.89 5.89 0 0 0-3.81 1 6.39 6.39 0 0 0-1.79 3.25 16.44 16.44 0 0 0-.31 3.25v5.52q-.47 7.21-.54 14.42t-.08 14.71v5.94q0 5.52.23 12.59t1.09 14.49a113.5 113.5 0 0 0 2.63 14.59 49.92 49.92 0 0 0 5 12.72 28.39 28.39 0 0 0 7.93 9 19.1 19.1 0 0 0 11.58 3.47 19.49 19.49 0 0 0 11.35-3.82q.16 2.12.16 3.11v6.65q0 9.19-.78 18.24a64.87 64.87 0 0 1-3.81 17.18 48.21 48.21 0 0 1-8.87 14.85q-5.83 6.71-15.94 11.24v-.14l-.38.15.07-1.09q.31-4.88.31-9.69a30.31 30.31 0 0 0-.7-6.65 13.82 13.82 0 0 0-2.49-5.44 11.66 11.66 0 0 0-4.74-3.61 19 19 0 0 0-7.46-1.27 21.42 21.42 0 0 0-9.88 2.26 32.53 32.53 0 0 0-8.08 5.87 47.14 47.14 0 0 0-6.45 7.92q-2.8 4.32-5 8.27a13.43 13.43 0 0 0 .23-1.55c.05-.57.08-1.08.08-1.56q.31-2.54.47-5.44t.16-5.3a10.07 10.07 0 0 0-1-4.38 11 11 0 0 0-2.72-3.61 14.23 14.23 0 0 0-4-2.4 12.47 12.47 0 0 0-4.74-.92 5.7 5.7 0 0 0-3.5 1 6.55 6.55 0 0 0-2 2.47 12.76 12.76 0 0 0-1 3.32q-.31 1.84-.47 3.39a3.61 3.61 0 0 1-.16.85 3.79 3.79 0 0 0-.16 1q-1.25 11.88-2.33 24.67t-1.09 24.67v17.37q0 8.63.31 16.76a78.89 78.89 0 0 0 2.49 16.61 9.11 9.11 0 0 0 2.25 4.38 12.06 12.06 0 0 0 3.89 2.69 18.18 18.18 0 0 0 4.82 1.34 38.38 38.38 0 0 0 5.21.35 11.82 11.82 0 0 0 5.05-1q2.1-1 2.1-4.24c0-1.22-.08-2.62-.23-4.17s-.34-3-.54-4.45-.41-2.64-.62-3.68a15.67 15.67 0 0 1-.31-1.84q-.63-3.68-1.09-7.21-.47-3-.78-6.29t-.36-5.85a18.14 18.14 0 0 1 .54-4.24q.54-2.26 1.32-4.53l.93-3.11q1.24-4.66 3.5-10.89t5.05-12.8q2.8-6.57 5.91-12.66a96 96 0 0 1 6.22-10.6q-.31 3-.47 4.81t-.47 4.81q-.62 5.8-1.17 11.45t-.54 11.74q0 6.79.47 13.93t1.17 13.78q.7 6.65 1.48 12.16t1.24 8.91l.47 3.82a43.45 43.45 0 0 0 1.32 7.49 9.83 9.83 0 0 0 4.28 5.94 18.11 18.11 0 0 0 6 1.63 57.93 57.93 0 0 0 6 .35 17.91 17.91 0 0 0 5.36-.85 3.71 3.71 0 0 0 2.72-4 28.19 28.19 0 0 0-.47-4.81q-.47-2.69-1.17-5.59t-1.4-5.65q-.7-2.76-1.32-4.88a59.36 59.36 0 0 1-1.56-7.14q-.78-4.59-1.4-10.32t-.93-12q-.31-6.29-.31-12.23 0-4.89.31-9.65a80.39 80.39 0 0 0 15.39-5.59 74.54 74.54 0 0 0 8.4-4.81c0 3.13-.05 6.24-.05 9.45v5.94q0 5.52.23 12.59t1.09 14.49a113.5 113.5 0 0 0 2.64 14.56 49.92 49.92 0 0 0 5 12.72 28.39 28.39 0 0 0 7.93 9 19.1 19.1 0 0 0 11.61 3.58 18.79 18.79 0 0 0 9.26-2.55l-.31 24.81c0 5.49-.16 10.63-.46 15.45-6.89 1.49-15 1.11-23.51.71-10-.47-20.27-1-30.65 1.3-16.34 3.55-50.35 10.95-45.59 50.74 3.15 26.33 20.35 41.1 47.48 41.1q2.45 0 5-.16c45.89-2.9 63.12-39.57 68.33-78.33 13.65-8.69 26-24.61 34.55-35.62l.69-.89c17.84-23 30.55-61.37 31.64-95.54a10.13 10.13 0 0 1 .07-5.51C896.5 580.57 874 446.5 853 401.06zM758.11 823.9c-22.92 1.46-27.37-9.88-28.71-21.15-1.87-15.66 3.63-20.77 28-26.08a62.58 62.58 0 0 1 13.22-1.18c3.74 0 7.62.18 11.59.37a152.91 152.91 0 0 0 21.6 0c-9.41 45.74-35.81 47.41-45.7 48.04z"/>
    <path fill="none" d="M0 0h1105v1114H0z"/>
</svg>
