<svg id="Layer_1" data-name="Layer 1" xmlns="http://www.w3.org/2000/svg" viewBox="225 225 460 480">
    <defs>
        <style>.cls-2{fill:#4d4dff}</style>
    </defs>
    <path fill="none" d="M0 0h909v931H0z"/>
    <path class="cls-2"
          d="M664.11 546a15.39 15.39 0 0 0-18.49 11.48c-4.2 17.93-16.33 37.56-34.15 55.26-17.16 17-38 30.55-57.2 37.09-57.09 19.4-101.59 22.17-144.27 9.06-40.61-12.5-77.37-36.93-103.51-68.77-27.42-33.4-41.83-72.71-41.68-113.68a233.15 233.15 0 0 1 27.86-109.28c18.63-34.59 45.18-62.46 76.78-80.57 32.81-18.81 72.21-26.6 111-21.95 34.14 4.1 61.2 10.73 90.56 31.09 30.74 21.31 53.64 56.59 62.83 96.8 5.59 24.47 4.92 41.74-2 51.33-10.16 14.12-37.43 16.8-69 19.9-3.71.36-7.48.74-11.29 1.13-1.69-.48-3.3-.9-4.65-1.28-5.84-1.68-12.07-2.73-18.14-1.88h-.22a11.63 11.63 0 0 0-6.41 1.82 18.36 18.36 0 0 0-4.64 4.29 18.86 18.86 0 0 0-3 5.82 21.68 21.68 0 0 0-1 4.74 8.35 8.35 0 0 0 .24 5.31c3 6.93 13.75 7.18 19.89 8.81a177.89 177.89 0 0 0 18.7 3.88q1.13 1 2.2 2.16a52.81 52.81 0 0 1 7.36 9.81 49.45 49.45 0 0 1 4.74 11.17 43 43 0 0 1 1.68 11.81 48.31 48.31 0 0 1-2.15 13.53 53.48 53.48 0 0 1-6.15 13.67 38.2 38.2 0 0 1-9.83 10.45 21 21 0 0 1-12.53 4.05c-5.3 0-9.81-2.06-13.81-6.31a58.93 58.93 0 0 1-10.76-17.08 139 139 0 0 1-7.64-23.66c-2-8.71-3.67-17.39-4.87-25.81s-2.07-16.37-2.59-23.56-.78-12.86-.78-16.92c0-3.84.26-8.57.78-14.05s1.36-11.32 2.5-17.29a143.07 143.07 0 0 1 4.68-17.95 75.72 75.72 0 0 1 7.27-15.93 39.23 39.23 0 0 1 10-11.17 21.41 21.41 0 0 1 13-4.12 15.29 15.29 0 0 1 8 1.83 18.22 18.22 0 0 1 5.1 4.66 44.32 44.32 0 0 1 3.89 6.4 39.69 39.69 0 0 0 4.34 6.88 22.39 22.39 0 0 0 6.25 5.41 19.37 19.37 0 0 0 9.91 2.26 13.27 13.27 0 0 0 4.8-.89c1.37-.53 3-1.83 3-5a19 19 0 0 0-.69-5.05 36.48 36.48 0 0 0-1.61-4.6c-3.55-9.89-9-17.86-16.16-23.69s-16.39-8.85-27.21-8.85a44.11 44.11 0 0 0-7.51.65 47.77 47.77 0 0 0-7.46 1.94 51.4 51.4 0 0 0-17.62 9.67 67.72 67.72 0 0 0-13 14.84 87.71 87.71 0 0 0-9 18.37 146.61 146.61 0 0 0-5.45 20.26 185.89 185.89 0 0 0-3 20.51c-.58 6.73-.87 13.14-.87 19.05 0 5.08.19 10.86.55 17.2s1 13.17 1.9 20.21 2.12 14.35 3.65 21.72a186.38 186.38 0 0 0 5.8 21.54 125.71 125.71 0 0 0 8.46 19.63 76.55 76.55 0 0 0 11.58 16.25 51.27 51.27 0 0 0 15.11 11.13 43.73 43.73 0 0 0 19.1 4.09 51.7 51.7 0 0 0 24.2-5.69 61.27 61.27 0 0 0 18.59-14.87A67.41 67.41 0 0 0 592 554a72.5 72.5 0 0 0 4.19-24.24 60.52 60.52 0 0 0-5.17-24.42 72 72 0 0 0-7.29-12.85c30.42-3.51 57.68-9.4 73-30.68 12.65-17.56 14.87-41.77 7-76.17-10.88-47.61-38.33-89.61-75.3-115.24-34.48-23.9-66.68-31.82-104.43-36.35-45.27-5.44-91.42 3.72-129.94 25.8C281.48 301.52 234.33 386.48 234 476.32c-.18 48.22 16.65 94.32 48.67 133.32 29.93 36.47 71.93 64.4 118.24 78.66a211.93 211.93 0 0 0 63.09 9.43q9.92 0 20.13-.86c24.49-2.06 50.69-7.92 80.08-17.93 45.2-15.38 99.22-62.4 111.41-114.47A15.39 15.39 0 0 0 664.11 546z"/>
    <path class="cls-2"
          d="M397.34 423.35c-2.83-9-5.78-18.09-8.76-27a179.37 179.37 0 0 0-11-25.92 13.87 13.87 0 0 0-1.87-6.94 15.54 15.54 0 0 0-4.71-5 21.09 21.09 0 0 0-6.37-2.8 27.14 27.14 0 0 0-6.85-.92c-3.63 0-6.06 1.08-7.23 3.22a14 14 0 0 0-1.52 6.79v22.4c0 28.74-.05 58.19-.16 87.53-.1 28.66-.16 58.22-.16 87.85 0 5.74 1.55 10.26 4.6 13.42s7.54 4.8 13.3 4.8a6.32 6.32 0 0 0 4.8-1.89 10.3 10.3 0 0 0 2.31-4 19.53 19.53 0 0 0 .86-4.53c.11-1.54.16-2.87.16-4 0-22.79.13-45.7.39-68.12.23-19.47.55-39.26 1-59 4.55 14.72 8.9 29.5 13 44.06 4.87 17.48 10.21 35.28 15.86 52.88 1.06 3.41 2.15 7.08 3.22 10.92s2.3 7.94 3.56 11.88 2.72 7.89 4.31 11.64a54.38 54.38 0 0 0 5.5 10.11 20.46 20.46 0 0 0 5.2 5.53 13.28 13.28 0 0 0 7.72 2.08 12.88 12.88 0 0 0 6.42-1.46 11.54 11.54 0 0 0 4.07-3.89 16 16 0 0 0 2.09-5.39 30.14 30.14 0 0 0 .58-5.89c0-14-.24-28.19-.71-42.08s-.87-27.93-1.18-41.86-.68-27.94-1.1-42c-.42-13.85-1.11-28-2.05-42q-.47-8.36-1-17c-.37-5.77-.88-11.55-1.51-17.26a42.28 42.28 0 0 0-2.13-8.43 13.52 13.52 0 0 0-4.09-5.75 15.82 15.82 0 0 0-6.44-3 40 40 0 0 0-8.69-.83 12 12 0 0 0-5.76 1.36c-1.37.73-3 2.34-3 5.82a78.31 78.31 0 0 0 1 12.86c.67 4 1.28 8.26 1.8 12.52 2 19.64 3.33 39.58 4 59.28.56 16.24 1.1 32.44 1.61 48.31q-4.47-14.59-8.85-29c-4.1-13.11-8.19-26.38-12.22-39.3z"/>
</svg>
