<?xml version="1.0" encoding="utf-8"?>
<!-- Generator: Adobe Illustrator 21.1.0, SVG Export Plug-In . SVG Version: 6.00 Build 0)  -->
<svg version="1.1" xmlns="http://www.w3.org/2000/svg" xmlns:xlink="http://www.w3.org/1999/xlink" x="0px" y="0px"
	 viewBox="0 0 296.8 118.4" style="enable-background:new 0 0 296.8 118.4;" xml:space="preserve">
<style type="text/css">
	.st0{clip-path:url(#SVGID_2_);fill:#039E8B;}
	.st1{fill:none;}
	.st2{fill:#039E8B;}
	.st3{clip-path:url(#SVGID_4_);}
	.st4{clip-path:url(#SVGID_6_);fill:#039E8B;}
	.st5{clip-path:url(#SVGID_8_);fill:#039E8B;}
</style>
<g>
	<rect class="st1" width="296.8" height="118.4"/>
	<path class="st2" d="M279.8,11.4c-0.3,1-0.6,2.7-1.2,4.3c-5.3,13.6-10.8,27-16,40.6c-3.8,10.2-7.2,20.5-10.8,30.7
		c-2.1,5.8-4.4,11.5-6.6,17.3c-0.4,1.1-1,2.3-1.6,3.3c-2.4,4-5.9,4.9-9.9,2.5c-1.8-1.1-2.3-2.9-2.1-4.8c0.1-1.3,0.5-2.7,0.9-4
		c3.5-10.5,6.9-21.1,10.7-31.5c3.5-9.5,7.4-18.8,11.1-28.2c2.5-6.4,5.1-12.8,7.7-19.2c1.4-3.4,2.7-6.9,4.2-10.2
		c1.4-3.2,7.4-6.1,10.7-5.4C279.1,7.4,279.8,8.4,279.8,11.4"/>
	<path class="st2" d="M195.5,11.3c2.2,0.2,4.5,3.4,4,5.8c-0.2,1-0.6,1.9-0.9,2.8c-2.9,7.4-5.6,14.8-8.6,22.1
		c-2.4,5.8-5.1,11.5-7.5,17.3c-3,7.3-5.8,14.7-8.7,22c-2.6,6.7-5.1,13.4-7.6,20.1c-1,2.7-1.1,5.8-3.3,8.1c-1.9,2-2.9,2.6-5.5,1.9
		c-0.3-0.1-0.6-0.4-1-0.5c-1.3-0.3-3.2,0.7-3.8-1.2c-0.5-1.8-1-3.9-0.6-5.6c0.9-4,2-7.9,3.5-11.7c2.2-5.9,4.8-11.6,7.1-17.5
		c6.2-15.2,12.3-30.4,18.5-45.6c1.7-4.1,3.3-8.2,5-12.3C187.4,14.2,192.8,11,195.5,11.3"/>
	<path class="st2" d="M126.9,12.8c4,2.3,4.1,5.3,2.8,8.8c-1.9,5.2-3.6,10.5-5.7,15.6c-4.3,10.8-8.9,21.5-13,32.3
		c-4.1,10.8-7.7,21.8-11.6,32.7c-0.9,2.5-2,5-3.4,7.3c-1.1,1.8-4.7,2.5-6.7,1.6c-1.8-0.8-2.6-2.4-2.7-4.4c-0.4-4.5,0.5-8.9,1.8-13.1
		C92.1,81.5,97,70,101.8,58.3c2.5-6,4.4-12.3,6.8-18.3c2.2-5.5,4.8-10.8,7.2-16.2c0.3-0.6,0.6-1.1,0.7-1.7
		C117.4,16,122,14.2,126.9,12.8"/>
	<path class="st2" d="M51.2,41.7c0.8,2.9-1.4,5-2.3,7.4c-2.3,6.2-4.5,12.5-6.8,18.8C38.6,78,35,88.1,31.4,98.2
		c-1.3,3.6-1.9,7.4-4.2,10.6c-0.9,1.2-1.5,2.8-3.2,2.8c-2-0.1-4.1-0.5-6-1.2c-0.6-0.2-1-1.7-1-2.5c0.1-2.3,0.1-4.8,0.8-7
		c1.6-5.1,3.5-10,5.2-15c1.8-5.3,3.3-10.8,5.3-16.1c3.2-8.8,6.8-17.5,10.1-26.2c1.2-3.2,4.1-4.9,6.5-6.8c1.4-1.1,3.2-1.1,4.9,0
		C51.4,37.7,51.5,37.8,51.2,41.7"/>
</g>
</svg>
