<?xml version="1.0" encoding="utf-8"?>
<!-- Generator: Adobe Illustrator 21.1.0, SVG Export Plug-In . SVG Version: 6.00 Build 0)  -->
<svg version="1.1" xmlns="http://www.w3.org/2000/svg" xmlns:xlink="http://www.w3.org/1999/xlink" x="0px" y="0px"
	 viewBox="0 0 245.5 202.6" style="enable-background:new 0 0 245.5 202.6;" xml:space="preserve">
<style type="text/css">
	.st0{clip-path:url(#SVGID_2_);fill:#039E8B;}
	.st1{fill:none;}
	.st2{fill:#039E8B;}
	.st3{clip-path:url(#SVGID_4_);}
	.st4{clip-path:url(#SVGID_6_);fill:#039E8B;}
	.st5{clip-path:url(#SVGID_8_);fill:#039E8B;}
</style>
<g>
	<rect class="st1" width="245.5" height="202.6"/>
	<path class="st2" d="M33.8,131.5c1.9-4.9,3.8-9.5,5.4-14.2c1.7-5.1,4.3-6.5,9.5-5.9c6.5,0.8,12.7,3,17.6,7.8
		c4.5,4.5,6.9,10,7.5,16.4c1.1,11.3-2.4,21.6-6.6,31.8c-2.5,6.2-4.8,12.4-7.4,18.5c-0.9,2.2-2.4,4.3-3.7,6.5c-1.9-1-3.2-1.9-5.2-1.5
		c-1.1,0.2-2.6-1.2-3.9-2c-3.1-1.9-6-4.2-9.2-5.8c-8.2-4.1-15.6-9.5-23.2-14.5c-6.5-4.3-10.7-10.6-11.3-18.7c-0.2-3.3,0.3-6.7,1-9.9
		c0.5-2.2,2.4-3.8,4.5-4.9c1.9-1,3.8-1.8,5.7-2.7c4.3-2.2,8.7-2.9,13.5-1.7C29.9,131.1,32,131.2,33.8,131.5"/>
	<path class="st2" d="M209.1,27.7c0.5-1.7,1.2-3.3,1.6-4.9c0.8-3.6,2.4-6.8,4-10.1c1-2.1,3-2.3,4.7-2.6c2.6-0.4,5.3-0.1,7.7,1.3
		c5.7,3.4,10.2,7.8,11.9,14.4c1.7,6.2,3.7,12.3,4.6,18.7c0.8,6,0.8,12.3,0.3,18.3c-0.5,6.4-1.9,12.8-3.2,19.1
		c-0.3,1.7-2,3.1-2.6,4.8c-1.3,4-4.5,5.1-8.4,5.7c-0.9-1.8-4-2-4.3-4.9c0-0.2-0.5-0.4-0.8-0.6c-9.1-6.5-18.7-12.2-26.1-20.8
		c-6.9-8-11.8-16.8-13.1-27.4c-0.6-4.8,0.6-9,4.2-12.3c2.4-2.2,5.2-2.9,8.4-1.9C201.6,25.4,205,26.5,209.1,27.7"/>
	<path class="st2" d="M143.4,129.9c1.2-4.6,2.3-9.1,3.5-13.6c0.1-0.2,0.1-0.5,0.2-0.7c3.2-10.6,14.5-10.3,20.4-4.8
		c5.2,4.9,7.6,10.7,9.2,17.2c1.5,6.3,2.9,12.6,3.7,19.1c0.2,1.8,0.1,3.7,0.4,5.6c0.5,4.2,0.9,8.5,1.8,12.6c0.8,3.8,0.2,7.5-0.4,11.1
		c-1.1,6.1-1.1,6-7,5.1c-6.1-0.9-11.7-3.1-17.2-6c-4.3-2.3-8.9-4-13.4-6c-5.3-2.4-10.5-5.1-14.2-9.7c-3.8-4.8-7.5-9.8-8.9-16
		c-1.1-4.6,0.1-8.8,2.8-12.4c2.7-3.6,6.6-4.4,10.8-3.7C137.9,128.2,140.8,129.2,143.4,129.9"/>
	<path class="st2" d="M95.8,30.7c1.4-6.9,2.6-13.2,3.9-19.4c0.2-1,0.9-2.3,1.7-2.8c1.5-0.9,2.5-1.9,3.2-3.5c0.2-0.4,0.7-0.8,1.1-0.9
		c2.3-0.2,4.6-0.4,6.9-0.4c0.8,0,1.8,0.2,2.5,0.6c6.8,4.1,11,9.9,12.6,18c2.7,13.4,2.4,26.7,0.9,40.1c-0.2,2.2,0,4.2,0.7,6.3
		c1.6,4.3-1.7,8.2-6.2,7.4c-3-0.6-6-1.2-8.4-3.7c-3.1-3.2-7.4-4.7-11.6-6c-7.1-2.2-13.9-5.2-20.2-9.1c-6.6-4.1-10.1-9.6-8.2-18.1
		c0.3-1.2,0.4-2.5,0.8-3.7c2.1-5.9,6.9-8.3,13.2-6.4c1.4,0.4,2.8,1.1,4.3,1.5C94,30.7,95,30.7,95.8,30.7"/>
</g>
</svg>
