<svg xmlns="http://www.w3.org/2000/svg" viewBox="0 0 160 160" width="161px" height="161px">
    <defs>
        <style>.cls-1{fill:#d6f4fd;}</style>
    </defs>
    <title>Artboard 1</title>
    <path class="cls-1"
          d="M145,0H0V161H161V0ZM129,1h15V16H129Zm15,31H129V17h15Zm0,16H129V33h15Zm0,16H129V49h15Zm0,16H129V65h15Zm0,16H129V81h15Zm0,16H129V97h15Zm0,16H129V113h15Zm0,16H129V129h15ZM17,129H32v15H17Zm0-16H32v15H17Zm0-16H32v15H17Zm0-16H32V96H17Zm0-16H32V80H17Zm0-16H32V64H17Zm0-16H32V48H17Zm0-16H32V32H17ZM128,32H113V17h15Zm0,16H113V33h15Zm0,16H113V49h15Zm0,16H113V65h15Zm0,16H113V81h15Zm0,16H113V97h15Zm0,16H113V113h15ZM33,113H48v15H33Zm0-16H48v15H33Zm0-16H48V96H33Zm0-16H48V80H33Zm0-16H48V64H33Zm0-16H48V48H33Zm79,15H97V33h15Zm0,16H97V49h15Zm0,16H97V65h15Zm0,16H97V81h15Zm0,16H97V97h15ZM49,97H64v15H49Zm0-16H64V96H49Zm0-16H64V80H49Zm0-16H64V64H49ZM96,64H81V49H96Zm0,16H81V65H96Zm0,16H81V81H96ZM65,81H80V96H65Zm0-16H80V80H65Zm15-1H65V49H80ZM65,97H80v15H65Zm16,0H96v15H81ZM96,48H81V33H96ZM80,48H65V33H80ZM64,48H49V33H64ZM49,113H64v15H49Zm16,0H80v15H65Zm16,0H96v15H81Zm16,0h15v15H97Zm15-81H97V17h15ZM96,32H81V17H96ZM80,32H65V17H80ZM64,32H49V17H64ZM48,32H33V17H48ZM33,129H48v15H33Zm16,0H64v15H49Zm16,0H80v15H65Zm16,0H96v15H81Zm16,0h15v15H97Zm16,0h15v15H113ZM113,1h15V16H113ZM97,1h15V16H97ZM81,1H96V16H81ZM65,1H80V16H65ZM49,1H64V16H49ZM33,1H48V16H33ZM17,1H32V16H17ZM1,1H16V16H1ZM1,17H16V32H1ZM1,33H16V48H1ZM1,49H16V64H1ZM1,65H16V80H1ZM1,81H16V96H1ZM1,97H16v15H1Zm0,16H16v15H1Zm0,16H16v15H1Zm15,31H1V145H16Zm16,0H17V145H32Zm16,0H33V145H48Zm16,0H49V145H64Zm16,0H65V145H80Zm16,0H81V145H96Zm16,0H97V145h15Zm16,0H113V145h15Zm16,0H129V145h15Zm16,0H145V145h15Zm0-16H145V129h15Zm0-16H145V113h15Zm0-16H145V97h15Zm0-16H145V81h15Zm0-16H145V65h15Zm0-16H145V49h15Zm0-16H145V33h15Zm0-16H145V17h15ZM145,16V1h15V16Z"/>
</svg>
