<?xml version="1.0" encoding="utf-8"?>
<!-- Generator: Adobe Illustrator 21.1.0, SVG Export Plug-In . SVG Version: 6.00 Build 0)  -->
<svg version="1.1" xmlns="http://www.w3.org/2000/svg" xmlns:xlink="http://www.w3.org/1999/xlink" x="0px" y="0px"
	 viewBox="0 0 329.3 183.1" style="enable-background:new 0 0 329.3 183.1;" xml:space="preserve">
<style type="text/css">
	.st0{clip-path:url(#SVGID_2_);fill:#039E8B;}
	.st1{fill:none;}
	.st2{fill:#039E8B;}
	.st3{clip-path:url(#SVGID_4_);}
	.st4{clip-path:url(#SVGID_6_);fill:#039E8B;}
	.st5{clip-path:url(#SVGID_8_);fill:#039E8B;}
</style>
<g>
	<rect class="st1" width="329.3" height="183.1"/>
	<path class="st2" d="M81.4,145c2.6,6,2.4,5.9-1.6,10.4c-2.4,2.8-5.7,3.6-8.8,4.4c-6,1.6-12.1,2.8-18.2,4c-2.6,0.5-5.2,0.8-7.9,0.9
		c-3.5,0.1-6.7-0.7-9.6-3c-1.3-1-3.3-1.3-5-1.5c-3.8-0.6-6.2-2.8-8-6c-0.5-0.9-1-1.9-1.6-2.8c-1.4-2.4-1.3-3.1,0.9-4.7
		c1.6-1.2,3.3-2.4,5-3.5c0.4-0.3,0.8-0.6,1.2-0.7c8.6-1.7,17.2-3.1,26-1.9c4.7,0.6,9.6,0.6,14.3,1.4C72.6,142.4,76.9,143.8,81.4,145
		"/>
	<path class="st2" d="M158.4,104.7c3.1-0.2,6.1-0.4,9.2-0.5c1.5-0.1,3.1,0,4.6-0.1c1.8-0.1,3.7-0.5,5.5-0.4c1.7,0.1,3.2,1,5,1.1
		c5.7,0.3,11.5,0.5,16.6,3.7c2,1.3,3.1,2.7,2.9,5.2c-0.3,4.1-2.8,6.7-5.8,9c-4.4,0-8,3.3-12.4,3.3c-5.1,0-10.2,0.1-15.3-0.2
		c-3.7-0.2-7.5-0.6-11-1.6c-4.3-1.2-8.5-3.1-12.7-4.9c-1.4-0.7-2.6-2.1-3.6-3.4c-2-2.5-1.7-4.8,0.8-6.5c2.3-1.5,4.6-2.8,7.5-3.1
		c1.7-0.2,3.5-1.4,5.4-1.4c1.1,0,2.1-0.2,3.2-0.3C158.4,104.6,158.4,104.6,158.4,104.7"/>
	<path class="st2" d="M184,21.4c1.8-2.6,4.3-3.8,7-4.9c5.6-2.4,11.5-3.2,17.4-4.3c1.6-0.3,3.4,0.3,5,0.1c8.4-0.9,16.4,0.9,24.1,3.5
		c6.6,2.2,8.2,5.9,5.8,11.5c-1.1,2.4-3.6,2.7-5.5,3.4c-7.8,3.1-16,4.3-24.3,4.2c-8.5-0.1-16.7-1.7-24-6.4
		C186.9,26.9,184,25.3,184,21.4"/>
	<path class="st2" d="M292.3,54.1c-3.8-0.4-7.7-0.6-11.4-1.2c-4.7-0.7-8.2-3.2-10.4-7.5c-0.7-1.4-0.9-2.6,0.3-4
		c1.7-1.9,3.1-4,4.9-5.8c1.3-1.3,2.9-2.3,5.1-2.4c1.6-0.1,3.2-1,4.8-1.5c0.9-0.3,1.8-0.8,2.7-0.9c4.1-0.2,8-1.3,12.2-0.9
		c5.5,0.4,10.7,1.6,15.7,3.6c2.1,0.8,4,2.1,5.9,3.4c1.6,1.2,2.3,2.9,2.2,5.1c-0.3,4.7-2.9,7.9-7.5,8.7c-5.8,1-11.5,2.1-17.3,2.9
		c-2.2,0.3-4.6,0.1-6.9,0.1C292.3,53.7,292.3,53.9,292.3,54.1"/>
	<path class="st2" d="M34.2,98.5c-2.6,0.2-4.8-0.4-7.2-1.6c-2.5-1.2-5.6-1.1-8.4-1.4c-3.5-0.4-6.4-2-8.9-4.3
		c-3.4-3.1-2.9-7.3,1.3-9.2c4-1.8,8.1-3.4,12.3-4.9c1.1-0.4,2.3-0.3,3.5-0.4c2.4-0.2,4.8-0.7,7.2-0.9c3.4-0.3,6.9,0.7,10.3,0.5
		c4.1-0.2,7.7,2.1,11.5,2.3c3.5,0.2,6,1.8,8.6,3.5c3.6,2.4,2.9,9.8-1,11.6c-0.4,0.2-0.9,0.1-1.4,0.2c-7.3,1.3-14.6,2.7-21.9,4
		C38,98.2,36.1,98.3,34.2,98.5"/>
	<path class="st2" d="M169,164.9c-0.2,1.8-0.2,3.7-0.6,5.5c-0.3,1.4-1.1,2.6-2.9,2.7c-0.5,0-1.2,0.3-1.5,0.7c-1.6,2.3-4,2.9-6.4,3.7
		c-8,2.7-16.4,3.1-24.7,3.9c-2.6,0.2-5.1-0.4-7.6-1.6c-3.5-1.8-7.2-3-10.8-4.5c-1.5-0.6-2.5-1.7-3-3.3c-0.5-1.5-0.5-2.7,0.8-3.9
		c2.5-2.5,5.1-4.6,8.8-5.1c2.1-0.2,4.1-1.3,6.2-1.6c7.7-1,15.4-2.9,23.3-1.2c2.8,0.6,5.7,0.6,8.5,0.7
		C162.8,160.9,165.8,162.7,169,164.9"/>
	<path class="st2" d="M126.2,72.9c-4.7,0.4-9.9,0.4-14.9-1c-2.8-0.8-5.4-1.9-8.1-3c-3-1.2-4.3-4.1-5.9-6.6c-0.9-1.4-0.4-3.1,0.9-4.3
		c0.7-0.6,1.5-1.2,2.4-1.6c3.8-1.7,7.9-3.1,12.1-3c1.7,0,3.2-0.1,4.9-0.5c2.1-0.4,4.3-0.8,6.5-0.7c4.6,0.2,9.3,0.5,13.9,1.1
		c1.4,0.2,2.6,1.6,4.1,0.4c4.9,0.9,9,3.2,11.8,7.3c1.3,1.9-0.1,3.7-0.7,5.5c-0.8,2.2-2.2,3.6-4.6,4C141.3,72,134,73.1,126.2,72.9"/>
	<path class="st2" d="M219.6,164.7c-1.3-4-1-4.9,2.5-6.6c2-1,3.2-2.9,5.6-3.5c5.7-1.4,11.4-2.4,17.3-2.4c3.7,0,7.4,0.1,11.1,0.7
		c3.4,0.5,6.8,1.4,10,2.7c3.5,1.4,4.1,3.7,3.4,7.6c-0.5,2.8-1.5,5.3-3.3,7.5c-0.8,1-2,2-3.1,2.2c-8.4,1.7-16.8,3.6-25.4,1.7
		c-4.3-0.9-8.6-2.2-12.7-3.8c-2.7-1-4.9-3-5.4-6.2c0.3-0.5,0.7-0.9,1-1.3c-0.2-0.1-0.4-0.2-0.6-0.3c-0.2,0.5-0.3,0.9-0.4,1.4
		C219.5,164.5,219.6,164.6,219.6,164.7"/>
	<path class="st2" d="M64.4,34.3c-5.8,0-11.6,0.1-17.1-2c-4.9-1.8-8.9-4.8-10.2-10.3c-0.4-1.8,0-2.9,1.5-4.1
		c2.2-1.8,4.6-2.8,7.5-3.1c3.2-0.3,6.3-1.1,9.4-1.8c1.8-0.4,3.5-0.9,5.2,0.1c0.7,0.4,1.6,0.5,2.4,0.5c8-0.5,15.7,1.1,23.4,2.7
		c2,0.4,5.3,3.6,5.4,5.1c0.2,2-1.9,5.7-3.4,7c-5.5,5-12.3,5.5-19.1,5.8C67.8,34.4,66.1,34.3,64.4,34.3"/>
	<path class="st2" d="M322.7,119.9c-0.2,1.4-0.2,2.4-0.4,3.3c-0.4,2.9-1.7,5-4.5,6.4c-10.8,5.4-21.9,7.5-33.7,3.9
		c-4.6-1.4-7.8-4.6-10.6-8.3c-0.9-1.2-1.6-2.7-2.3-4c2.8-4.5,6.7-7.5,11.6-8.6c3.8-0.8,7.8-0.4,11.7-0.2c4.1,0.2,8.1,1,12.1,1.2
		C312.7,114,317.6,116.9,322.7,119.9"/>
	<path class="st2" d="M236.8,98.5c-7.9-0.6-14.9-1.4-21.5-3.7c-3.2-1.1-5.9-3.3-7.8-6.2c-2.1-3.2-1.6-5.4,1.5-7.6
		c1.3-0.9,2.4-1.9,3.7-2.9c0.5-0.3,1.1-0.9,1.5-0.7c2.5,0.7,4.6-1,7-1.2c2.4-0.1,4.7-0.7,7.1-0.6c7.6,0.5,15.4,0.6,22.4,4.2
		c3.1,1.6,5.1,3.4,4,8.4c-0.2,1,0.1,2.2-0.3,3.1c-1.1,2.3-2.5,4.3-5.6,4.1c-2.1-0.1-3.9,0.3-5.9,1.7
		C241.1,98.5,238.3,98.3,236.8,98.5"/>
</g>
</svg>
