<svg xmlns="http://www.w3.org/2000/svg" viewBox="0 0 277.3 272.4">
    <path fill="none" d="M0 0h277.3v272.4H0z"/>
    <path d="M194.7 226.1c-1.5-.1-3-.2-4.6-.2-3.6-.1-7.2 0-10.8-.3-4.6-.3-6.5-2.3-7-6.7-.4-3.6 1.2-5.8 4.9-6.1 2.9-.2 5.8.1 8.6.3 1.8.1 3.6.3 5.4.4 6.8.4 13.7.8 20.5 1.2.7 0 1.5.3 2.1.1 3.4-1.4 5.5 1.2 8 2.6.5.3.2 1.8.4 3.2 0 0 .8.2 1.2.6 1.9 2.1 1.8 4.2-.6 5.8-2.7 1.8-5.6 3.2-8.5 4.7-5.2 2.8-10.4 5.7-15.6 8.5.1.2.1.5.2.7.6.1 1.2.3 1.9.4 4.8.9 9.7 1.8 14.5 2.6.5.1 1.2.2 1.3.5.6 2.8 2.9 1.3 4.2 1.4 2.3.1 4.2.8 4.9 2.9.4 1 .7 2.1 1.2 2.9 1.3 2 1.1 3.7-.4 5.5-1.4 1.7-3.2 2.3-5.1 1.5-5.2-2.1-10.7-2.5-16.1-3.4-5.2-.8-10.5-1.1-15.8-1.7-4.4-.5-8.8-1.1-13.2-1.9-4-.8-6.2-3.7-6.2-7.7 0-2.4 2-3.4 3.4-4.8.7-.7 1.7-.9 2.5-1.4 4-2.4 8-4.8 12-7.1 2.2-1.3 4.4-2.4 6.6-3.6.2-.4.1-.7.1-.9M237.2 146.2c1.5.3 2.3.6 3 .6 4.4.2 8.6 1.1 12.6 2.8 2.1.9 4.3 1.4 6.5 2 4 1 7.6 5.6 6.8 10.5-.4 2.6-2.4 3.8-5.1 3.1-4.1-1-8.1-2.2-12.1-3.4-.6-.2-1.1-.4-1.7-.5-7.1-.7-14.1-2-21.2-1.2-3 .3-6 .6-9 .6-4.4-.1-7.1-1.6-8.6-5.7-.9-2.5-.5-4 1.6-5.7 5.4-4.2 10.9-8.3 16.4-12.4 1-.8 2-1.6 2.8-3-2.6 0-5.2.1-7.8 0-2.4-.1-4.8-.2-7.2-.6-3-.5-4.8-3.6-4.6-7 .2-3.1 2.4-5.4 5.5-5.4 9.3-.1 18.5-.1 27.8-.2 1.7 0 3.4-.2 5.1-.3 4.7-.2 8.9 4.4 8.6 9.2-.1 2.3-1 3.5-2.9 4.8-5.5 3.5-10.7 7.5-16.5 11.8M47.4 228.8c-3.2-.1-6.3-.1-9.3-.3-2.9-.2-5.7-.7-8.6-1.2-2.8-.5-4.1-2.6-4.5-6.5-.3-2.3.3-3.5 2.2-4.4.9-.4 2.1-.6 3.1-.6 8.9.5 17.8 1.1 26.6 1.8 3.6.3 7.2.9 10.8 1.3 3.4.4 6 1.7 7.1 5.2.3 1 .7 2.1 1.4 2.9 1.4 1.6.7 2.7-.7 3.5-2.9 1.7-5.9 3.3-8.9 4.7-3.1 1.5-6.3 2.9-9.5 4.3-.3.1-.5.5-.9 1 4.1 1.7 8.2 2.2 12.3 2.5 2.5.2 5.1.1 7.6.3 2.2.1 4.1.9 5.3 3 .9 1.6 2.6 2.5 2.5 4.9-.2 3-1.1 4.6-4.1 4.6-3.3 0-6.5 0-9.8-.3-6.4-.5-12.7-1.3-19.1-1.8-4.8-.3-9.6-.5-14.4-.3-3 .1-5.9-.5-8.3-1.9-1.5-.9-2.7-3-3.3-4.8-.6-1.6-.4-3.7 1.1-5 1.4-1.2 2.8-2.6 4.5-3.5 5.4-2.9 10.8-5.6 16.2-8.4.4-.1.4-.4.7-1M124.7 160.3h-12.4c-3.2 0-4.8-1.1-6-4.1-1.6-4 .2-7 4.1-7.3 4.9-.4 9.9-.5 14.8-.6 7.8-.2 15.7 0 23.4 1.4 3.1.6 6.2 1.9 8.9 3.6 1.4.9 2.2 3.1 2.8 4.9.6 1.6-.7 3.2-2.5 3.7-5.9 1.7-11.8 3.3-17.5 5.3-2.6.9-5 2.6-7.5 4.6 2.5.5 5.1 1.2 7.6 1.4 6 .6 11.8 1.9 17.6 3.7 2.7.8 5.5 5.4 5 8.2-.5 2.6-2.5 4-5.2 3.8-.8-.1-1.7 0-2.5-.3-9-3.1-18.3-3.9-27.6-4.8-4.5-.5-9.1-.8-13.6-1.1-4.4-.3-8.1-4.4-7.6-8.7.1-.8.5-1.6 1.1-2.2.9-1 1.9-1.9 3-2.6 4.2-2.5 8.5-4.9 12.7-7.4.4-.3.7-.8 1.4-1.5M88 25.8c-7.4 7-16.9 11.4-23.7 19.4 1.2 1.4 2.7 1 4 1 4.2-.1 8.4-.3 12.6-.4 2.3-.1 4.5.8 7 .4 1.3-.2 3 1.6 4.4 2.7.9.6 1.5 1.5 2.4 2.1.9.7 2.1 1.3 1.5 2.5-.6 1.2-1.5 2.5-2.6 3.1-1.1.6-2.6.6-3.9.6l-33.6.9c-2.6.1-5.3.2-7.9.1-3.8-.1-5.4-1.8-6.5-6.2-.7-2.8.6-4.9 3.4-6.8 1.8-1.2 3.2-2.8 4.8-4.3 2.4-2.3 4.9-4.6 7.3-7 1.3-1.3 2.6-2.7 4.5-4.7h-3.4c-4.7.1-9.4.3-14 .3-1.4 0-2.9-.1-4.3-.4-3-.6-4.2-2.7-3.6-5.8.9-4.6 1.9-5.3 6.5-5.3 7.9 0 15.9 0 23.8-.1 3.6-.1 7.2-.5 10.8-.7.7 0 1.6-.1 2.1.2 3 2.4 7.1 3.8 8.4 8.4M41.7 114.7c-1.1.2-2.1.4-3.2.5-1.9.2-3.8.4-5.7.3-3.1-.2-5.4-2.7-5.8-6.2-.3-2.7 1.4-5.3 4.6-6 3.8-.8 7.8-1.3 11.7-1.4 5.5-.1 11.1.1 16.6.5 3.2.2 6.4.6 9.5 1.4 1.4.3 2.8 1.1 3.3 3.1.4 1.8 1.7 3.3 2.9 5.4-2 1.1-3.9 2.3-5.9 3.3-4.4 2.1-8.9 4.1-13.4 6.3-1 .5-1.8 1.5-3.1 2.6 1.3.3 2 .6 2.7.7 3.4.1 6.8.1 10.1.3 1.8.1 3.6.6 5.2 1.3 1.5.7 2.8 1.7 3.1 3.7.2 1.4 1.2 2.7 1.9 4 .6 1.2.2 1.9-1 2.5-1.6.9-3.2 1.2-5.1 1-11.2-1-22.4-.7-33.5.6-1.4.2-2.9.2-4.3 0-1.5-.2-3.3-.3-4.3-1.2-1.9-1.6-2.7-3.9-3-6.4-.1-.5.2-1.2.6-1.6 2.1-2.2 4.1-4.4 6.4-6.3 3.1-2.6 6.5-4.9 9.7-7.4-.1-.1-.2-.4 0-1M234.8 23.5h-5.7c-1.3 0-2.7-.1-3.9-.4-3.9-.9-6.2-4.9-5-8.7.5-1.6 3-3.2 5.2-3.1 3.1.2 6.2.5 9.4.7 5.4.3 10.8.5 16.2.8.6 0 1.3.1 1.7.4 2.7 1.7 5.4 3.5 6.9 6.5.9 1.8.1 3.9-2.1 5.6-4.8 3.5-9.7 7-14.6 10.5-2.1 1.5-4.2 3.1-6.7 5 2.9.6 5.2 1.2 7.7 1.1 1.7 0 3.5.4 5.2.7 1.7.3 3.4.9 5.1 1.2 2.1.4 3.7 1.2 4.4 3.6.5 1.8 1.9 3.2 1.9 5.2 0 2.5-.3 3.4-2.9 3.5-2.6.1-5.4.1-7.8-.7-3.9-1.3-7.8-1.3-11.8-1.4-6.6-.1-13.2 0-19.8-.2-1.6 0-3.7-.4-4.6-1.4-1.5-1.8-2.5-4.1-2.9-6.4-.4-2.1 1.3-3.6 3.1-4.9 5-3.7 10-7.4 15-11.2 2.2-1.7 4.4-3.6 6.5-5.3-.3-.4-.4-.7-.5-1.1M169.1 60.5c1.1.2 2.3.4 3.4.6 2.7.5 5.5.7 8.1 1.5 1.8.6 3.5 1.9 4.8 3.3 1.8 1.8 2.3 4.1 1.7 6.7-2.2 1.9-4.8 2.5-7.7 1.8-6.9-1.6-13.9-1.1-20.8-1.4-4.5-.2-8.9-.2-13.4-.2-2.6 0-4.3-.9-5.1-3.5-.5-1.7-2.1-3.4-1.1-5.1 1-1.7 2.1-3.4 4.1-4.4 3.8-2 7.4-4.5 11-6.8.8-.6 1.4-1.5 2.5-2.6-1.9-.3-3.3-.4-4.7-.6-1.2-.2-2.4-.2-3.6-.5-3.9-1.1-6-5.7-4.2-9.3.8-1.7 2.6-2.5 4.5-2.4 4.4.3 8.9.8 13.3 1.1 3.4.3 6.7 1.2 10.3 1 2.8-.1 5.9 1.7 8.6 3.3 1.5.9 2.5 2.9 3.2 4.6.8 1.7-.5 2.7-2 3.6-4.1 2.3-8 4.9-12 7.3-.4.2-.8.5-1.2.7 0 .5.1.9.3 1.3"/>
</svg>
