<?xml version="1.0" encoding="utf-8"?>
<!-- Generator: Adobe Illustrator 21.1.0, SVG Export Plug-In . SVG Version: 6.00 Build 0)  -->
<svg version="1.1" xmlns="http://www.w3.org/2000/svg" xmlns:xlink="http://www.w3.org/1999/xlink" x="0px" y="0px"
	 viewBox="0 0 240.5 216.1" style="enable-background:new 0 0 240.5 216.1;" xml:space="preserve">
<style type="text/css">
	.st0{clip-path:url(#SVGID_2_);fill:#039E8B;}
	.st1{fill:none;}
	.st2{fill:#039E8B;}
	.st3{clip-path:url(#SVGID_4_);}
	.st4{clip-path:url(#SVGID_6_);fill:#039E8B;}
	.st5{clip-path:url(#SVGID_8_);fill:#039E8B;}
</style>
<g>
	<rect class="st1" width="240.5" height="216.1"/>
	<path class="st2" d="M106.7,28.9c0.2-10.5,7-16.5,18.2-16.5c10.2,0,19,4.5,27.5,9.4c4.1,2.4,5.1,6.5,4.3,11.3
		c-1.2,6.7-5.4,11.1-10.3,15.1c-2.3,1.9-4.8,3.5-7.3,5c-7,4.2-14.1,5-21.3,0.6c-1.9-1.2-4.2-2.8-4.9-4.8c-2.2-6-5.4-11.7-6-18.2
		C106.8,30.1,106.7,29.4,106.7,28.9"/>
	<path class="st2" d="M105.8,106.7c-0.4-7.4,2.6-13.2,8.7-17.1c2.2-1.4,5.4-2.2,8-2c7.6,0.8,15.1,2,22.6,3.5
		c4.7,0.9,8.2,3.8,9.3,8.7c0.2,0.9,0.6,1.9,0.3,2.7c-2.7,10.5-7.4,19.7-18,24.1c-6.8,2.8-13.8,2.8-20.3-0.9
		C109.1,121.7,106.4,114.7,105.8,106.7"/>
	<path class="st2" d="M45.2,19.3c4.1,1,8.3,1.7,12.3,3.2c3.5,1.4,6.4,3.9,7.5,7.9c0.3,1.2,1.1,2.2,1.5,3.4c0.5,1.3,1.4,2.8,1.1,4
		c-1.3,5.4-1.3,11.4-5.2,15.9c-3.8,4.4-8.9,6.6-14.5,8.2c-4.6,1.3-8.3,0.3-12.1-1.9c-2.4-1.4-5-2.7-7.3-4.3
		c-3.7-2.6-5.8-6.2-5.4-10.8c0.3-4,0.6-8.1,1.3-12.1c1.3-7.5,7.7-12.6,15.1-12.8c1.9,0,3.8-0.2,5.6-0.3L45.2,19.3z"/>
	<path class="st2" d="M43.9,163.6c5.7-0.1,9.7,2.9,13.7,6c1.5,1.1,2.8,2.4,4.2,3.6c2.4,2.3,4.6,4.5,3.2,8.4
		c-0.9,2.5-0.7,5.3-1.2,7.9c-0.9,5.1-3.5,9.4-7.2,12.9c-1.6,1.5-3.9,2.6-6.1,3.2c-4.8,1.4-9.8,2.4-14.7,1.6
		c-10.3-1.5-12.8-7.8-13-16.6c-0.1-4.2,0.7-8.4,1.7-12.6C26.1,170.5,35.2,163.3,43.9,163.6"/>
	<path class="st2" d="M122.6,199.3c-2.2-0.6-6.2-0.9-8.9-2.9c-2.7-2-4.7-5.5-6-8.7c-3.9-9.8-0.9-18.4,5.7-26.1
		c0.7-0.8,1.7-1.4,2.7-1.6c3.5-0.9,7-2.1,10.5-2.4c7.2-0.5,12.1,3.4,15.6,9.4c0.7,1.2,1.3,2.7,2.3,3.4c5.8,3.3,6.6,7.6,3.1,14.6
		C143,194.5,134.5,198.9,122.6,199.3"/>
	<path class="st2" d="M214.4,83.7c8.8,0,13.6,3.4,17.7,7.8c1.2,1.3,1.9,3.3,2,5.1c0.4,10.7-4.7,18.8-13.4,24.3
		c-5.1,3.2-11.1,4.3-17.3,2c-3.1-1.1-4.7-3.5-6.1-6.1c-1.2-2.2-2.2-4.5-3.2-6.8c-2.9-6.6-1.2-13.5,3.5-19.1
		C202.7,84.7,209.7,84.4,214.4,83.7"/>
	<path class="st2" d="M32,113.5c-0.9-6,1.6-11.2,5.4-16.1c1.8-2.4,4.1-3.8,7-4.3c5.6-1.1,11,0.3,16,2.3c2,0.8,3.2,3.4,5,4.9
		c5.1,4.1,4.8,9.3,3.4,14.9c-1.5,6.1-4.3,11.2-9.2,15.4c-5.9,5-12.5,5.9-19.2,2.7c-6.2-3-8.7-8.7-8.7-15.5
		C31.7,116.4,31.9,115.1,32,113.5"/>
	<path class="st2" d="M209.3,53.1c-8.4,0.7-14.1-1.6-17.6-8.3c-2.9-5.7-2.5-11,0.6-16.5c6.9-12,19.6-15,30.8-9.9
		c2.9,1.3,5.3,3.8,7.7,6c2.3,2,2.7,4.6,2,7.7c-1.6,6.2-4.7,11.2-10.1,14.7c-1.3,0.8-2.7,1.5-3.9,2.5C215.6,52,212.4,54.1,209.3,53.1
		"/>
	<path class="st2" d="M211.3,200.5c-8.1-0.5-13.8-4.5-17.9-10.9c-3.1-4.8-2.1-11.8,2-16.7c8.3-9.8,20-12.3,31.7-7
		c5.7,2.6,8.3,8.6,6.8,14.7c-1.9,7.4-6.6,12.8-12.8,16.8C218.3,199.2,214.6,199.5,211.3,200.5"/>
</g>
</svg>
