<?xml version="1.0" encoding="utf-8"?>
<!-- Generator: Adobe Illustrator 21.1.0, SVG Export Plug-In . SVG Version: 6.00 Build 0)  -->
<svg version="1.1" id="Layer_3" xmlns="http://www.w3.org/2000/svg" xmlns:xlink="http://www.w3.org/1999/xlink" x="0px" y="0px"
	 viewBox="0 0 295.5 286.1" style="enable-background:new 0 0 295.5 286.1;" xml:space="preserve">
<style type="text/css">
	.st0{clip-path:url(#SVGID_2_);fill:#039E8B;}
	.st1{fill:none;}
	.st2{fill:#039E8B;}
	.st3{clip-path:url(#SVGID_4_);}
	.st4{clip-path:url(#SVGID_6_);fill:#039E8B;}
	.st5{clip-path:url(#SVGID_8_);fill:#039E8B;}
</style>
<g>
	<rect class="st1" width="295.5" height="286.1"/>
	<path class="st2" d="M47.9,230.1c-4-3.6-9.2-6.3-14.4-8.1c-3.7-1.3-8.2-0.9-12.2-0.4c-3.2,0.4-6.5,1.5-8.9,4.1
		c-6.1,6.8-8.1,14.7-6.4,23.6c0.3,1.7,0.9,3.4,1.4,5c2.9,9,10.5,13.6,19.9,13.6c6.2,0,11.7-2.1,17-4.9c6.8-3.6,10.3-8.9,10.1-17.3
		C55.6,239.7,52.3,234.1,47.9,230.1z"/>
	<path class="st2" d="M90.3,166c-7.9-10.3-17.6-16.7-31.4-14.8c-4.9,0.7-8.1,3.3-10.3,7.3c-1.7,3.1-3.2,6.4-4.5,9.8
		c-3,8.2-2.7,15.4,3.9,22.4c5.7,6,12.5,6.8,19.5,6.9c5,0,10.1-1.4,14.9-3.8c7-3.5,10.7-8.4,10.4-16C92.9,173.4,92.8,169.2,90.3,166z
		"/>
	<path class="st2" d="M119.1,29.8c-0.4-4.1-1.4-9.8-5.4-14.6c-6.6-8-15.9-10-25.2-12.2C88,3,87.5,3,87,3.1
		c-7.4,2.1-13.4,6.3-16.1,13.7c-1.4,3.9-2,8.3-2.1,12.6c-0.1,2.8,0.5,6.1,2,8.4c4,6.5,9.9,11,17.5,12.3c8.3,1.5,16.3-0.1,23.2-5
		C115.9,41.9,119.8,37.9,119.1,29.8z"/>
	<path class="st2" d="M39,113.6c5.9,4.2,12.6,4.7,19.3,4.7c2.5,0,5.2-1.3,7.6-2.4c5.6-2.6,11.2-5,12.9-12c1-3.8,1.6-7.5,0.8-11.4
		c-0.7-3.2-2.5-5.5-5.2-7.6c-4.8-3.8-9.6-7.6-15.3-10.1c-2.4-1-5-1.6-7.5-2.4c-3.7-0.6-6,2.3-9,3.2c-3.2,1-5.7,3.2-7.3,6
		c-1.9,3.6-3.4,7.5-4.7,11.4c-0.7,2.1-0.8,4.5-0.6,6.7C30.4,105.9,34.1,110.1,39,113.6z"/>
	<path class="st2" d="M241,214c-16.7-4.6-35.2,9.7-28.7,27.5c2.9,7.7,8.9,12.6,16,16.3c4.6,2.4,8.9,3.5,14.3,1.6
		c9-3.1,14.5-9.2,17.9-17.5c2.1-5.3,1.4-11-2.1-15.2C253.7,221.3,248.4,216,241,214z"/>
	<path class="st2" d="M167.2,59.9c0.8,1.1,1.8,2.1,2.8,3.1c2.9,2.9,5.7,6.1,10.1,6.7c4.1,0.6,8.2,1,12.2,1.5c0-0.1,0-0.3,0.1-0.4
		c0.3,0,0.5,0,0.8,0c3.4-0.4,7.2-0.1,10.1-1.5c6.2-3,9.2-9,11.4-15.2c0.2-0.5,0.2-1.1,0.1-1.6c-0.5-4.3-1.8-8.4-4.9-11.6
		c-4.3-4.4-9.2-8.1-15.4-9.4c-2.8-0.6-5.7-1.5-8.5-1.6c-3.3-0.1-6.9-0.4-9.6,1.7c-5.3,4.1-9.5,9.1-10.2,16c-0.3,3.2,0,6.4,0.1,9.6
		C166.4,58.2,166.7,59.2,167.2,59.9z"/>
	<path class="st2" d="M169.1,158.2c-0.9,0.1-1.5,0.4-2.2,0.3c-8.2-1-12,5.3-17,9.8c-5.7,12.2,0,25.2,12.1,29.7
		c1.7,0.6,3.7,0.7,5.5,1.1c12.1,2.9,23.3-3.2,27.1-14.9c2.2-6.7,0.7-12.9-4.1-17.7C184.7,160.6,177.4,157.5,169.1,158.2z"/>
	<path class="st2" d="M135.2,92.6c-5.4-2.2-11.1-2.6-16.7-3.5c-4.6-0.7-8.2,1.6-10.4,5.9c-0.7,1.3-1.2,2.7-2.1,3.9
		c-1.9,2.5-2.5,5.3-2.5,8.2c0.1,1-0.2,2,0.2,2.8c1.8,3.8,3.6,7.7,5.9,11.3c1.1,1.7,3,3.5,4.8,3.9c4.9,1.2,9.9,1.9,14.9,2.3
		c4.3,0.3,7.8-2.2,11.2-4.6c4.2-2.9,7.1-6.6,8.2-11.7c0.5-2.5,0.5-4.8-0.8-6.9C144.8,99.1,140.9,94.9,135.2,92.6z"/>
	<path class="st2" d="M269.9,123.4c-2.4-2.2-5.5-3.7-8.2-5.6c-1.9-1.3-3.8-1.7-6.1-1.6c-2,0.2-4,0.7-5.9,0.3
		c-4.7-1-8.2,1.3-12.5,3.4c2.2,3.2-0.1,4.6-1.7,6c-1.3,1.2-2.3,2.3-2.6,4.2c-0.9,5.3-0.1,10,3.4,14.1c0.9,1.1,1.6,2.5,2.6,3.5
		c4.8,5.2,10.4,8.8,17.9,7.8c9.5-1.3,15.6-7,19.1-15.6c1.1-2.8,1.8-6.1,0.2-8.9C274.4,128.3,272.3,125.6,269.9,123.4z"/>
	<path class="st2" d="M289.6,36.4c-0.7-1.4-1.6-3.2-2.9-3.7c-5.5-2.3-10.8-5.5-17.2-4.6c-4-0.5-7.7,0.8-11.5,2.2
		c-6.9,2.6-9,11.6-8,16.7c0.9,4.6,3.4,8.4,6.5,11.8c2.1,2.3,4.7,4.1,7.9,4.3c6.5,0.5,12.8-0.1,18.4-3.8
		C290.1,54.7,293.3,44.3,289.6,36.4z"/>
	<path class="st2" d="M123.6,255.5c-6.4,6.5-6.1,19.8,2.9,23.5c3.6,1.5,12.1,2.4,15.7,0.4c5.1-2.8,6.4-11.5,6.1-16.8
		c-0.2-5-3.3-8.7-8.2-10.4c-4.3-1.5-11.2-1-14.8,1.6L123.6,255.5z"/>
	<rect class="st1" width="295.5" height="286.1"/>
</g>
</svg>
