<?xml version="1.0" encoding="utf-8"?>
<!-- Generator: Adobe Illustrator 21.1.0, SVG Export Plug-In . SVG Version: 6.00 Build 0)  -->
<svg version="1.1" xmlns="http://www.w3.org/2000/svg" xmlns:xlink="http://www.w3.org/1999/xlink" x="0px" y="0px"
	 viewBox="0 0 261.2 173.1" style="enable-background:new 0 0 261.2 173.1;" xml:space="preserve">
<style type="text/css">
	.st0{clip-path:url(#SVGID_2_);fill:#039E8B;}
	.st1{fill:none;}
	.st2{fill:#039E8B;}
	.st3{clip-path:url(#SVGID_4_);}
	.st4{clip-path:url(#SVGID_6_);fill:#039E8B;}
	.st5{clip-path:url(#SVGID_8_);fill:#039E8B;}
</style>
<g>
	<rect class="st1" width="261.2" height="173.1"/>
	<path class="st2" d="M192.3,63c2.7-2.4,5.7-3.5,8.9-4.2c4.3-0.9,8.7-1.7,13-2.1c3.2-0.3,6.1,0.7,9,2.5c4.9,3,8.7,7.2,13,10.9
		c1.8,1.5,1.2,3.7,1.3,5.7c0,0.3-0.3,0.7-0.6,0.8c-2.3,1-4.5,2.4-6.8,2.8c-2,0.3-4.3-0.3-6-1.8c-1.9-1.8-4-3.4-5.7-5.3
		c-2.7-2.9-5.6-4.6-9.7-3.3c-3.8,1.2-8,1.4-11.6,3.7c-1.7,1.1-4.1,1.1-6.3,1.2c-2,0.1-3.4-2-2.9-4.1C188.6,66.8,189.8,64.3,192.3,63
		"/>
	<path class="st2" d="M46.3,38.2c-4.5-2.2-3.7-6-1.8-9.1c2.5-4.1,5.5-7.9,9.7-10.3c4.7-2.8,9.4-6.2,15.3-5.8
		c2.8,0.2,5.6,0.8,8.3,1.7c4.3,1.4,8.4,3.3,12,6.2c1.6,1.3,2.3,2.7,2.5,4.6c0.1,0.8-0.2,1.9-0.8,2.3c-2.3,1.6-4.5,3.5-7.6,3.6
		c-1.9,0.1-3.2-0.5-4.8-1.6c-3.9-2.6-8.1-4.8-13-4.3c-1.4,0.1-2.9,0.7-4.1,1.5c-2.7,2-5.4,4.1-7.9,6.5
		C51.9,35.7,49.5,37.4,46.3,38.2"/>
	<path class="st2" d="M212.3,118c-3.6-2-2.6-4.7-0.7-6.8c2.5-2.7,5.3-5.2,9-6.6c4.2-1.6,8.4-3.6,13.3-2.7c2.3,0.4,4.6,1.2,6.8,2.1
		c3.5,1.4,6.8,3.2,9.5,5.7c1.2,1.1,1.7,2.2,1.7,3.6c0,0.6-0.4,1.4-0.9,1.6c-2.1,0.9-4.1,2.1-6.7,1.9c-1.6-0.1-2.7-0.7-3.9-1.6
		c-3-2.3-6.3-4.3-10.5-4.4c-1.2,0-2.5,0.2-3.5,0.7c-2.5,1.2-4.9,2.5-7.1,3.9C217.2,116.7,215,117.8,212.3,118"/>
	<path class="st2" d="M106.1,141.4c6.7-4.6,14.1-7.4,22.3-7.1c3.5,0.1,7,0.6,10.4,1.1c4.6,0.7,8.4,3.2,12,6c2.2,1.6,1.7,5.1-0.9,6.6
		c-3.3,1.9-6.8,3.7-10.4,0.3c-0.8-0.8-2.3-0.8-3.5-1.1c-8-2.1-15.5-1.5-22.3,3.7c-1.4,1.1-3.1,2-4.5,3.1c-1.8,1.5-3.8,1.8-6.1,1.6
		c-3.4-0.3-4.5-2.1-3.2-5.4C101.2,146.6,103,143.6,106.1,141.4"/>
	<path class="st2" d="M131,22.2c5.1-4,11.1-6.3,17.4-7.5c2.6-0.5,5.4,0.2,8,0.7c5.6,1.3,10.6,3.8,15.3,7.1c3.6,2.5,3.3,6.3-0.5,8.4
		c-3.4,2-6.6,1.7-10.2-0.1c-3.4-1.8-7.2-3.1-11-4.4c-1.2-0.4-2.7-0.2-4,0.2c-3.6,1.1-6.9,2.9-9.6,5.5c-1.3,1.3-2.7,2.4-4,3.7
		c-1.5,1.4-3.1,2.1-5.2,2.3c-3,0.3-4.9-1.8-4.3-4.8C123.9,29.8,127.1,25.2,131,22.2"/>
	<path class="st2" d="M74.3,110c0.6,2.8-0.9,4.4-2.7,5.6c-2.1,1.3-4.5,1.7-6.8,1c-2.7-0.8-5.5-1.7-7.8-3.2c-2.6-1.7-5-1.6-7.3-0.4
		c-3.4,1.8-6.6,4-9.8,6.2c-1.9,1.4-3.9,2.2-6.2,2.6c-1.9,0.3-3.2-0.2-4.5-1.6c-1.4-1.5-0.9-2.9-0.3-4.4c2.8-6.8,8.4-10.5,14.8-13.4
		c1.9-0.8,3.8-1.5,5.8-2c4.6-1.1,9.1-0.7,13.3,1.2c2.8,1.3,5.6,2.5,8.2,4.2C72.4,107,73.4,108.8,74.3,110"/>
	<path class="st2" d="M16.9,64.1c5.3-4.4,11.2-6.9,17.7-8c6.6-1,12.6,0.6,18,4.6c1.9,1.4,3.1,2.9,2.6,5.4c-0.4,2.2-2,3.5-3.9,4.3
		c-3,1.3-5.9,1.2-8.7-0.7c-3.6-2.3-7.4-2.5-11.3-0.6c-4,1.9-7.5,4.3-10.5,7.5c-2.1,2.2-4.7,3.2-7.7,2.8c-3.3-0.4-4.8-2.6-3.7-5.7
		C10.8,69.5,13.7,66.5,16.9,64.1"/>
	<path class="st2" d="M229.2,17.3c5.5-1.9,10.9-2.2,16.3-1.1c5.5,1.1,9.8,4.2,12.9,8.9c1.1,1.7,1.6,3.2,0.5,5
		c-1,1.7-2.6,2.2-4.3,2.3c-2.7,0.1-5-0.7-6.7-3.1c-2.1-2.9-5.1-4.1-8.8-3.8c-3.7,0.3-7.2,1.2-10.5,2.8c-2.3,1.1-4.6,1.2-6.9,0
		c-2.5-1.3-3-3.4-1.3-5.6C222.8,19.9,226,18.3,229.2,17.3"/>
	<path class="st2" d="M198,147.6c10.8-8,24.8-10,36.3-0.6c2,1.6,3.6,3.7,5.1,5.8c1.9,2.8-0.7,6.8-4.1,6.9c-0.6,0-1.3,0.3-1.9,0.3
		c-1.6,0.2-3.1,0-4.4-1.2c-1.1-0.9-2.4-1.7-3.4-2.7c-4.2-4.6-9.3-4.3-14.4-2.6c-2.8,0.9-5.3,2.7-8,3.7c-2,0.7-4.2,1.3-6.2,1.2
		c-3.6-0.2-4.9-3-2.9-6C195.5,150.4,197.3,148.5,198,147.6"/>
	<path class="st2" d="M18.9,153.4c3.2-1.9,6.9-4.2,10.6-6.4c5.4-3.1,10.9-2.5,16.4-0.5c2.7,1,5.2,2.2,7.7,3.6
		c1.4,0.7,2.6,1.8,3.6,2.9c1.8,2.1,1.3,4.2-0.9,5.7c-3.4,2.4-7.1,2.7-10.9,1c-1.7-0.7-3.4-1.4-5-2.1c-2.3-1-4.6-1.1-6.8,0.3
		c-3.4,2.2-7,4.3-10.3,6.6c-2.4,1.7-4.8,2.8-7.9,2.6c-3.1-0.2-4.8-2.7-3.5-5.6C13.4,158.4,16,156.2,18.9,153.4"/>
	<path class="st2" d="M95.3,60.2c3-1.2,6.3-2.6,9.8-3.9c4.9-1.9,9.5-0.7,13.8,1.8c2.1,1.2,4.1,2.6,6,4c1,0.8,2,1.8,2.7,2.9
		c1.2,2,0.6,3.7-1.5,4.7c-3.2,1.5-6.3,1.3-9.2-0.6c-1.3-0.8-2.6-1.6-3.9-2.4c-1.8-1.2-3.7-1.5-5.8-0.6c-3.2,1.4-6.4,2.6-9.5,4.1
		c-2.2,1.1-4.4,1.7-6.9,1.2c-2.6-0.6-3.7-2.9-2.2-5.2C90.1,63.6,92.6,62.2,95.3,60.2"/>
	<path class="st2" d="M123.8,96.5c2.7-1.6,6.1-3.8,9.5-5.7c3.4-1.9,7.2-1.9,11-1.6c6.4,0.6,12.2,2.7,17.2,6.7c2.4,2,3.2,4.9,0.1,7.2
		c-3.6,2.7-6.5,3.1-10.6,0.9c-3.8-2-7.9-2.8-12.2-2.7c-0.9,0-1.8,0.4-2.5,0.9c-3.2,2-6.3,4-9.4,6.1c-1.5,1-2.9,1.9-5,1.6
		c-2.9-0.4-4.5-2.2-3.7-5.1C118.9,101.7,120.6,99,123.8,96.5"/>
</g>
</svg>
