<?xml version="1.0" encoding="utf-8"?>
<!-- Generator: Adobe Illustrator 21.1.0, SVG Export Plug-In . SVG Version: 6.00 Build 0)  -->
<svg version="1.1" xmlns="http://www.w3.org/2000/svg" xmlns:xlink="http://www.w3.org/1999/xlink" x="0px" y="0px"
	 viewBox="0 0 356 160.3" style="enable-background:new 0 0 356 160.3;" xml:space="preserve">
<style type="text/css">
	.st0{clip-path:url(#SVGID_2_);fill:#039E8B;}
	.st1{fill:none;}
	.st2{fill:#039E8B;}
	.st3{clip-path:url(#SVGID_4_);}
	.st4{clip-path:url(#SVGID_6_);fill:#039E8B;}
	.st5{clip-path:url(#SVGID_8_);fill:#039E8B;}
</style>
<g>
	<path class="st2" d="M335.6,96c2.1,0.9,4,1.8,6,2.6c2.4,1,3.6,2.6,3.3,5.3c-0.3,2.5-0.5,5.1-0.9,7.6c-0.4,2.6-2.4,3.6-5,2.7
		c-1.5-0.5-2.9-1-5-1.7c-0.7,2.7-1.3,5.1-1.8,7.5c-0.8,3.8-0.8,3.8-5,4.1c-0.3,0-0.5,0.2-0.9,0.4c-0.5,1.5-1,3.1-1.5,4.7
		c-1,3.1-1.9,3.6-4.9,2.6c-5.7-1.9-11.3-3.8-17.1-5.4c-2.8-0.8-5.9-1-8.8-0.9c-4.5,0.1-6.8-1.8-6.6-6.3c0.1-1.8,0.6-3.6,1-5.7
		c-0.7-0.6-1.6-1.1-2.2-1.9c-1.5-2-3.4-3.9-1.6-6.8c0.4-0.7,0.6-1.7,0.5-2.5c-0.5-3.4,2-5.4,3.8-8c-0.7-1.7-1.5-3.5-2.2-5.4
		c-1.4-3.7,1.5-9.5,5.3-9.4c3.2,0.1,5.7-2.4,9-1.3c2.9,1,6.1,1.2,9.1,2.1c5,1.5,10,3.2,15,4.8c1.2,0.4,2.4,0.8,3.7,1.1
		c5.5,1.2,6.6,2.5,6.7,8.1C335.5,94.7,335.5,95.2,335.6,96"/>
	<path class="st2" d="M56.4,61.9c0,3.5,0,7.3,0,11.1c0,1.3-0.1,2.6-0.6,3.7c-1,2.6-2.9,3.4-5.5,2.5c-8-2.9-16-6-24-8.8
		c-5.2-1.8-10.6-3.3-15.9-4.9c-1.9-0.6-3.8-1.2-5.6-1.9c-3.2-1.3-4.6-4.5-3.2-7.6c0.7-1.6,1.4-3.1,2.2-4.6c0.4-0.7,1.1-1.5,1.8-1.6
		c3.3-0.3,4.2-2.7,5.1-5.3c0.1-0.3,0-0.6,0.2-0.8c3.5-5.1,3.3-11.2,5.1-16.8c1.6-5.1,2.8-6.1,7.3-3.7c1.3,0.7,1.9,0.8,3.2,0.4
		c2.1-0.6,4.3-0.2,6.5,0.6c8.6,3.3,17.2,6.7,25.3,11.1c2.9,1.6,3.6,3.9,3.5,6.6c-0.1,4.9-0.2,9.9-1.3,14.7
		C59.6,59.9,59.8,60,56.4,61.9"/>
	<path class="st2" d="M153.2,106.4c1.8,1,4,2.2,6.3,3.4c2.1,1.2,2.9,3,2.6,5.3c-0.1,1.4-0.1,2.8-0.2,4.2c-0.4,3.6-3.2,5.6-6.7,4.5
		c-2.3-0.7-4.5-1.7-6.8-2.6c-1-0.4-2.1-0.6-2.9-0.9c-1.1,3.2-2,6.1-2.9,8.8c-3.2,1.2-5.6-0.3-8-1.5c-8.1-4.1-16.6-6.8-25.7-7.2
		c-4.5-0.2-7-3.9-5.4-8.2c0.4-1.2,1.1-2.3,1.6-3.2c-1.8-1.5-3.6-2.7-4.9-4.3c-0.7-0.8-0.9-2.7-0.4-3.6c1.7-3.2,3.3-6.8,7-8.2
		c2.1-0.8,2.5-2,1.6-3.6c-1.9-3.5,0-6.1,1.9-8.5c0.7-0.9,2-1.9,3.1-2c2.8-0.3,5.7-0.4,8.5-0.1c2.8,0.4,5.6,1.2,8.2,2.2
		c6.5,2.6,12.9,5.3,19.3,8.1c1,0.4,2,1.1,3,1.6c1.8,1,2.6,2.5,2.3,4.6C154.1,98.9,153.7,102.5,153.2,106.4"/>
	<path class="st2" d="M27.1,112.3c1.5-1.1,3.1-2.3,4.8-3.6c1.3,1.4,2.7,2.3,4.6,0.5c0.7-0.6,2.5-0.6,3.6-0.2
		c7.8,3.1,15.5,6.3,23.3,9.4c3.3,1.3,4.9,3.2,4.5,7.1c-0.3,2.8,0.6,5.7,1,9.3c0.9,0.4,2.5,1.2,4.1,2.1c2.7,1.6,2.9,2.2,2.2,5.2
		c-0.2,0.8-0.6,1.9-0.3,2.3c1.5,1.7,0.2,3.3-0.2,4.8c-1,3.2-2,3.7-5.4,2.5c-2.2-0.8-4.4-1.7-7.1-2.8c-0.2,1.9-0.3,3.3-0.4,4.6
		c-0.1,1,0.1,2-0.1,3c-0.5,2.8-2.7,3.8-5.3,2.8c-8.4-3.1-16.9-6.1-25.3-9c-2.1-0.7-4.4-0.9-6.7-1.4c-2-0.4-3.8-0.8-5-2.8
		c-2-3.4-2-3.9,0.9-6.9c-0.1-5.1-0.7-10.2,1.9-14.9c0.5-1,1.4-1.8,2.2-2.6c2.5-2.5,3-5.6,2.4-9c0.5,0.3,1.1,0.6,1.6,0.9
		c0,0,0.3-0.4,0.4-0.6C28.3,112.9,27.7,112.6,27.1,112.3"/>
	<path class="st2" d="M144.7,39.4c-0.7,1.3-1.2,2-1.5,2.8c-1.7,3.9-2.1,4.3-6,3.3c-9.9-2.6-19.8-5.3-29.7-7.9c-1.6-0.4-3.3-1-5-1.1
		c-5.2-0.4-6.1-3.2-4.3-8.5c0.8-2.3,2-4.4,3.3-7.1c1.5,0,3.5,0,5.8-0.1c1.2-4,2.7-8.1,3.7-12.3c0.6-2.6,1.4-4.4,4.2-5.7
		C120,0.6,124.2,0,129,2.2c7.6,3.5,15.4,6.7,23,10c2.3,1,3.2,2.7,1.8,4.8c-1.5,2.2-0.8,3.6,0.7,5.1c2.8,2.7,2.8,6.7,4.1,10
		c0.2,0.4,0.1,1.3-0.2,1.5c-1.4,1.1-0.8,2.5-0.7,3.9c0,1-0.1,2-0.4,2.9c-0.7,2.1-2.3,2.7-4.4,2C150.3,41.6,147.7,40.6,144.7,39.4"/>
	<path class="st2" d="M196.8,137c-6.6-1.3-8-3.7-5.6-9.4c1.9-4.4,4.1-8.8,7.2-12.6c1-1.2,1.3-3,2.1-4.8c4.2-2,8.5-2,13.3-0.3
		c6.6,2.3,12.9,5.1,18.8,8.8c1.3,0.8,2,1.6,2,3.4c0,2.3,1,4.3,3.6,5.1c2.4,0.7,3.5,2.5,4.1,5c1,4.2,3,8.2,3.5,12.6
		c0.4,3.7,0.3,4.8-2.3,7.4c-5-1.2-9.8-3.8-15.4-4.7c0,1.5,0.1,2.5,0.1,3.5c-0.1,3.9-2.5,5.6-6.2,4.4c-3.6-1.2-7.2-2.6-10.9-3.7
		c-3-0.8-6.1-1.3-9.2-1.9c-1.4-0.3-2.8-0.5-4.1-1c-3.2-1.3-3.9-3.4-2.8-6.5C195.6,140.7,196.1,139,196.8,137"/>
	<path class="st2" d="M314.2,47.7c-2.3,2.1-4.5,2-7,1c-7-2.9-14-5.6-21.6-6.7c-2.8-0.4-5.2-1.5-7.3-4.3c0.4-1.5,0.8-3.4,1.4-5.6
		c-2.3-1.6-2.3-4.2-2-7c0.1-1.1,0.3-2.8-0.3-3.2c-3.5-2.5-2.2-5.9-1.7-8.9c0.5-2.6,0.8-5.6,3.5-7.7c0.5,0.8,1,1.4,1.6,2.3
		c1.2-1.3,2.6-2.6,4-4.1c4.4-0.6,8.5,1.4,12.6,2.7c5.3,1.7,10.4,3.7,15.7,5.5c1.1,0.4,2.1,0.8,3.2,1.1c2.9,0.9,5.1,2.2,5.3,5.8
		c0.1,2.8,1.8,4.7,5,5.3c0.2,4.3,0.3,8.4,0.5,12.9c-5.3,0-4.6,4.4-5.8,7.6c-1.5-0.4-2.8-0.7-3.9-1.1c-3.1-1-3.8-0.4-3.3,2.8
		C314,46.8,314.1,47.3,314.2,47.7"/>
	<path class="st2" d="M201.8,30.5c2.8-1.4,5.8-1.4,8.7-0.7c7.7,1.9,14.5,5.9,21.4,9.4c0.9,0.4,1.4,2,1.7,3.1c0.5,2.4,1.3,4.4,3,6.4
		c1.4,1.6,2.1,4.3,2.2,6.5c0.2,3.8-0.2,7.6-0.3,11.6c-4,1.2-7.1-1.6-11-2.3c-0.3,2.5-0.6,4.7-1,7.5c-1.9-0.3-3.7-0.5-5.4-1
		c-4.4-1.4-8.6-3.1-13-4.2c-3.4-0.9-7-0.9-10.5-1.6c-1.9-0.4-3.8-1-5.4-2c-1.6-1-2.1-3-1.6-5c0.4-1.8,0.7-3.6,1.1-5.3
		c-4.7-3.5-3.9-9.8,1.1-12.3c1.2-0.6,2.2-1.8,3.5-2.4c2.2-1,3.2-2.5,3.5-4.9C199.9,32.4,201.1,31.5,201.8,30.5
		c-0.6,1.3-1.2,2.7-1.8,4c0.3,0.1,0.6,0.2,0.9,0.3C201.2,33.4,201.5,32,201.8,30.5"/>
</g>
<rect class="st1" width="356" height="160.3"/>
</svg>
