<svg xmlns="http://www.w3.org/2000/svg" viewBox="0 0 216.8 224">
    <path fill="none" d="M0 0h216.8v224H0z"/>
    <path d="M123.3 53.4c-4.3-8.8-8.1-17.2-13.5-24.8-2.3-3.2-1.2-7.8 2.1-11.1 4.7-4.7 10.6-7.5 16.5-10.4C130.7 6 133 5 135.3 4c1.5-.6 4.2-.2 5.4-1.4.7-.7.3-1.6 1.4-2.1 1-.5 1.5.1 2.2.7 1.9 1.8 3.1 4.1 4 6.5 1.5 3.8.6 5.3-2.6 8-4 3.3-9 4.5-13.3 7-2.3 1.3-4.4 3.1-6.9 4.8 2 3.7 3.7 6.8 5.4 10.1 1.4 2.8 2.7 5.6 4.1 8.4 1.1 2 2.2 4 3.4 6 1.9 3.3 1.7 6.7.7 10.1-.2.8-1.1 1.6-1.9 1.9-6.9 3-12.4 7.8-17.5 13.1-1.8 1.9-2 2.6-.5 5 4.5 7.2 9 14.3 13.5 21.4 1.1 1.7 2.2 3.2 1.2 5.2-.1.1-.1.3-.1.4 1.4 5.1-2.1 6.7-5.7 8.2-5.6 2.3-9.3 7-14.1 10.4-1.4 1-1.3 2.3-.6 3.6 2.7 5 5 10.2 8.1 14.9 1.8 2.8 4.6 4.9 7.3 7 .1.2.3.4.4.7 1.5 4.9-.8 7.5-4.8 10.2-3.1 2-5.1 5.6-7.5 8.5-1.2 1.3-2.2 2.9-3.6 3.9-2.2 1.5-3.6 3.2-3.9 5.7 1.4 1.8 2.9 3.6 4 5.5 2 3.5 4 7.1 5.7 10.8 1.2 2.7 2.5 5.4 1.7 8.6-3.1 1.6-6.2 2.9-9.8 1.7-1.7-.5-2.7-1.6-3.4-3.2-3.6-7.9-7.3-15.8-11.1-23.6-2.4-4.9-1.6-9.6 2.4-13.3 2.9-2.7 5.5-5.7 8.2-8.5.8-.9 1.7-1.8 2.6-2.6 2.1-1.9 2.1-2.2.7-4.8-4-7.1-7.9-14.2-11.8-21.4-.7-1.3-1.4-2.7-2.3-3.9-1.3-1.7-1.8-3.6-2-5.7-.5-5.9 1.6-7.7 7.3-6.4 5.3-3.5 10.6-6.8 16-10.4-1.5-2.5-2.9-4.8-4.2-7.1l-11.7-20.1c-2-3.4-1.7-6.8.2-10.1.6-1 2.1-2.1 3.1-2.1 1.9 0 2.9-1 4.2-2 3.7-2.8 7.5-5.4 11.3-8.1.7-.4 1.6-1.2 2.8-2.1M184.2 167.7c-.6-.8-1.1-1.7-1.7-2.5-3.7-5.2-7.5-10.2-10.9-15.6-3.2-5-2.1-8.1 1.9-12.7 4.5-5.2 9.6-9.9 14.5-14.9-2-2.4-4.2-4.8-6.1-7.4-2.5-3.4-4.7-7-7-10.6-1.5-2.3-1.4-4.8-.7-7.3 2.2-7.1 6.9-12.4 12.7-16.9 1.5-1.2 3-2.5 4.6-3.8-2.1-2.6-3.8-4.7-5.5-6.9-2.4-3.2-4.7-6.4-7.2-9.5-4.8-5.9-2.5-13.9 2.7-18.1 6.1-5.1 12.3-10.1 18.5-15.2.8-.7 1.8-1.6 2.7-1.6 2.8.1 4.5-3.5 7-4.1 4-1.1 10.5 9.3 5 9.5-.4 1.2 0 2.5-.5 3.6-.3.7-1.5 1.5-2.2 2.2-4.7 5.3-10.7 9.7-16.2 14.2-1.3 1.1-2.8 2-4.2 3-.7 2.3.6 3.9 1.9 5.4l10.5 12c1.6 1.9 3.4 3.6 4.9 5.6.5.7.6 2 .3 2.9-1.3 4.6-1.4 4.5-6.2 6-.7.2-1.6.6-1.9 1.2-2.1 4-6.2 6.1-8.8 9.6-.6.7-1.3 1.3-1.9 2.1-2.5 3.1-1.9 6.1 1 8.8 4.6 4.4 8.9 9.1 13.1 13.9 2.2 2.5.5 7.6-2.6 8.7-.7.2-1.5.7-1.8 1.2-2.5 4.7-7.1 7.4-10.8 11-.5.5-1 .9-1.5 1.3-2.8 2.7-3.1 5.8-.6 8.6 4.5 5.1 9 10.2 13.6 15.2 1.9 2.1.9 4.3.6 6.4-.3 2.1-2.3 2.2-4.3 2.1-.6 4.1-4.4 4.8-7.1 6.8-3.7 2.8-7.5 5.4-11.2 8 1.1 6.3 3.9 11.5 6.5 16.6 2.1 4.1 2 8.3 2.6 12.5.2 1.2-.3 2.3-1.6 2.9-4.3 2.1-9.1.5-10.8-3.9-3.7-9.1-7.4-18.2-11-27.3-2.2-5.7-1-8.9 4-12.2 5.2-3.3 10.3-7 15.7-10.8M56.6 21.9c.9-.9 1.8-1.7 3-2.2 6.5-2.8 11.2 9.9 5.9 12.8-.4.2-.8.6-.8.9-1.4 6-7 8.3-10.8 12.2-1.8 1.8-3.7 3.6-5.6 5.2-1.9 1.7-1.6 3.7-.3 5.4 4.8 6.5 9.2 13.3 14.7 19.2 4.2 4.5 2.5 10.9-3.3 12.4-2 .5-3.6.7-3.3 3.4.1.7-.9 1.7-1.6 2.3-1.9 1.6-3.9 2.9-5.8 4.4-1.7 1.3-3.3 2.7-5 4 2.1 4.6 5.4 7.8 8.4 11.3 3.2 3.7 7.1 7 8.6 11.9.9 3-.3 5.5-1.5 8.1-4.2.6-4.1 5.3-7 7.3-2.9 2-5.3 4.7-7.7 7.4-1.1 1.3-1.5 3.2-2.3 5.1 5 4 9.8 7.6 14.3 11.4 2.9 2.5 3.6 6 3.2 9.8-8.1 7.8-16.2 15.7-24.8 23.9 2.6 3.6 5.4 7.2 7.9 10.9 1.5 2.2 3.1 4.5 3.9 7 1.2 3.5-2.2 7-6 6.4-2.7-.4-5.2-1.4-6.9-3.8-3.2-4.6-6.4-9.1-9.5-13.6-1.6-2.3-3.2-4.7-4.7-7.1-.4-.7-.7-1.7-.5-2.4 1.3-3.6 2.4-7.2 5.3-10.1 5.5-5.3 10.8-11 16-16.4-4.4-4.8-8.9-9.4-13.1-14.3-1.9-2.2-2.2-4.9-1.5-8 1.5-6.9 5.8-11.6 11-15.8 2-1.6 3.9-3.3 5.9-5 1.5-1.3 1.5-2.4.1-4-3.4-4-6.6-8.2-10-12.3-1.6-1.9-3.6-3.6-5.5-5.4-3.9-3.8-3.8-10.6 1.2-14C33.9 86.9 38.9 82.8 44 79c.8-.6 1.5-1.3 2.6-2.3-5.2-6.6-7.8-14.8-14.8-20.2-4.5-3.3-4-9.7-.1-14 3.6-4 7.8-7.2 12.1-10.4 2.1-1.6 4.1-3.2 6.1-4.8 1.6-1.3 3.8-2.1 5.3-3.6.4-.6.9-1.2 1.4-1.8"/>
</svg>
